# Blender 4.3.2
# www.blender.org
mtllib GoldGoblet.mtl
o Cylinder
v -0.000000 -0.004931 -0.137589
v -0.000000 0.027075 -0.116138
v 0.097290 -0.004931 -0.097290
v 0.082122 0.027075 -0.082122
v 0.137589 -0.004931 0.000000
v 0.116138 0.027075 0.000000
v 0.097290 -0.004931 0.097290
v 0.082122 0.027075 0.082122
v -0.000000 -0.004931 0.137589
v -0.000000 0.027075 0.116138
v -0.097290 -0.004931 0.097290
v -0.082122 0.027075 0.082122
v -0.137589 -0.004931 0.000000
v -0.116138 0.027075 0.000000
v -0.097290 -0.004931 -0.097290
v -0.082122 0.027075 -0.082122
v -0.000000 0.047461 -0.035019
v 0.024762 0.047461 -0.024762
v 0.035019 0.047461 0.000000
v 0.024762 0.047461 0.024762
v -0.000000 0.047461 0.035019
v -0.024762 0.047461 0.024762
v -0.035019 0.047461 0.000000
v -0.024762 0.047461 -0.024762
v 0.044934 0.047461 -0.044934
v -0.000000 0.047461 -0.063546
v 0.063546 0.047461 0.000000
v 0.044934 0.047461 0.044934
v -0.000000 0.047461 0.063546
v -0.044934 0.047461 0.044934
v -0.063546 0.047461 0.000000
v -0.044934 0.047461 -0.044934
v -0.000000 0.076720 -0.024493
v 0.017319 0.076720 -0.017319
v 0.024493 0.076720 0.000000
v 0.017319 0.076720 0.017319
v -0.000000 0.076720 0.024493
v -0.017319 0.076720 0.017319
v -0.024493 0.076720 0.000000
v -0.017319 0.076720 -0.017319
v -0.000000 0.125875 -0.018075
v 0.012781 0.125875 -0.012781
v 0.018075 0.125875 0.000000
v 0.012781 0.125875 0.012781
v -0.000000 0.125875 0.018075
v -0.012781 0.125875 0.012781
v -0.018075 0.125875 0.000000
v -0.012781 0.125875 -0.012781
v 0.000000 0.184128 -0.018075
v 0.012781 0.184128 -0.012781
v 0.018075 0.184128 0.000000
v 0.012781 0.184128 0.012781
v 0.000000 0.184128 0.018075
v -0.012781 0.184128 0.012781
v -0.018075 0.184128 0.000000
v -0.012781 0.184128 -0.012781
v 0.000000 0.188267 -0.027694
v 0.019583 0.188267 -0.019583
v 0.027694 0.188267 0.000000
v 0.019583 0.188267 0.019583
v 0.000000 0.188267 0.027694
v -0.019583 0.188267 0.019583
v -0.027694 0.188267 0.000000
v -0.019583 0.188267 -0.019583
v -0.000000 0.210875 -0.015718
v 0.011114 0.210875 -0.011114
v 0.015718 0.210875 0.000000
v 0.011114 0.210875 0.011114
v -0.000000 0.210875 0.015718
v -0.011114 0.210875 0.011114
v -0.015718 0.210875 0.000000
v -0.011114 0.210875 -0.011114
v 0.019583 0.206737 -0.019583
v -0.000000 0.206737 -0.027694
v 0.027694 0.206737 0.000000
v 0.019583 0.206737 0.019583
v -0.000000 0.206737 0.027694
v -0.019583 0.206737 0.019583
v -0.027694 0.206737 0.000000
v -0.019583 0.206737 -0.019583
v 0.000000 0.257892 -0.015718
v 0.011114 0.257892 -0.011114
v 0.015718 0.257892 0.000000
v 0.011114 0.257892 0.011114
v 0.000000 0.257892 0.015718
v -0.011114 0.257892 0.011114
v -0.015718 0.257892 0.000000
v -0.011114 0.257892 -0.011114
v 0.000000 0.288088 -0.099849
v 0.070604 0.288088 -0.070604
v 0.099849 0.288088 0.000000
v 0.070604 0.288088 0.070604
v 0.000000 0.288088 0.099849
v -0.070604 0.288088 0.070604
v -0.099849 0.288088 0.000000
v -0.070604 0.288088 -0.070604
v 0.000000 0.351990 -0.125323
v 0.088617 0.351990 -0.088617
v 0.125323 0.351990 0.000000
v 0.088617 0.351990 0.088617
v 0.000000 0.351990 0.125323
v -0.088617 0.351990 0.088617
v -0.125323 0.351990 0.000000
v -0.088617 0.351990 -0.088617
v 0.000000 0.440470 -0.123052
v 0.087011 0.440470 -0.087011
v 0.123052 0.440470 0.000000
v 0.087011 0.440470 0.087011
v 0.000000 0.440470 0.123052
v -0.087011 0.440470 0.087011
v -0.123052 0.440470 0.000000
v -0.087011 0.440470 -0.087011
v 0.097880 0.440470 -0.097880
v 0.000000 0.440470 -0.138423
v 0.138423 0.440470 0.000000
v 0.097880 0.440470 0.097880
v 0.000000 0.440470 0.138423
v -0.097880 0.440470 0.097880
v -0.138423 0.440470 0.000000
v -0.097880 0.440470 -0.097880
v -0.000000 0.347442 -0.103163
v 0.072947 0.347442 -0.072947
v 0.103163 0.347442 0.000000
v 0.072947 0.347442 0.072947
v -0.000000 0.347442 0.103163
v -0.072947 0.347442 0.072947
v -0.103163 0.347442 0.000000
v -0.072947 0.347442 -0.072947
v -0.000000 0.296678 -0.088604
v 0.062652 0.296678 -0.062652
v 0.088604 0.296678 0.000000
v 0.062652 0.296678 0.062652
v -0.000000 0.296678 0.088604
v -0.062652 0.296678 0.062652
v -0.088604 0.296678 0.000000
v -0.062652 0.296678 -0.062652
v -0.000000 0.276165 -0.034925
v 0.024696 0.276165 -0.024696
v 0.034925 0.276165 0.000000
v 0.024696 0.276165 0.024696
v -0.000000 0.276165 0.034925
v -0.024696 0.276165 0.024696
v -0.034925 0.276165 0.000000
v -0.024696 0.276165 -0.024696
vn -0.0000 0.5567 -0.8307
vn 0.4711 0.7457 -0.4711
vn 0.5874 0.5567 -0.5874
vn 0.8307 0.5567 -0.0000
vn 0.4711 0.7457 0.4711
vn 0.5874 0.5567 0.5874
vn -0.0000 0.5567 0.8307
vn -0.4711 0.7457 0.4711
vn -0.5874 0.5567 0.5874
vn -0.8307 0.5567 -0.0000
vn -0.2274 0.9738 -0.0000
vn -0.6663 0.7457 -0.0000
vn -0.4711 0.7457 -0.4711
vn -0.5874 0.5567 -0.5874
vn -0.0000 -1.0000 -0.0000
vn -0.6654 0.3385 -0.6654
vn -0.0000 0.2416 -0.9704
vn -0.0000 0.3385 -0.9410
vn -0.0000 0.9738 0.2274
vn -0.0000 0.7457 0.6663
vn -0.1608 0.9738 -0.1608
vn 0.2274 0.9738 -0.0000
vn 0.6663 0.7457 -0.0000
vn -0.1608 0.9738 0.1608
vn -0.0000 0.9738 -0.2274
vn -0.0000 0.7457 -0.6663
vn 0.1608 0.9738 -0.1608
vn 0.1608 0.9738 0.1608
vn -0.0000 1.0000 -0.0000
vn -0.0000 0.2416 0.9704
vn -0.7056 0.0659 0.7056
vn -0.6862 0.2416 0.6862
vn -0.6654 0.3385 0.6654
vn -0.9704 0.2416 -0.0000
vn -0.9410 0.3385 -0.0000
vn -0.0000 0.3385 0.9410
vn 0.6862 0.2416 0.6862
vn 0.6654 0.3385 -0.6654
vn 0.9704 0.2416 -0.0000
vn 0.9410 0.3385 -0.0000
vn -0.6862 0.2416 -0.6862
vn 0.6654 0.3385 0.6654
vn 0.6862 0.2416 -0.6862
vn -0.9978 0.0659 -0.0000
vn -0.7071 -0.0000 -0.7071
vn -0.7056 0.0659 -0.7056
vn 0.7056 0.0659 0.7056
vn 0.7056 0.0659 -0.7056
vn -0.0000 0.0659 -0.9978
vn -0.0000 0.0659 0.9978
vn 0.9978 0.0659 -0.0000
vn -0.3952 -0.9186 -0.0000
vn -0.2795 -0.9186 -0.2794
vn -0.7071 -0.0000 0.7071
vn 0.7071 -0.0000 0.7071
vn 0.7071 -0.0000 -0.7071
vn -0.0000 -0.0000 -1.0000
vn -1.0000 -0.0000 -0.0000
vn -0.0000 -0.0000 1.0000
vn 1.0000 -0.0000 -0.0000
vn -0.2794 -0.9186 0.2794
vn -0.0000 -0.9186 0.3952
vn 0.3952 -0.9186 -0.0000
vn 0.2795 -0.9186 0.2794
vn -0.0000 -0.9186 -0.3952
vn 0.2794 -0.9186 -0.2795
vn 0.2309 0.9452 -0.2309
vn -0.0000 0.9452 -0.3266
vn 0.3266 0.9452 -0.0000
vn 0.2309 0.9452 0.2309
vn -0.0000 0.9452 0.3266
vn -0.2309 0.9452 0.2309
vn -0.3266 0.9452 -0.0000
vn -0.2309 0.9452 -0.2309
vn -0.2389 -0.9412 -0.2389
vn -0.0000 -0.6720 -0.7405
vn -0.0000 -0.9412 -0.3378
vn -0.0000 -0.6720 0.7405
vn -0.6841 -0.2533 0.6840
vn -0.5236 -0.6720 0.5236
vn -0.3378 -0.9412 -0.0000
vn -0.7405 -0.6720 -0.0000
vn -0.0000 -0.9412 0.3378
vn 0.5236 -0.6720 0.5236
vn 0.2389 -0.9412 -0.2389
vn 0.7405 -0.6720 -0.0000
vn 0.3378 -0.9412 -0.0000
vn -0.5236 -0.6720 -0.5236
vn -0.2389 -0.9412 0.2389
vn 0.2389 -0.9412 0.2389
vn 0.5236 -0.6720 -0.5236
vn -0.9674 -0.2533 -0.0000
vn -0.6995 -0.1465 -0.6995
vn -0.6840 -0.2533 -0.6841
vn 0.6840 -0.2533 0.6841
vn 0.6841 -0.2533 -0.6840
vn -0.0000 -0.2533 -0.9674
vn -0.0000 -0.2533 0.9674
vn 0.9674 -0.2533 -0.0000
vn -0.6915 0.2091 -0.6915
vn -0.9706 0.2406 -0.0000
vn -0.6863 0.2406 -0.6863
vn -0.6995 -0.1465 0.6995
vn 0.6995 -0.1465 0.6995
vn 0.6995 -0.1465 -0.6995
vn -0.0000 -0.1465 -0.9892
vn -0.9892 -0.1465 -0.0000
vn -0.0000 -0.1465 0.9892
vn 0.9892 -0.1465 -0.0000
vn 0.9706 0.2406 -0.0000
vn 0.5515 0.6259 0.5515
vn 0.6863 0.2406 0.6863
vn -0.0000 0.2091 0.9779
vn -0.6863 0.2406 0.6863
vn -0.6915 0.2091 0.6915
vn 0.6915 0.2091 0.6915
vn -0.0000 0.2406 0.9706
vn 0.6915 0.2091 -0.6915
vn 0.9779 0.2091 -0.0000
vn -0.0000 0.2406 -0.9706
vn -0.0000 0.2091 -0.9779
vn -0.9779 0.2091 -0.0000
vn 0.6863 0.2406 -0.6863
vn -0.5515 0.6259 -0.5515
vn -0.0000 0.9341 -0.3570
vn -0.0000 0.6259 -0.7799
vn 0.5515 0.6259 -0.5515
vn -0.7799 0.6259 -0.0000
vn -0.5515 0.6259 0.5515
vn -0.0000 0.6259 0.7799
vn 0.7799 0.6259 -0.0000
vn -0.3570 0.9341 -0.0000
vn 0.3570 0.9341 -0.0000
vn 0.2524 0.9341 0.2524
vn 0.2524 0.9341 -0.2524
vn -0.2524 0.9341 -0.2524
vn -0.0000 0.9341 0.3570
vn -0.2524 0.9341 0.2524
vt 0.559357 0.348472
vt 0.433805 0.175993
vt 0.536845 0.113439
vt 0.564521 0.175993
vt 0.438969 0.348472
vt 0.461481 0.113440
vt 0.545519 0.654948
vt 0.438969 0.680858
vt 0.461481 0.915891
vt 0.545808 0.813739
vt 0.451491 0.503280
vt 0.558985 0.481614
vt 0.545808 0.245874
vt 0.639446 0.175993
vt 0.422406 0.329357
vt 0.358880 0.175993
vt 0.536845 0.915891
vt 0.452807 0.654948
vt 0.559357 0.680858
vt 0.665356 0.113439
vt 0.900389 0.680858
vt 0.332970 0.915891
vt 0.456864 0.703599
vt 0.528748 0.608731
vt 0.541462 0.703599
vt 0.837835 0.654948
vt 0.684471 0.437908
vt 0.837835 0.374382
vt 0.313855 0.437908
vt 0.160491 0.374382
vt 0.358880 0.853338
vt 0.575920 0.699973
vt 0.639446 0.853338
vt 0.575920 0.329357
vt 0.313855 0.591422
vt 0.160491 0.654948
vt 0.422406 0.699973
vt 0.684471 0.591422
vt 0.456864 0.616784
vt 0.397044 0.556964
vt 0.601282 0.556964
vt 0.541462 0.616784
vt 0.541462 0.412546
vt 0.601282 0.472366
vt 0.397044 0.472366
vt 0.456864 0.412546
vt 0.442150 0.606228
vt 0.499722 0.452157
vt 0.501274 0.608574
vt 0.510217 0.703872
vt 0.543240 0.606228
vt 0.570217 0.700518
vt 0.601283 0.697869
vt 0.528749 0.608731
vt 0.570588 0.604723
vt 0.397045 0.697869
vt 0.469579 0.608731
vt 0.456865 0.703599
vt 0.427738 0.604723
vt 0.469578 0.608731
vt 0.541463 0.703599
vt 0.570587 0.604723
vt 0.601282 0.697869
vt 0.446453 0.449541
vt 0.477329 0.269475
vt 0.477329 0.452498
vt 0.520997 0.452498
vt 0.551873 0.449541
vt 0.520996 0.452498
vt 0.530692 0.450426
vt 0.551874 0.449541
vt 0.446454 0.449541
vt 0.477330 0.452498
vt 0.520996 0.567375
vt 0.465711 0.595425
vt 0.477329 0.567375
vt 0.456090 0.450426
vt 0.506978 0.269277
vt 0.520997 0.269475
vt 0.551873 0.266517
vt 0.520996 0.269475
vt 0.537948 0.267546
vt 0.551874 0.266517
vt 0.477330 0.269475
vt 0.529689 0.400454
vt 0.467127 0.353146
vt 0.525158 0.353146
vt 0.551873 0.536498
vt 0.579922 0.481213
vt 0.579922 0.548117
vt 0.477329 0.461955
vt 0.532614 0.433906
vt 0.520996 0.461955
vt 0.446452 0.536498
vt 0.418403 0.481213
vt 0.446452 0.492832
vt 0.418403 0.548117
vt 0.532614 0.595425
vt 0.551873 0.492832
vt 0.465711 0.433906
vt 0.518149 0.589384
vt 0.544999 0.439089
vt 0.544999 0.586812
vt 0.525158 0.514665
vt 0.471658 0.467357
vt 0.529689 0.467357
vt 0.525158 0.676184
vt 0.471658 0.628876
vt 0.529689 0.628876
vt 0.526830 0.577816
vt 0.471497 0.508665
vt 0.529482 0.510965
vt 0.471658 0.400454
vt 0.529689 0.561973
vt 0.467127 0.514665
vt 0.471658 0.561973
vt 0.468844 0.461214
vt 0.526830 0.463515
vt 0.480177 0.560501
vt 0.418404 0.548117
vt 0.453327 0.533651
vt 0.518149 0.560501
vt 0.465711 0.595425
vt 0.544999 0.533651
vt 0.532615 0.595425
vt 0.544999 0.495679
vt 0.579923 0.548117
vt 0.532615 0.433906
vt 0.579923 0.481213
vt 0.480177 0.468830
vt 0.518149 0.468830
vt 0.453327 0.495679
vt 0.465711 0.433906
vt 0.418404 0.481213
vt 0.207991 0.635273
vt 0.453327 0.533651
vt 0.453327 0.586812
vt 0.480177 0.441661
vt 0.480177 0.589384
vt 0.453328 0.586812
vt 0.480177 0.441661
vt 0.480177 0.589384
vt 0.463972 0.589170
vt 0.501944 0.441446
vt 0.501944 0.589170
vt 0.518149 0.441661
vt 0.518149 0.589384
vt 0.544999 0.439089
vt 0.544999 0.586812
vt 0.518149 0.441661
vt 0.528793 0.438875
vt 0.528793 0.586598
vt 0.708039 0.769773
vt 0.525318 0.490325
vt 0.717602 0.528748
vt 0.518149 0.560501
vt 0.790335 0.635273
vt 0.619771 0.805838
vt 0.544999 0.495679
vt 0.619770 0.223493
vt 0.790335 0.394058
vt 0.453327 0.495679
vt 0.378555 0.223493
vt 0.480177 0.468830
vt 0.378556 0.805838
vt 0.518149 0.468830
vt 0.207991 0.394058
vt 0.505493 0.880121
vt 0.251666 0.681865
vt 0.525999 0.666042
vt 0.719655 0.635273
vt 0.525998 0.363288
vt 0.719655 0.394058
vt 0.719655 0.394058
vt 0.505493 0.149209
vt 0.703318 0.223493
vt 0.719655 0.635273
vt 0.525999 0.363288
vt 0.513315 0.275601
vt 0.708039 0.357669
vt 0.505493 0.149209
vt 0.703317 0.223493
vt 0.703317 0.805837
vt 0.525998 0.666042
vt 0.703318 0.805837
vt 0.229197 0.366031
vt 0.543913 0.213829
vt 0.527033 0.390055
vt 0.513315 0.792841
vt 0.251828 0.463639
vt 0.251666 0.347465
vt 0.229018 0.111009
vt 0.251666 0.347465
vt 0.238571 0.226471
vt 0.229017 0.111009
vt 0.505493 0.880121
vt 0.251666 0.681865
vt 0.499163 0.903065
vt 0.808108 0.823610
vt 0.499163 0.951580
vt 0.887563 0.514665
vt 0.773803 0.789305
vt 0.773803 0.240025
vt 0.936077 0.514665
vt 0.499163 0.126266
vt 0.808108 0.205720
vt 0.224523 0.240025
vt 0.499163 0.077751
vt 0.110763 0.514665
vt 0.190218 0.205720
vt 0.224523 0.789305
vt 0.062249 0.514665
vt 0.190218 0.823610
vt 0.471293 0.639275
vt 0.307735 0.407641
vt 0.471293 0.390055
vt 0.240996 0.247851
vt 0.527766 0.532688
vt 0.229211 0.544886
vt 0.769129 0.366031
vt 0.454413 0.213829
vt 0.748995 0.155831
vt 0.748995 0.873499
vt 0.769129 0.663299
vt 0.527033 0.639275
vt 0.229197 0.663299
vt 0.537646 0.709444
vt 0.240996 0.755719
vt 0.249331 0.873500
vt 0.543913 0.815501
vt 0.757542 0.621689
vt 0.601009 0.472479
vt 0.757542 0.407641
vt 0.705089 0.773044
vt 0.705089 0.256286
vt 0.690591 0.407641
vt 0.537646 0.283664
vt 0.691893 0.521600
vt 0.293237 0.256286
vt 0.454413 0.815500
vt 0.307735 0.621689
vt 0.690591 0.621689
vt 0.700379 0.673411
vt 0.456978 0.412820
vt 0.541349 0.616511
vt 0.392139 0.773044
vt 0.606187 0.773044
vt 0.240784 0.407641
vt 0.397318 0.472479
vt 0.606187 0.256286
vt 0.541349 0.412820
vt 0.601009 0.556851
vt 0.397318 0.556851
vt 0.456978 0.616511
vt 0.240784 0.621689
vt 0.392139 0.256286
vt 0.452807 0.374382
vt 0.545519 0.374383
vt 0.564521 0.853338
vt 0.440369 0.783625
vt 0.440369 0.304293
vt 0.433805 0.853338
vt 0.097937 0.680858
vt 0.097937 0.348472
vt 0.332970 0.113439
vt 0.900389 0.348472
vt 0.665356 0.915891
vt 0.427739 0.604723
vt 0.397044 0.697869
vt 0.425686 0.700518
vt 0.446453 0.266517
vt 0.463345 0.267546
vt 0.446454 0.266517
vt 0.467127 0.514665
vt 0.467127 0.676184
vt 0.468844 0.575515
vt 0.453327 0.439089
vt 0.453328 0.439089
vt 0.463972 0.441446
vt 0.229018 0.918321
vt 0.249331 0.155831
vt 0.238571 0.797776
vt 0.229017 0.918321
vt 0.700379 0.307720
vt 0.293237 0.773044
s 1
usemtl Gold
f 1/1/1 4/2/2 3/3/3
f 4/4/2 5/5/4 3/6/3
f 5/5/4 8/7/5 7/8/6
f 8/7/5 9/9/7 7/8/6
f 9/10/7 12/11/8 11/12/9
f 12/11/8 13/13/10 11/12/9
f 12/14/8 31/15/11 14/16/12
f 13/17/10 16/18/13 15/19/14
f 16/18/13 1/1/1 15/19/14
f 7/20/15 11/21/15 15/22/15
f 24/23/16 33/24/17 17/25/18
f 8/26/5 29/27/19 10/28/20
f 14/16/12 32/29/21 16/30/13
f 4/31/2 27/32/22 6/33/23
f 10/28/20 30/34/24 12/14/8
f 16/30/13 26/35/25 2/36/26
f 2/36/26 25/37/27 4/31/2
f 6/33/23 28/38/28 8/26/5
f 18/39/29 26/35/25 17/40/29
f 18/39/29 27/32/22 25/37/27
f 20/41/29 27/32/22 19/42/29
f 20/41/29 29/27/19 28/38/28
f 22/43/29 29/27/19 21/44/29
f 22/43/29 31/15/11 30/34/24
f 24/45/29 31/15/11 23/46/29
f 24/45/29 26/35/25 32/29/21
f 37/47/30 46/48/31 38/49/32
f 22/50/33 39/51/34 23/52/35
f 21/53/36 36/54/37 37/55/30
f 18/56/38 35/57/39 19/58/40
f 24/23/16 39/59/34 40/60/41
f 22/50/33 37/47/30 38/49/32
f 20/61/42 35/57/39 36/54/37
f 17/25/18 34/62/43 18/63/38
f 47/64/44 56/65/45 48/66/46
f 35/57/39 44/67/47 36/54/37
f 33/24/17 42/68/48 34/62/43
f 33/24/17 48/66/46 41/69/49
f 39/51/34 46/48/31 47/70/44
f 37/55/30 44/67/47 45/71/50
f 35/57/39 42/72/48 43/73/51
f 39/59/34 48/66/46 40/60/41
f 55/74/52 64/75/53 56/76/53
f 45/77/50 54/78/54 46/48/31
f 43/73/51 52/79/55 44/67/47
f 41/69/49 50/80/56 42/68/48
f 48/66/46 49/81/57 41/69/49
f 46/48/31 55/82/58 47/70/44
f 44/67/47 53/83/59 45/71/50
f 42/72/48 51/84/60 43/73/51
f 60/85/55 77/86/59 61/87/59
f 54/88/61 61/89/62 62/90/61
f 51/91/63 60/92/64 52/93/64
f 49/94/65 58/95/66 50/96/66
f 56/76/53 57/97/65 49/94/65
f 54/88/61 63/98/52 55/74/52
f 52/93/64 61/89/62 53/99/62
f 50/96/66 59/100/63 51/91/63
f 68/101/55 85/102/59 69/103/59
f 58/104/56 75/105/60 59/106/60
f 63/107/58 80/108/45 64/109/45
f 61/110/59 78/111/54 62/112/54
f 59/106/60 76/113/55 60/85/55
f 57/114/57 73/115/56 58/104/56
f 64/109/45 74/116/57 57/114/57
f 62/112/54 79/117/58 63/118/58
f 66/119/67 74/120/68 65/121/68
f 67/122/69 73/123/67 66/119/67
f 68/124/70 75/125/69 67/122/69
f 69/126/71 76/127/70 68/124/70
f 69/126/71 78/128/72 77/129/71
f 71/130/73 78/128/72 70/131/72
f 72/132/74 79/133/73 71/130/73
f 72/132/74 74/120/68 80/134/74
f 88/119/75 89/135/76 81/136/77
f 66/137/56 83/138/60 67/139/60
f 71/140/58 88/141/45 72/142/45
f 69/143/59 86/144/54 70/145/54
f 67/139/60 84/146/55 68/101/55
f 65/147/57 82/148/56 66/149/56
f 72/142/45 81/150/57 65/147/57
f 70/145/54 87/151/58 71/152/58
f 93/153/78 102/154/79 94/155/80
f 87/156/81 94/157/80 95/158/82
f 85/159/83 92/160/84 93/161/78
f 82/162/85 91/163/86 83/164/87
f 87/156/81 96/165/88 88/119/75
f 85/159/83 94/157/80 86/124/89
f 83/164/87 92/160/84 84/166/90
f 81/136/77 90/167/91 82/162/85
f 103/168/92 120/169/93 104/170/94
f 91/171/86 100/172/95 92/173/84
f 89/174/76 98/175/96 90/176/91
f 96/177/88 97/178/97 89/174/76
f 94/155/80 103/179/92 95/180/82
f 92/173/84 101/181/98 93/182/78
f 90/183/91 99/184/99 91/171/86
f 95/185/82 104/170/94 96/177/88
f 108/186/100 123/187/101 124/188/102
f 101/189/98 118/190/103 102/154/79
f 99/184/99 116/191/104 100/172/95
f 97/178/97 113/192/105 98/175/96
f 104/170/94 114/193/106 97/178/97
f 102/154/79 119/194/107 103/179/92
f 100/172/95 117/195/108 101/181/98
f 98/196/96 115/197/109 99/184/99
f 105/198/29 113/199/29 114/200/29
f 107/201/29 113/199/29 106/202/29
f 108/203/29 115/204/29 107/201/29
f 109/205/29 116/206/29 108/203/29
f 110/207/29 117/208/29 109/205/29
f 111/209/29 118/210/29 110/207/29
f 112/211/29 119/212/29 111/209/29
f 105/198/29 120/213/29 112/211/29
f 127/214/110 136/215/111 128/216/112
f 105/217/113 122/218/114 106/219/115
f 112/220/116 121/221/117 105/222/113
f 110/223/118 127/214/110 111/224/119
f 108/186/100 125/225/120 109/226/121
f 106/219/115 123/227/101 107/228/122
f 111/224/119 128/216/112 112/220/116
f 110/229/118 125/225/120 126/230/123
f 132/231/124 141/232/125 133/233/126
f 125/225/120 134/234/127 126/230/123
f 124/188/102 131/235/128 132/236/124
f 121/237/117 130/238/129 122/218/114
f 128/216/112 129/239/130 121/221/117
f 126/240/123 135/241/131 127/214/110
f 124/188/102 133/242/126 125/225/120
f 122/218/114 131/243/128 123/227/101
f 143/244/29 141/232/29 139/245/29
f 130/246/129 139/245/132 131/247/128
f 136/248/111 143/244/133 144/249/134
f 134/250/127 141/232/125 142/251/135
f 132/231/124 139/245/132 140/252/136
f 130/246/129 137/253/137 138/254/138
f 136/248/111 137/253/137 129/255/130
f 134/250/127 143/244/133 135/256/131
f 1/1/1 2/257/26 4/2/2
f 4/4/2 6/258/23 5/5/4
f 5/5/4 6/258/23 8/7/5
f 8/7/5 10/259/20 9/9/7
f 9/10/7 10/260/20 12/11/8
f 12/11/8 14/261/12 13/13/10
f 12/14/8 30/34/24 31/15/11
f 13/17/10 14/262/12 16/18/13
f 16/18/13 2/257/26 1/1/1
f 15/22/15 1/263/15 3/264/15
f 3/264/15 5/265/15 7/20/15
f 7/20/15 9/266/15 11/21/15
f 11/21/15 13/267/15 15/22/15
f 15/22/15 3/264/15 7/20/15
f 24/23/16 40/60/41 33/24/17
f 8/26/5 28/38/28 29/27/19
f 14/16/12 31/15/11 32/29/21
f 4/31/2 25/37/27 27/32/22
f 10/28/20 29/27/19 30/34/24
f 16/30/13 32/29/21 26/35/25
f 2/36/26 26/35/25 25/37/27
f 6/33/23 27/32/22 28/38/28
f 18/39/29 25/37/27 26/35/25
f 18/39/29 19/42/29 27/32/22
f 20/41/29 28/38/28 27/32/22
f 20/41/29 21/44/29 29/27/19
f 22/43/29 30/34/24 29/27/19
f 22/43/29 23/46/29 31/15/11
f 24/45/29 32/29/21 31/15/11
f 24/45/29 17/40/29 26/35/25
f 37/47/30 45/77/50 46/48/31
f 22/50/33 38/49/32 39/51/34
f 21/53/36 20/61/42 36/54/37
f 18/56/38 34/268/43 35/57/39
f 24/23/16 23/269/35 39/59/34
f 22/50/33 21/270/36 37/47/30
f 20/61/42 19/58/40 35/57/39
f 17/25/18 33/24/17 34/62/43
f 47/64/44 55/271/58 56/65/45
f 35/57/39 43/73/51 44/67/47
f 33/24/17 41/69/49 42/68/48
f 33/24/17 40/60/41 48/66/46
f 39/51/34 38/49/32 46/48/31
f 37/55/30 36/54/37 44/67/47
f 35/57/39 34/268/43 42/72/48
f 39/59/34 47/64/44 48/66/46
f 55/74/52 63/98/52 64/75/53
f 45/77/50 53/272/59 54/78/54
f 43/73/51 51/84/60 52/79/55
f 41/69/49 49/81/57 50/80/56
f 48/66/46 56/65/45 49/81/57
f 46/48/31 54/78/54 55/82/58
f 44/67/47 52/79/55 53/83/59
f 42/72/48 50/273/56 51/84/60
f 60/85/55 76/113/55 77/86/59
f 54/88/61 53/99/62 61/89/62
f 51/91/63 59/100/63 60/92/64
f 49/94/65 57/97/65 58/95/66
f 56/76/53 64/75/53 57/97/65
f 54/88/61 62/90/61 63/98/52
f 52/93/64 60/92/64 61/89/62
f 50/96/66 58/95/66 59/100/63
f 68/101/55 84/146/55 85/102/59
f 58/104/56 73/274/56 75/105/60
f 63/107/58 79/275/58 80/108/45
f 61/110/59 77/276/59 78/111/54
f 59/106/60 75/105/60 76/113/55
f 57/114/57 74/116/57 73/115/56
f 64/109/45 80/108/45 74/116/57
f 62/112/54 78/111/54 79/117/58
f 66/119/67 73/123/67 74/120/68
f 67/122/69 75/125/69 73/123/67
f 68/124/70 76/127/70 75/125/69
f 69/126/71 77/129/71 76/127/70
f 69/126/71 70/131/72 78/128/72
f 71/130/73 79/133/73 78/128/72
f 72/132/74 80/134/74 79/133/73
f 72/132/74 65/121/68 74/120/68
f 88/119/75 96/165/88 89/135/76
f 66/137/56 82/277/56 83/138/60
f 71/140/58 87/278/58 88/141/45
f 69/143/59 85/279/59 86/144/54
f 67/139/60 83/138/60 84/146/55
f 65/147/57 81/150/57 82/148/56
f 72/142/45 88/141/45 81/150/57
f 70/145/54 86/144/54 87/151/58
f 93/153/78 101/189/98 102/154/79
f 87/156/81 86/124/89 94/157/80
f 85/159/83 84/166/90 92/160/84
f 82/162/85 90/167/91 91/163/86
f 87/156/81 95/158/82 96/165/88
f 85/159/83 93/161/78 94/157/80
f 83/164/87 91/163/86 92/160/84
f 81/136/77 89/135/76 90/167/91
f 103/168/92 119/280/107 120/169/93
f 91/171/86 99/184/99 100/172/95
f 89/174/76 97/178/97 98/175/96
f 96/177/88 104/170/94 97/178/97
f 94/155/80 102/154/79 103/179/92
f 92/173/84 100/172/95 101/181/98
f 90/183/91 98/196/96 99/184/99
f 95/185/82 103/168/92 104/170/94
f 108/186/100 107/281/122 123/187/101
f 101/189/98 117/282/108 118/190/103
f 99/184/99 115/197/109 116/191/104
f 97/178/97 114/193/106 113/192/105
f 104/170/94 120/169/93 114/193/106
f 102/154/79 118/190/103 119/194/107
f 100/172/95 116/191/104 117/195/108
f 98/196/96 113/283/105 115/197/109
f 105/198/29 106/202/29 113/199/29
f 107/201/29 115/204/29 113/199/29
f 108/203/29 116/206/29 115/204/29
f 109/205/29 117/208/29 116/206/29
f 110/207/29 118/210/29 117/208/29
f 111/209/29 119/212/29 118/210/29
f 112/211/29 120/213/29 119/212/29
f 105/198/29 114/200/29 120/213/29
f 127/214/110 135/241/131 136/215/111
f 105/217/113 121/237/117 122/218/114
f 112/220/116 128/216/112 121/221/117
f 110/223/118 126/240/123 127/214/110
f 108/186/100 124/188/102 125/225/120
f 106/219/115 122/218/114 123/227/101
f 111/224/119 127/214/110 128/216/112
f 110/229/118 109/226/121 125/225/120
f 132/231/124 140/252/136 141/232/125
f 125/225/120 133/242/126 134/234/127
f 124/188/102 123/187/101 131/235/128
f 121/237/117 129/284/130 130/238/129
f 128/216/112 136/215/111 129/239/130
f 126/240/123 134/285/127 135/241/131
f 124/188/102 132/236/124 133/242/126
f 122/218/114 130/238/129 131/243/128
f 139/245/29 138/254/29 137/253/29
f 137/253/29 144/249/29 143/244/29
f 143/244/29 142/251/29 141/232/29
f 141/232/29 140/252/29 139/245/29
f 139/245/29 137/253/29 143/244/29
f 130/246/129 138/254/138 139/245/132
f 136/248/111 135/256/131 143/244/133
f 134/250/127 133/233/126 141/232/125
f 132/231/124 131/247/128 139/245/132
f 130/246/129 129/255/130 137/253/137
f 136/248/111 144/249/134 137/253/137
f 134/250/127 142/251/135 143/244/133
