# Blender 4.3.2
# www.blender.org
mtllib GoldBar.mtl
o Cube
v 0.204323 0.078113 -0.065489
v 0.241840 -0.012502 -0.085597
v 0.204323 0.078113 0.065489
v 0.241840 -0.012502 0.085597
v -0.204323 0.078113 -0.065489
v -0.241840 -0.012502 -0.085597
v -0.204323 0.078113 0.065489
v -0.241840 -0.012502 0.085597
vn 0.9239 0.3825 -0.0000
vn -0.0000 0.2166 0.9763
vn -0.9239 0.3825 -0.0000
vn -0.0000 0.2166 -0.9763
vn -0.0000 1.0000 -0.0000
vn -0.0000 -1.0000 -0.0000
vt 0.325522 0.709432
vt 0.466073 0.925955
vt 0.325522 0.897138
vt 0.513228 0.734380
vt 0.646248 0.094980
vt 0.646248 0.788145
vt 0.779268 0.123797
vt 0.919818 0.340320
vt 0.779268 0.311503
vt 0.646248 0.734380
vt 0.779268 0.094980
vt 0.779268 0.788145
vt 0.513228 0.094980
vt 0.325522 0.680615
vt 0.325522 0.094980
vt 0.325522 0.094980
vt 0.080182 0.788145
vt 0.080182 0.094980
vt 0.466073 0.680615
vt 0.513228 0.148744
vt 0.919818 0.094980
vt 0.646248 0.148744
vt 0.513228 0.680615
vt 0.325522 0.788145
s 0
usemtl Material
f 3/1/1 2/2/1 1/3/1
f 3/4/2 8/5/2 4/6/2
f 5/7/3 8/8/3 7/9/3
f 5/10/4 2/11/4 6/12/4
f 1/13/5 7/14/5 3/15/5
f 6/16/6 4/17/6 8/18/6
f 3/1/1 4/19/1 2/2/1
f 3/4/2 7/20/2 8/5/2
f 5/7/3 6/21/3 8/8/3
f 5/10/4 1/22/4 2/11/4
f 1/13/5 5/23/5 7/14/5
f 6/16/6 2/24/6 4/17/6
