# Blender 4.0.0
# www.blender.org
mtllib Beef.mtl
o Cube
v -0.693495 -0.004846 0.319137
v -0.705325 0.295136 0.220701
v -0.644081 0.028255 -0.229386
v -0.711466 0.347870 -0.219859
v 0.637382 -0.051999 0.256737
v 0.643381 0.265124 0.250255
v 0.511701 0.019100 -0.461271
v 0.523388 0.248816 -0.408968
v 0.359422 -0.015300 -0.425163
v 0.248110 -0.079285 -0.421510
v 0.059811 -0.159060 -0.330095
v -0.111395 -0.051971 -0.323442
v -0.277151 -0.046204 -0.341475
v -0.454259 0.057633 -0.385140
v -0.514097 0.326114 -0.327451
v -0.290012 0.277757 -0.366253
v -0.141753 0.271638 -0.405268
v 0.011675 0.280139 -0.414127
v 0.157591 0.256288 -0.385168
v 0.312500 0.250858 -0.448877
v -0.464714 -0.090721 0.360414
v -0.209831 -0.186285 0.418293
v -0.024358 -0.188638 0.445251
v 0.141951 -0.181576 0.451324
v 0.297588 -0.113519 0.385783
v 0.433865 -0.073243 0.356907
v 0.431098 0.311509 0.316029
v 0.291460 0.307643 0.330471
v 0.161522 0.280385 0.375320
v 0.013175 0.244692 0.388630
v -0.138555 0.260424 0.337476
v -0.507044 0.286237 0.259412
v -0.724569 0.044626 -0.095891
v -0.730693 0.026578 0.009724
v -0.748249 0.025008 0.146264
v -0.713855 0.352969 0.103790
v -0.715044 0.393611 0.010223
v -0.730608 0.395990 -0.088193
v 0.685468 -0.013090 0.084540
v 0.721074 -0.004668 -0.049043
v 0.622957 0.028953 -0.250764
v 0.625881 0.292504 -0.154502
v 0.632429 0.311381 -0.033846
v 0.636119 0.302555 0.087061
v 0.339452 0.355615 -0.172383
v 0.377950 0.422103 -0.033446
v 0.413313 0.393805 0.111414
v 0.186992 0.374292 -0.185530
v 0.230987 0.445577 -0.028201
v 0.271066 0.406788 0.135478
v 0.040768 0.368195 -0.209469
v 0.085845 0.434263 -0.024260
v 0.133370 0.362280 0.165065
v -0.119463 0.388644 -0.203757
v -0.082991 0.459081 -0.022320
v -0.025027 0.340506 0.174489
v -0.359406 0.442198 -0.156535
v -0.286248 0.470263 -0.011107
v -0.264285 0.374755 0.147205
v -0.552863 0.438746 -0.115215
v -0.510250 0.435008 -0.005593
v -0.464097 0.377877 0.110150
v -0.458269 0.065806 -0.140630
v -0.454177 -0.005412 0.007292
v -0.447793 -0.018745 0.184103
v -0.273647 0.001416 -0.166215
v -0.264429 -0.056817 0.010914
v -0.238180 -0.129548 0.210740
v -0.095508 -0.049046 -0.148949
v -0.077194 -0.102477 0.010834
v -0.049725 -0.125632 0.222442
v 0.088141 -0.090771 -0.164663
v 0.107446 -0.066519 0.005866
v 0.122921 -0.126863 0.226454
v 0.295807 0.005635 -0.223986
v 0.335973 0.003527 -0.064663
v 0.301727 -0.114165 0.203649
v 0.400259 0.036370 -0.191163
v 0.479849 0.033260 -0.068509
v 0.464249 -0.012948 0.110474
v -0.764117 0.163981 0.263797
v -0.744633 0.199933 0.227000
v -0.736276 0.238818 -0.248780
v -0.730709 0.162547 -0.244559
v 0.515759 0.195207 -0.455209
v 0.529473 0.134617 -0.470715
v 0.668178 0.145836 0.253178
v 0.655049 0.078700 0.301751
v 0.496042 0.126053 0.413269
v 0.481479 0.068689 0.415401
v 0.292372 0.140763 0.408110
v 0.294778 0.013722 0.457802
v 0.166275 0.105826 0.435326
v 0.154942 -0.013164 0.468537
v 0.019297 0.070126 0.440082
v -0.002304 -0.038166 0.461866
v -0.147703 0.092424 0.400030
v -0.183286 -0.022721 0.429725
v -0.461449 0.119637 0.301606
v -0.451040 0.057007 0.331445
v -0.466429 0.164069 -0.409278
v -0.467111 0.128043 -0.425876
v -0.289317 0.161955 -0.428026
v -0.286583 0.085903 -0.411169
v -0.142202 0.134208 -0.415890
v -0.132173 0.057357 -0.390792
v 0.013511 0.092703 -0.431496
v 0.031712 -0.033452 -0.391116
v 0.170046 0.089979 -0.494744
v 0.207359 -0.006217 -0.488425
v 0.323603 0.146240 -0.509471
v 0.344241 0.089524 -0.519894
v 0.696441 0.203376 -0.152935
v 0.690227 0.140968 -0.210687
v 0.751347 0.148135 -0.033609
v 0.764961 0.091206 -0.039670
v 0.734591 0.092820 0.091895
v 0.730349 0.061163 0.095021
v -0.795844 0.234627 0.099966
v -0.817032 0.134364 0.123979
v -0.784651 0.251097 0.003683
v -0.818282 0.156635 0.003408
v -0.790974 0.235900 -0.100425
v -0.808062 0.187028 -0.104444
vn -0.9283 0.3401 -0.1506
vn -0.5827 0.5973 -0.5511
vn -0.7298 0.1513 -0.6667
vn -0.0687 0.7402 -0.6689
vn 0.4725 0.4381 -0.7647
vn -0.0369 0.3457 -0.9376
vn 0.6673 0.7328 0.1334
vn 0.8637 0.2248 0.4512
vn 0.9463 0.1260 0.2977
vn -0.1478 0.5770 0.8032
vn -0.5677 0.5188 0.6391
vn -0.1618 0.3306 0.9298
vn 0.1612 -0.9528 -0.2574
vn 0.5260 -0.8003 0.2880
vn 0.3657 -0.8151 0.4492
vn -0.5247 0.7703 0.3624
vn -0.0970 0.8635 0.4949
vn 0.2571 0.9421 0.2152
vn 0.7250 0.5479 0.4174
vn -0.0397 0.9443 0.3268
vn 0.1864 0.7357 0.6511
vn -0.1353 0.9126 0.3858
vn 0.0412 0.7271 0.6853
vn -0.1266 0.6155 0.7779
vn -0.0090 0.6872 0.7264
vn -0.0050 0.8940 0.4481
vn -0.1364 0.6601 0.7387
vn -0.0090 0.8571 0.5151
vn -0.2772 -0.9334 -0.2278
vn -0.5053 -0.5612 0.6556
vn -0.6208 -0.7824 0.0500
vn -0.2060 -0.9443 -0.2567
vn -0.4765 -0.6714 0.5676
vn 0.0373 -0.9749 -0.2194
vn -0.2226 -0.8063 0.5480
vn 0.0610 -0.9721 -0.2266
vn -0.0611 -0.8119 0.5806
vn 0.3322 -0.8213 0.4638
vn 0.2429 -0.7836 0.5717
vn 0.2301 -0.9569 -0.1773
vn 0.3122 0.2136 0.9257
vn 0.0956 0.3727 0.9230
vn 0.0296 0.3049 0.9519
vn -0.1170 0.2529 0.9604
vn -0.2196 0.3108 0.9247
vn -0.1988 0.6248 -0.7551
vn -0.2678 0.3892 -0.8813
vn -0.0662 0.6575 -0.7506
vn -0.0300 0.1199 -0.9923
vn -0.0753 0.5512 -0.8310
vn -0.0158 -0.1076 -0.9941
vn 0.0924 0.5656 -0.8195
vn -0.1925 -0.0697 -0.9788
vn -0.0361 0.7231 -0.6898
vn -0.3179 0.1270 -0.9396
vn 0.2919 -0.9053 -0.3087
vn 0.3693 -0.9254 0.0851
vn 0.2781 -0.8848 -0.3740
vn 0.1556 -0.9878 0.0072
vn 0.2695 -0.9441 -0.1900
vn 0.1251 -0.9848 0.1205
vn -0.1243 -0.9699 -0.2092
vn 0.1814 -0.9784 -0.0996
vn -0.2543 -0.8800 -0.4012
vn -0.2421 -0.9608 -0.1351
vn -0.0468 -0.9817 -0.1847
vn -0.2964 -0.9518 -0.0785
vn -0.2135 -0.9109 -0.3532
vn -0.2705 -0.9262 -0.2626
vn -0.2767 -0.7718 -0.5725
vn -0.1254 -0.9760 -0.1782
vn -0.1868 -0.9581 -0.2171
vn -0.3336 -0.8906 -0.3092
vn -0.5321 -0.8130 -0.2365
vn -0.4998 -0.8578 -0.1197
vn 0.0005 0.9322 -0.3618
vn -0.1209 0.9607 0.2499
vn -0.0022 0.9893 0.1458
vn 0.0550 0.8981 -0.4364
vn 0.0968 0.9933 0.0636
vn 0.0927 0.9088 -0.4067
vn 0.0179 0.9995 0.0275
vn 0.0737 0.8876 -0.4546
vn 0.0189 0.9968 -0.0781
vn 0.1410 0.8975 -0.4179
vn 0.2351 0.9604 -0.1498
vn 0.4662 0.7016 -0.5389
vn 0.5666 0.7767 -0.2753
vn 0.6112 0.7898 -0.0505
vn -0.1494 0.9698 -0.1926
vn -0.5599 0.7949 0.2337
vn 0.4681 -0.6764 -0.5686
vn 0.5000 -0.8056 -0.3178
vn 0.0284 -0.9892 -0.1440
vn 0.4634 -0.8860 -0.0180
vn 0.8418 0.4490 -0.2995
vn 0.9259 0.3778 -0.0034
vn -0.4233 0.5749 0.7002
vn -0.8972 0.4016 0.1837
vn -0.9163 0.3996 0.0258
vn -0.6505 0.7515 -0.1099
vn -0.9863 -0.1417 -0.0842
vn -0.9680 -0.0592 -0.2437
vn -0.9699 -0.1581 0.1851
vn -0.6514 0.3404 0.6781
vn 0.5479 -0.8197 -0.1671
vn 0.9238 -0.2860 0.2544
vn 0.9892 -0.0964 -0.1108
vn 0.8775 0.0250 -0.4789
vn 0.6061 0.0798 -0.7914
vn -0.1243 -0.4723 -0.8726
vn 0.0911 -0.1675 -0.9817
vn -0.2916 -0.4425 -0.8480
vn -0.0796 -0.4124 -0.9075
vn 0.0100 -0.3557 -0.9345
vn -0.3133 -0.0733 -0.9468
vn -0.7297 -0.2849 -0.6216
vn -0.2033 0.1375 0.9694
vn -0.1819 0.3043 0.9351
vn -0.1152 0.0591 0.9916
vn 0.0815 0.0187 0.9965
vn 0.1801 -0.0831 0.9801
vn 0.3247 -0.1773 0.9291
vn 0.7632 -0.0190 0.6458
vt 0.408261 0.100701
vt 0.384076 0.187141
vt 0.351343 0.150228
vt 0.311346 0.744462
vt 0.326780 0.854118
vt 0.264856 0.774050
vt 0.547668 0.844303
vt 0.628193 0.888639
vt 0.571494 0.959431
vt 0.588107 0.239967
vt 0.569685 0.094671
vt 0.665677 0.230665
vt 0.405970 0.771130
vt 0.317504 0.845174
vt 0.269289 0.736525
vt 0.498435 0.164910
vt 0.520379 0.283437
vt 0.545214 0.730598
vt 0.605498 0.835315
vt 0.551218 0.661666
vt 0.626323 0.738609
vt 0.566352 0.589728
vt 0.636075 0.670597
vt 0.671063 0.522267
vt 0.658047 0.603431
vt 0.570951 0.506393
vt 0.646992 0.437625
vt 0.546418 0.382719
vt 0.419294 0.262752
vt 0.358443 0.146817
vt 0.436810 0.108226
vt 0.389974 0.383588
vt 0.316418 0.255889
vt 0.378099 0.482413
vt 0.283498 0.395212
vt 0.363669 0.571972
vt 0.260522 0.482982
vt 0.260004 0.652655
vt 0.251111 0.559743
vt 0.360762 0.667386
vt 0.699573 0.798571
vt 0.715768 0.681929
vt 0.739662 0.607451
vt 0.754191 0.516234
vt 0.728654 0.414649
vt 0.337850 0.273748
vt 0.255106 0.280245
vt 0.304219 0.391940
vt 0.242287 0.389443
vt 0.293408 0.479154
vt 0.227262 0.483090
vt 0.301355 0.564306
vt 0.214024 0.588798
vt 0.312468 0.650419
vt 0.223777 0.694380
vt 0.705002 0.758795
vt 0.597221 0.711530
vt 0.711221 0.687231
vt 0.571505 0.765158
vt 0.509859 0.718210
vt 0.586623 0.580899
vt 0.681993 0.582939
vt 0.488382 0.582890
vt 0.704701 0.470496
vt 0.593006 0.469759
vt 0.495171 0.476975
vt 0.609353 0.362073
vt 0.710797 0.369225
vt 0.504689 0.369266
vt 0.738354 0.251015
vt 0.599256 0.253686
vt 0.512706 0.261935
vt 0.640355 0.155204
vt 0.567453 0.113023
vt 0.508939 0.113119
vt 0.415070 0.351838
vt 0.468443 0.274110
vt 0.472796 0.382934
vt 0.395075 0.477256
vt 0.476181 0.484316
vt 0.397593 0.565298
vt 0.482141 0.573258
vt 0.416811 0.639168
vt 0.486767 0.647126
vt 0.430346 0.716076
vt 0.490746 0.718025
vt 0.353647 0.837457
vt 0.457272 0.857275
vt 0.502743 0.848520
vt 0.426980 0.259836
vt 0.462785 0.179478
vt 0.697162 0.840125
vt 0.585404 0.893291
vt 0.500612 0.796100
vt 0.398345 0.891655
vt 0.459489 0.917298
vt 0.512305 0.949823
vt 0.546357 0.149249
vt 0.500125 0.086401
vt 0.456665 0.098148
vt 0.429407 0.180456
vt 0.518000 0.023696
vt 0.398400 0.069557
vt 0.453195 0.035148
vt 0.444281 0.033337
vt 0.518450 0.025148
vt 0.349485 0.047032
vt 0.590131 0.070563
vt 0.466894 0.918127
vt 0.382410 0.941507
vt 0.512387 0.984041
vt 0.578753 0.975877
vt 0.574149 0.972762
vt 0.430811 0.944319
vt 0.732473 0.892563
vt 0.308366 0.882204
vt 0.772025 0.688282
vt 0.243275 0.798065
vt 0.181076 0.728109
vt 0.755887 0.566985
vt 0.146258 0.605314
vt 0.186469 0.491540
vt 0.789188 0.445990
vt 0.203454 0.388905
vt 0.794085 0.343625
vt 0.236263 0.275435
vt 0.783308 0.226498
vt 0.325987 0.120593
vt 0.192263 0.374205
vt 0.699175 0.224010
vt 0.782757 0.378429
vt 0.808328 0.494586
vt 0.174576 0.486244
vt 0.801433 0.600626
vt 0.166388 0.584864
vt 0.781788 0.693891
vt 0.174316 0.671127
vt 0.726728 0.805633
vt 0.190538 0.793323
vt 0.664373 0.902768
vt 0.245567 0.203005
vt 0.783877 0.789714
vt 0.670875 0.069431
vt 0.585427 0.018529
vt 0.460842 0.975424
vt 0.262239 0.894673
s 1
usemtl Beef
f 123/1/1 4/2/2 83/3/3
f 20/4/4 85/5/5 111/6/6
f 44/7/7 87/8/8 117/9/9
f 32/10/10 82/11/11 99/12/12
f 80/13/13 5/14/14 26/15/15
f 36/16/16 32/10/10 62/17/17
f 47/18/18 6/19/19 44/7/7
f 50/20/20 27/21/21 47/18/18
f 53/22/22 28/23/23 50/20/20
f 53/22/22 30/24/24 29/25/25
f 56/26/26 31/27/27 30/24/24
f 59/28/28 32/10/10 31/27/27
f 65/29/29 1/30/30 35/31/31
f 68/32/32 21/33/33 65/29/29
f 71/34/34 22/35/35 68/32/32
f 74/36/36 23/37/37 71/34/34
f 74/36/36 25/38/38 24/39/39
f 77/40/40 26/15/15 25/38/38
f 6/19/19 89/41/41 87/8/8
f 27/21/21 91/42/42 89/41/41
f 91/42/42 29/25/25 93/43/43
f 93/43/43 30/24/24 95/44/44
f 30/24/24 97/45/45 95/44/44
f 31/27/27 99/12/12 97/45/45
f 83/3/3 15/46/46 101/47/47
f 101/47/47 16/48/48 103/49/49
f 103/49/49 17/50/50 105/51/51
f 105/51/51 18/52/52 107/53/53
f 107/53/53 19/54/54 109/55/55
f 109/55/55 20/4/4 111/6/6
f 9/56/56 75/57/57 10/58/58
f 78/59/59 76/60/60 75/57/57
f 76/60/60 80/13/13 77/40/40
f 10/58/58 72/61/61 11/62/62
f 72/61/61 76/60/60 73/63/63
f 73/63/63 77/40/40 74/36/36
f 12/64/64 72/61/61 69/65/65
f 72/61/61 70/66/66 69/65/65
f 73/63/63 71/34/34 70/66/66
f 12/64/64 66/67/67 13/68/68
f 69/65/65 67/69/69 66/67/67
f 70/66/66 68/32/32 67/69/69
f 14/70/70 66/67/67 63/71/71
f 66/67/67 64/72/72 63/71/71
f 67/69/69 65/29/29 64/72/72
f 3/73/73 63/71/71 33/74/74
f 33/74/74 64/72/72 34/75/75
f 64/72/72 35/31/31 34/75/75
f 15/46/46 57/76/76 16/48/48
f 57/76/76 61/77/77 58/78/78
f 58/78/78 62/17/17 59/28/28
f 16/48/48 54/79/79 17/50/50
f 54/79/79 58/78/78 55/80/80
f 55/80/80 59/28/28 56/26/26
f 18/52/52 54/79/79 51/81/81
f 51/81/81 55/80/80 52/82/82
f 52/82/82 56/26/26 53/22/22
f 19/54/54 51/81/81 48/83/83
f 48/83/83 52/82/82 49/84/84
f 49/84/84 53/22/22 50/20/20
f 19/54/54 45/85/85 20/4/4
f 45/85/85 49/84/84 46/86/86
f 46/86/86 50/20/20 47/18/18
f 8/87/87 45/85/85 42/88/88
f 42/88/88 46/86/86 43/89/89
f 43/89/89 47/18/18 44/7/7
f 4/2/2 60/90/90 15/46/46
f 60/90/90 37/91/91 61/77/77
f 61/77/77 36/16/16 62/17/17
f 7/92/92 78/59/59 9/56/56
f 41/93/93 79/94/94 78/59/59
f 79/94/94 39/95/95 80/13/13
f 8/87/87 113/96/96 85/5/5
f 113/96/96 43/89/89 115/97/97
f 115/97/97 44/7/7 117/9/9
f 2/98/98 119/99/99 82/11/11
f 36/16/16 121/100/100 119/99/99
f 121/100/100 38/101/101 123/1/1
f 122/102/102 33/74/74 34/75/75
f 121/100/100 124/103/103 122/104/102
f 120/105/104 34/75/75 35/31/31
f 119/99/99 122/104/102 120/106/104
f 81/107/105 35/31/31 1/30/30
f 82/11/11 120/106/104 81/108/105
f 40/109/106 118/110/107 39/95/95
f 116/111/108 117/9/9 118/112/107
f 114/113/109 40/109/106 41/93/93
f 113/96/96 116/111/108 114/114/109
f 86/115/110 41/93/93 7/92/92
f 85/5/5 114/114/109 86/116/110
f 110/117/111 9/56/56 10/58/58
f 109/55/55 112/118/112 110/119/111
f 108/120/113 10/58/58 11/62/62
f 108/121/113 109/55/55 110/119/111
f 12/64/64 108/120/113 11/62/62
f 106/122/114 107/53/53 108/121/113
f 13/68/68 106/123/114 12/64/64
f 104/124/115 105/51/51 106/122/114
f 14/70/70 104/125/115 13/68/68
f 102/126/116 103/49/49 104/124/115
f 3/73/73 102/127/116 14/70/70
f 84/128/117 101/47/47 102/126/116
f 98/129/118 21/33/33 22/35/35
f 97/45/45 100/130/119 98/131/118
f 23/37/37 98/129/118 22/35/35
f 96/132/120 97/45/45 98/131/118
f 24/39/39 96/133/120 23/37/37
f 94/134/121 95/44/44 96/132/120
f 25/38/38 94/135/121 24/39/39
f 92/136/122 93/43/43 94/134/121
f 26/15/15 92/137/122 25/38/38
f 90/138/123 91/42/42 92/136/122
f 5/14/14 90/139/123 26/15/15
f 88/140/124 89/41/41 90/138/123
f 100/141/119 1/30/30 21/33/33
f 99/12/12 81/108/105 100/130/119
f 118/110/107 5/14/14 39/95/95
f 118/112/107 87/8/8 88/140/124
f 112/142/112 7/92/92 9/56/56
f 111/6/6 86/116/110 112/118/112
f 33/74/74 84/143/117 3/73/73
f 124/103/103 83/3/3 84/128/117
f 123/1/1 38/101/101 4/2/2
f 20/4/4 8/87/87 85/5/5
f 44/7/7 6/19/19 87/8/8
f 32/10/10 2/98/98 82/11/11
f 80/13/13 39/95/95 5/14/14
f 36/16/16 2/98/98 32/10/10
f 47/18/18 27/21/21 6/19/19
f 50/20/20 28/23/23 27/21/21
f 53/22/22 29/25/25 28/23/23
f 53/22/22 56/26/26 30/24/24
f 56/26/26 59/28/28 31/27/27
f 59/28/28 62/17/17 32/10/10
f 65/29/29 21/33/33 1/30/30
f 68/32/32 22/35/35 21/33/33
f 71/34/34 23/37/37 22/35/35
f 74/36/36 24/39/39 23/37/37
f 74/36/36 77/40/40 25/38/38
f 77/40/40 80/13/13 26/15/15
f 6/19/19 27/21/21 89/41/41
f 27/21/21 28/23/23 91/42/42
f 91/42/42 28/23/23 29/25/25
f 93/43/43 29/25/25 30/24/24
f 30/24/24 31/27/27 97/45/45
f 31/27/27 32/10/10 99/12/12
f 83/3/3 4/2/2 15/46/46
f 101/47/47 15/46/46 16/48/48
f 103/49/49 16/48/48 17/50/50
f 105/51/51 17/50/50 18/52/52
f 107/53/53 18/52/52 19/54/54
f 109/55/55 19/54/54 20/4/4
f 9/56/56 78/59/59 75/57/57
f 78/59/59 79/94/94 76/60/60
f 76/60/60 79/94/94 80/13/13
f 10/58/58 75/57/57 72/61/61
f 72/61/61 75/57/57 76/60/60
f 73/63/63 76/60/60 77/40/40
f 12/64/64 11/62/62 72/61/61
f 72/61/61 73/63/63 70/66/66
f 73/63/63 74/36/36 71/34/34
f 12/64/64 69/65/65 66/67/67
f 69/65/65 70/66/66 67/69/69
f 70/66/66 71/34/34 68/32/32
f 14/70/70 13/68/68 66/67/67
f 66/67/67 67/69/69 64/72/72
f 67/69/69 68/32/32 65/29/29
f 3/73/73 14/70/70 63/71/71
f 33/74/74 63/71/71 64/72/72
f 64/72/72 65/29/29 35/31/31
f 15/46/46 60/90/90 57/76/76
f 57/76/76 60/90/90 61/77/77
f 58/78/78 61/77/77 62/17/17
f 16/48/48 57/76/76 54/79/79
f 54/79/79 57/76/76 58/78/78
f 55/80/80 58/78/78 59/28/28
f 18/52/52 17/50/50 54/79/79
f 51/81/81 54/79/79 55/80/80
f 52/82/82 55/80/80 56/26/26
f 19/54/54 18/52/52 51/81/81
f 48/83/83 51/81/81 52/82/82
f 49/84/84 52/82/82 53/22/22
f 19/54/54 48/83/83 45/85/85
f 45/85/85 48/83/83 49/84/84
f 46/86/86 49/84/84 50/20/20
f 8/87/87 20/4/4 45/85/85
f 42/88/88 45/85/85 46/86/86
f 43/89/89 46/86/86 47/18/18
f 4/2/2 38/101/101 60/90/90
f 60/90/90 38/101/101 37/91/91
f 61/77/77 37/91/91 36/16/16
f 7/92/92 41/93/93 78/59/59
f 41/93/93 40/109/106 79/94/94
f 79/94/94 40/109/106 39/95/95
f 8/87/87 42/88/88 113/96/96
f 113/96/96 42/88/88 43/89/89
f 115/97/97 43/89/89 44/7/7
f 2/98/98 36/16/16 119/99/99
f 36/16/16 37/91/91 121/100/100
f 121/100/100 37/91/91 38/101/101
f 122/102/102 124/144/103 33/74/74
f 121/100/100 123/1/1 124/103/103
f 120/105/104 122/102/102 34/75/75
f 119/99/99 121/100/100 122/104/102
f 81/107/105 120/105/104 35/31/31
f 82/11/11 119/99/99 120/106/104
f 40/109/106 116/145/108 118/110/107
f 116/111/108 115/97/97 117/9/9
f 114/113/109 116/145/108 40/109/106
f 113/96/96 115/97/97 116/111/108
f 86/115/110 114/113/109 41/93/93
f 85/5/5 113/96/96 114/114/109
f 110/117/111 112/142/112 9/56/56
f 109/55/55 111/6/6 112/118/112
f 108/120/113 110/117/111 10/58/58
f 108/121/113 107/53/53 109/55/55
f 12/64/64 106/123/114 108/120/113
f 106/122/114 105/51/51 107/53/53
f 13/68/68 104/125/115 106/123/114
f 104/124/115 103/49/49 105/51/51
f 14/70/70 102/127/116 104/125/115
f 102/126/116 101/47/47 103/49/49
f 3/73/73 84/143/117 102/127/116
f 84/128/117 83/3/3 101/47/47
f 98/129/118 100/141/119 21/33/33
f 97/45/45 99/12/12 100/130/119
f 23/37/37 96/133/120 98/129/118
f 96/132/120 95/44/44 97/45/45
f 24/39/39 94/135/121 96/133/120
f 94/134/121 93/43/43 95/44/44
f 25/38/38 92/137/122 94/135/121
f 92/136/122 91/42/42 93/43/43
f 26/15/15 90/139/123 92/137/122
f 90/138/123 89/41/41 91/42/42
f 5/14/14 88/146/124 90/139/123
f 88/140/124 87/8/8 89/41/41
f 100/141/119 81/107/105 1/30/30
f 99/12/12 82/11/11 81/108/105
f 118/110/107 88/146/124 5/14/14
f 118/112/107 117/9/9 87/8/8
f 112/142/112 86/115/110 7/92/92
f 111/6/6 85/5/5 86/116/110
f 33/74/74 124/144/103 84/143/117
f 124/103/103 123/1/1 83/3/3
