# Blender 4.3.2
# www.blender.org
mtllib Pearl.mtl
o Sphere
v 0.065055 0.276675 -0.062254
v 0.108031 0.215899 -0.105230
v 0.123761 0.132876 -0.120960
v 0.108031 0.049853 -0.105230
v 0.065055 -0.010924 -0.062254
v 0.089372 0.276675 -0.003548
v 0.150149 0.215899 -0.003548
v 0.172395 0.132876 -0.003548
v 0.150149 0.049853 -0.003548
v 0.089372 -0.010924 -0.003548
v 0.065055 0.276675 0.055157
v 0.108031 0.215899 0.098133
v 0.123761 0.132876 0.113863
v 0.108031 0.049853 0.098133
v 0.065055 -0.010924 0.055157
v 0.006349 0.276675 0.079474
v 0.006349 0.215899 0.140251
v 0.006349 0.132876 0.162497
v 0.006349 0.049853 0.140251
v 0.006349 -0.010924 0.079474
v 0.006349 0.298921 -0.003548
v -0.052357 0.276675 0.055157
v -0.095332 0.215899 0.098133
v -0.111063 0.132876 0.113863
v -0.095332 0.049853 0.098133
v -0.052357 -0.010924 0.055157
v 0.006349 -0.033169 -0.003548
v -0.076674 0.276675 -0.003548
v -0.137450 0.215899 -0.003548
v -0.159696 0.132876 -0.003548
v -0.137450 0.049853 -0.003548
v -0.076674 -0.010924 -0.003548
v -0.052357 0.276675 -0.062254
v -0.095332 0.215899 -0.105230
v -0.111063 0.132876 -0.120960
v -0.095332 0.049853 -0.105230
v -0.052357 -0.010924 -0.062254
v 0.006349 0.276675 -0.086571
v 0.006349 0.215899 -0.147348
v 0.006349 0.132876 -0.169594
v 0.006349 0.049853 -0.147348
v 0.006349 -0.010924 -0.086571
vn 0.3855 0.8383 -0.3855
vn 0.6225 0.4744 -0.6225
vn 0.7071 -0.0000 -0.7071
vn 0.6225 -0.4744 -0.6225
vn 0.3855 -0.8383 -0.3855
vn 0.5452 0.8383 -0.0000
vn 0.8803 0.4744 -0.0000
vn 1.0000 -0.0000 -0.0000
vn 0.8803 -0.4744 -0.0000
vn 0.5452 -0.8383 -0.0000
vn 0.3855 0.8383 0.3855
vn 0.6225 0.4744 0.6225
vn 0.7071 -0.0000 0.7071
vn 0.6225 -0.4744 0.6225
vn 0.3855 -0.8383 0.3855
vn -0.0000 0.8383 0.5452
vn -0.0000 0.4744 0.8803
vn -0.0000 -0.0000 1.0000
vn -0.0000 -0.4744 0.8803
vn -0.0000 -0.8383 0.5452
vn -0.0000 1.0000 -0.0000
vn -0.3855 0.8383 0.3855
vn -0.6225 0.4744 0.6225
vn -0.7071 -0.0000 0.7071
vn -0.6225 -0.4744 0.6225
vn -0.3855 -0.8383 0.3855
vn -0.0000 -1.0000 -0.0000
vn -0.5452 0.8383 -0.0000
vn -0.8803 0.4744 -0.0000
vn -1.0000 -0.0000 -0.0000
vn -0.8803 -0.4744 -0.0000
vn -0.5452 -0.8383 -0.0000
vn -0.3855 0.8383 -0.3855
vn -0.6225 0.4744 -0.6225
vn -0.7071 -0.0000 -0.7071
vn -0.6225 -0.4744 -0.6225
vn -0.3855 -0.8383 -0.3855
vn -0.0000 0.8383 -0.5452
vn -0.0000 0.4744 -0.8803
vn -0.0000 -0.0000 -1.0000
vn -0.0000 -0.4744 -0.8803
vn -0.0000 -0.8383 -0.5452
vt 0.442901 0.559403
vt 0.401797 0.665548
vt 0.339857 0.603370
vt 0.348675 0.102636
vt 0.409803 0.001999
vt 0.519058 0.068799
vt 0.443293 0.160487
vt 0.640096 0.737501
vt 0.722864 0.764729
vt 0.722864 0.852494
vt 0.640096 0.889514
vt 0.339857 0.220785
vt 0.394485 0.254185
vt 0.815963 0.594537
vt 0.804182 0.476180
vt 0.911878 0.449707
vt 0.940319 0.563968
vt 0.830713 0.807118
vt 0.550513 0.268657
vt 0.456389 0.316637
vt 0.601480 0.003688
vt 0.708700 0.111858
vt 0.642866 0.193703
vt 0.784923 0.914792
vt 0.339857 0.515436
vt 0.747585 0.997417
vt 0.607528 0.363781
vt 0.489306 0.371557
vt 0.172393 0.424395
vt 0.061600 0.384526
vt 0.098847 0.280065
vt 0.215401 0.303775
vt 0.872687 0.915129
vt 0.401797 0.453258
vt 0.708700 0.303543
vt 0.899597 0.998001
vt 0.377094 0.375554
vt 0.528815 0.375554
vt 0.489393 0.453258
vt 0.114275 0.128544
vt 0.233216 0.128812
vt 0.934746 0.853308
vt 0.320432 0.302627
vt 0.335860 0.151105
vt 0.001999 0.237852
vt 0.010906 0.150371
vt 0.636098 0.483250
vt 0.551333 0.515436
vt 0.098847 0.018720
vt 0.215401 0.001999
vt 0.934746 0.765543
vt 0.320432 0.041281
vt 0.001999 0.086964
vt 0.001999 0.641795
vt 0.025708 0.525241
vt 0.177230 0.540669
vt 0.176961 0.659610
vt 0.872687 0.703246
vt 0.551333 0.603370
vt 0.003146 0.746826
vt 0.154668 0.762254
vt 0.067921 0.428393
vt 0.155403 0.437300
vt 0.636098 0.635556
vt 0.784923 0.702908
vt 0.489393 0.665548
vt 0.303775 0.641795
vt 0.264492 0.746826
vt 0.218809 0.428393
vt 0.287054 0.525241
vt 0.528815 0.743252
vt 0.651876 0.698911
vt 0.640096 0.594537
vt 0.804182 0.698911
vt 0.651876 0.476180
vt 0.684062 0.375554
vt 0.771996 0.375554
vt 0.377094 0.743252
s 1
usemtl Pearl
f 27/1/27 42/2/42 5/3/5
f 41/4/41 40/5/40 3/6/3 4/7/4
f 39/8/39 38/9/38 1/10/1 2/11/2
f 42/12/42 41/4/41 4/7/4 5/13/5
f 40/14/40 39/15/39 2/16/2 3/17/3
f 38/9/38 21/18/21 1/10/1
f 5/13/5 4/7/4 9/19/9 10/20/10
f 3/6/3 2/21/2 7/22/7 8/23/8
f 1/10/1 21/18/21 6/24/6
f 27/1/27 5/3/5 10/25/10
f 4/7/4 3/6/3 8/23/8 9/19/9
f 2/11/2 1/10/1 6/24/6 7/26/7
f 10/20/10 9/19/9 14/27/14 15/28/15
f 8/29/8 7/30/7 12/31/12 13/32/13
f 6/24/6 21/18/21 11/33/11
f 27/1/27 10/25/10 15/34/15
f 9/19/9 8/23/8 13/35/13 14/27/14
f 7/26/7 6/24/6 11/33/11 12/36/12
f 15/34/15 14/37/14 19/38/19 20/39/20
f 13/32/13 12/31/12 17/40/17 18/41/18
f 11/33/11 21/18/21 16/42/16
f 27/1/27 15/34/15 20/39/20
f 14/43/14 13/32/13 18/41/18 19/44/19
f 12/31/12 11/45/11 16/46/16 17/40/17
f 20/39/20 19/38/19 25/47/25 26/48/26
f 18/41/18 17/40/17 23/49/23 24/50/24
f 16/42/16 21/18/21 22/51/22
f 27/1/27 20/39/20 26/48/26
f 19/44/19 18/41/18 24/50/24 25/52/25
f 17/40/17 16/46/16 22/53/22 23/49/23
f 24/54/24 23/55/23 29/56/29 30/57/30
f 22/51/22 21/18/21 28/58/28
f 27/1/27 26/48/26 32/59/32
f 25/60/25 24/54/24 30/57/30 31/61/31
f 23/55/23 22/62/22 28/63/28 29/56/29
f 26/48/26 25/47/25 31/64/31 32/59/32
f 28/58/28 21/18/21 33/65/33
f 27/1/27 32/59/32 37/66/37
f 31/61/31 30/57/30 35/67/35 36/68/36
f 29/56/29 28/63/28 33/69/33 34/70/34
f 32/59/32 31/64/31 36/71/36 37/66/37
f 30/57/30 29/56/29 34/70/34 35/67/35
f 27/1/27 37/66/37 42/2/42
f 36/72/36 35/73/35 40/14/40 41/74/41
f 34/75/34 33/76/33 38/77/38 39/15/39
f 37/66/37 36/71/36 41/78/41 42/2/42
f 35/73/35 34/75/34 39/15/39 40/14/40
f 33/65/33 21/18/21 38/9/38
