# Blender 4.0.0
# www.blender.org
mtllib GraphicCardT2.mtl
o Cube
v -0.519431 -0.003759 0.276761
v -0.519431 0.055204 0.276761
v -0.519431 -0.003759 -0.276761
v -0.519431 0.055204 -0.276761
v 0.610359 -0.003759 0.276761
v 0.610359 0.055204 0.276761
v 0.610359 -0.003759 -0.276761
v 0.610359 0.055204 -0.276761
v -0.519431 -0.040342 0.292853
v -0.519431 0.091786 0.292853
v -0.519431 -0.040342 -0.321325
v -0.519431 0.091786 -0.321325
v -0.530691 -0.040342 -0.321325
v -0.530691 -0.040342 0.292853
v -0.530691 0.091786 0.292853
v -0.530691 0.091786 -0.321325
v -0.519431 0.003701 0.322087
v -0.519431 0.047744 0.322087
v -0.530691 0.003701 0.322087
v -0.530691 0.047744 0.322087
v -0.530691 -0.040342 -0.305917
v -0.530691 0.091786 -0.305917
v -0.624746 0.091786 -0.305917
v -0.624746 0.091786 -0.321325
v -0.624746 -0.040342 -0.321325
v -0.624746 -0.040342 -0.305917
v -0.429412 0.081527 0.079045
v -0.429412 0.052882 0.079045
v -0.429412 0.081527 0.217099
v -0.429412 0.052882 0.217099
v -0.523000 0.081527 0.079045
v -0.523000 0.052882 0.079045
v -0.523000 0.081527 0.217099
v -0.523000 0.052882 0.217099
v -0.429412 0.081527 -0.205987
v -0.429412 0.052882 -0.205987
v -0.429412 0.081527 -0.067933
v -0.429412 0.052882 -0.067933
v -0.523000 0.081527 -0.205987
v -0.523000 0.052882 -0.205987
v -0.523000 0.081527 -0.067933
v -0.523000 0.052882 -0.067933
v 0.224656 0.129240 -0.155028
v 0.224656 0.052882 -0.155028
v -0.192423 0.129240 -0.155028
v -0.192423 0.052882 -0.155028
v -0.192423 0.129240 0.145896
v -0.192423 0.052882 0.145896
v 0.224656 0.129240 0.049651
v 0.128411 0.129240 0.145896
v 0.211762 0.129240 0.097773
v 0.176534 0.129240 0.133001
v 0.128411 0.052882 0.145896
v 0.224656 0.052882 0.049651
v 0.176534 0.052882 0.133001
v 0.211762 0.052882 0.097773
v 0.367841 0.053954 -0.085342
v 0.367841 0.117378 -0.085342
v 0.367841 0.117378 -0.170535
v 0.367841 0.053954 -0.170535
v 0.348346 0.117378 -0.178610
v 0.348346 0.053954 -0.178610
v 0.340271 0.117378 -0.198105
v 0.340271 0.053954 -0.198105
v 0.348346 0.117378 -0.217600
v 0.348346 0.053954 -0.217600
v 0.367841 0.117378 -0.225676
v 0.367841 0.053954 -0.225676
v 0.387336 0.117378 -0.217600
v 0.387336 0.053954 -0.217600
v 0.395411 0.117378 -0.198105
v 0.395411 0.053954 -0.198105
v 0.387336 0.117378 -0.178610
v 0.387336 0.053954 -0.178610
v 0.348346 0.117378 -0.093417
v 0.348346 0.053954 -0.093417
v 0.340271 0.117378 -0.112912
v 0.340271 0.053954 -0.112912
v 0.348346 0.117378 -0.132408
v 0.348346 0.053954 -0.132408
v 0.367841 0.117378 -0.140483
v 0.367841 0.053954 -0.140483
v 0.387336 0.117378 -0.132408
v 0.387336 0.053954 -0.132408
v 0.395411 0.117378 -0.112912
v 0.395411 0.053954 -0.112912
v 0.387336 0.117378 -0.093417
v 0.387336 0.053954 -0.093417
v 0.367841 0.053954 -0.002627
v 0.367841 0.117378 -0.002627
v 0.348346 0.117378 -0.010702
v 0.348346 0.053954 -0.010702
v 0.340271 0.117378 -0.030197
v 0.340271 0.053954 -0.030197
v 0.348346 0.117378 -0.049692
v 0.348346 0.053954 -0.049692
v 0.367841 0.117378 -0.057767
v 0.367841 0.053954 -0.057767
v 0.387336 0.117378 -0.049692
v 0.387336 0.053954 -0.049692
v 0.395411 0.117378 -0.030197
v 0.395411 0.053954 -0.030197
v 0.387336 0.117378 -0.010702
v 0.387336 0.053954 -0.010702
v 0.396274 0.053954 0.078896
v 0.396274 0.117378 0.078896
v 0.376778 0.117378 0.070821
v 0.376778 0.053954 0.070821
v 0.368703 0.117378 0.051326
v 0.368703 0.053954 0.051326
v 0.376778 0.117378 0.031831
v 0.376778 0.053954 0.031831
v 0.396274 0.117378 0.023756
v 0.396274 0.053954 0.023756
v 0.415769 0.117378 0.031831
v 0.415769 0.053954 0.031831
v 0.423844 0.117378 0.051326
v 0.423844 0.053954 0.051326
v 0.415769 0.117378 0.070821
v 0.415769 0.053954 0.070821
v 0.539686 0.053383 0.006848
v 0.539686 0.099555 0.006848
v 0.525493 0.099555 0.000970
v 0.525493 0.053383 0.000970
v 0.519615 0.099555 -0.013223
v 0.519615 0.053383 -0.013223
v 0.525493 0.099555 -0.027415
v 0.525493 0.053383 -0.027415
v 0.539686 0.099555 -0.033294
v 0.539686 0.053383 -0.033294
v 0.553878 0.099555 -0.027415
v 0.553878 0.053383 -0.027415
v 0.559757 0.099555 -0.013223
v 0.559757 0.053383 -0.013223
v 0.553878 0.099555 0.000970
v 0.553878 0.053383 0.000970
v 0.539686 0.053383 0.074853
v 0.539686 0.099555 0.074853
v 0.525493 0.099555 0.068974
v 0.525493 0.053383 0.068974
v 0.519615 0.099555 0.054782
v 0.519615 0.053383 0.054782
v 0.525493 0.099555 0.040590
v 0.525493 0.053383 0.040590
v 0.539686 0.099555 0.034711
v 0.539686 0.053383 0.034711
v 0.553878 0.099555 0.040590
v 0.553878 0.053383 0.040590
v 0.559757 0.099555 0.054782
v 0.559757 0.053383 0.054782
v 0.553878 0.099555 0.068974
v 0.553878 0.053383 0.068974
v 0.454653 0.053383 0.145317
v 0.454653 0.099555 0.145317
v 0.440460 0.099555 0.139439
v 0.440460 0.053383 0.139439
v 0.434582 0.099555 0.125246
v 0.434582 0.053383 0.125246
v 0.440460 0.099555 0.111054
v 0.440460 0.053383 0.111054
v 0.454653 0.099555 0.105175
v 0.454653 0.053383 0.105175
v 0.468845 0.099555 0.111054
v 0.468845 0.053383 0.111054
v 0.474724 0.099555 0.125246
v 0.474724 0.053383 0.125246
v 0.468845 0.099555 0.139439
v 0.468845 0.053383 0.139439
v 0.439687 0.051517 -0.142809
v 0.439687 0.104523 -0.142809
v 0.439687 0.051517 -0.195816
v 0.439687 0.104523 -0.195816
v 0.492694 0.051517 -0.142809
v 0.492694 0.104523 -0.142809
v 0.492694 0.051517 -0.195816
v 0.492694 0.104523 -0.195816
v 0.439687 0.051517 -0.024601
v 0.439687 0.104523 -0.024601
v 0.439687 0.051517 -0.077607
v 0.439687 0.104523 -0.077607
v 0.492694 0.051517 -0.024601
v 0.492694 0.104523 -0.024601
v 0.492694 0.051517 -0.077607
v 0.492694 0.104523 -0.077607
v 0.524339 0.051517 -0.141968
v 0.524339 0.104523 -0.141968
v 0.524339 0.051517 -0.194975
v 0.524339 0.104523 -0.194975
v 0.577345 0.051517 -0.141968
v 0.577345 0.104523 -0.141968
v 0.577345 0.051517 -0.194975
v 0.577345 0.104523 -0.194975
vn -0.0000 -0.0000 -1.0000
vn 1.0000 -0.0000 -0.0000
vn -0.0000 -0.0000 1.0000
vn -0.0000 -1.0000 -0.0000
vn -0.0000 1.0000 -0.0000
vn -0.0000 0.5530 0.8332
vn -0.0000 -0.5530 0.8332
vn -1.0000 -0.0000 -0.0000
vn -0.0958 -0.6789 -0.7280
vn -0.5000 -0.0000 -0.8660
vn -0.1305 -0.0000 -0.9914
vn -0.3786 -0.6532 -0.6557
vn -0.8660 -0.0000 -0.5000
vn -0.6557 -0.6532 -0.3786
vn -0.9914 -0.0000 -0.1305
vn 0.5490 -0.6303 0.5490
vn 0.7764 -0.6303 -0.0000
vn -0.7071 -0.0000 -0.7071
vn -0.0000 -0.6303 -0.7764
vn -0.5490 -0.6303 -0.5490
vn 0.5490 -0.6303 -0.5490
vn -0.7764 -0.6303 -0.0000
vn 0.7071 -0.0000 -0.7071
vn -0.5490 -0.6303 0.5490
vn -0.0000 -0.6303 0.7764
vn -0.7071 -0.0000 0.7071
vn 0.7071 -0.0000 0.7071
vn -0.7280 -0.6789 -0.0958
vt 0.006619 0.297096
vt 0.648451 0.330593
vt 0.006619 0.330593
vt 0.648451 0.992999
vt 0.681948 0.678544
vt 0.681948 0.992999
vt 0.648451 0.678544
vt 0.006619 0.645047
vt 0.648451 0.645047
vt 0.006619 0.992999
vt 0.643455 0.138680
vt 0.294541 0.213742
vt 0.277934 0.163701
vt 0.338941 0.111429
vt 0.285508 0.036367
vt 0.338941 0.036367
vt 0.993097 0.152596
vt 0.989112 0.013299
vt 0.989112 0.009714
vt 0.649851 0.213742
vt 0.643455 0.213742
vt 0.993097 0.187438
vt 0.989112 0.175140
vt 0.993097 0.175140
vt 0.993097 0.330319
vt 0.989112 0.326735
vt 0.989112 0.187438
vt 0.993097 0.164894
vt 0.989112 0.152596
vt 0.989112 0.164894
vt 0.695709 0.061388
vt 0.679101 0.111429
vt 0.712037 0.213742
vt 0.703284 0.138680
vt 0.712037 0.138680
vt 0.649851 0.138680
vt 0.703284 0.213742
vt 0.955827 0.009714
vt 0.989112 0.330319
vt 0.955827 0.326735
vt 0.728465 0.528811
vt 0.712192 0.607240
vt 0.712192 0.528811
vt 0.728465 0.607240
vt 0.712192 0.660407
vt 0.728465 0.475644
vt 0.712192 0.475644
vt 0.659024 0.607240
vt 0.728465 0.475644
vt 0.659024 0.607240
vt 0.595038 0.283062
vt 0.412772 0.239683
vt 0.595038 0.239683
vt 0.241818 0.283062
vt 0.412772 0.283062
vt 0.004876 0.239683
vt 0.241818 0.239683
vt 0.796224 0.283062
vt 0.679946 0.239683
vt 0.796224 0.239683
vt 0.623340 0.283062
vt 0.623340 0.239683
vt 0.651643 0.283062
vt 0.651643 0.239683
vt 0.679946 0.283062
vt 0.231752 0.188090
vt 0.184401 0.215428
vt 0.002135 0.044474
vt 0.994656 0.585722
vt 0.916797 0.611626
vt 0.916797 0.585722
vt 0.916797 0.611626
vt 0.994656 0.585722
vt 0.994656 0.611626
vt 0.916797 0.585722
vt 0.994656 0.559818
vt 0.994656 0.741145
vt 0.916797 0.767049
vt 0.916797 0.741145
vt 0.916797 0.637530
vt 0.994656 0.637530
vt 0.994656 0.741145
vt 0.994656 0.767049
vt 0.994656 0.637530
vt 0.916797 0.663434
vt 0.916797 0.637530
vt 0.916797 0.663434
vt 0.994656 0.663434
vt 0.916797 0.741145
vt 0.994656 0.715241
vt 0.994656 0.663434
vt 0.916797 0.689337
vt 0.916797 0.689337
vt 0.994656 0.689337
vt 0.916797 0.715241
vt 0.994656 0.689337
vt 0.916797 0.715241
vt 0.994656 0.663433
vt 0.994656 0.715241
vt 0.916797 0.741145
vt 0.994656 0.741145
vt 0.916797 0.663433
vt 0.994656 0.611626
vt 0.841372 0.753740
vt 0.859689 0.709519
vt 0.903910 0.727836
vt 0.841373 0.753740
vt 0.903910 0.727836
vt 0.994656 0.559818
vt 0.916797 0.559818
vt 0.916797 0.767049
vt 0.916797 0.663433
vt 0.994656 0.663433
vt 0.885593 0.709519
vt 0.903910 0.753740
vt 0.859689 0.772057
vt 0.990822 0.396418
vt 0.934625 0.415115
vt 0.934625 0.396418
vt 0.990821 0.508600
vt 0.934625 0.527297
vt 0.934625 0.508600
vt 0.990822 0.433812
vt 0.934625 0.452509
vt 0.934625 0.433812
vt 0.990822 0.452509
vt 0.934625 0.471206
vt 0.990822 0.471206
vt 0.934625 0.489903
vt 0.990821 0.489903
vt 0.990822 0.415115
vt 0.990822 0.377721
vt 0.934625 0.377721
vt 0.856461 0.494836
vt 0.888379 0.481616
vt 0.901600 0.513533
vt 0.934624 0.508600
vt 0.990821 0.489903
vt 0.990821 0.508600
vt 0.934624 0.396418
vt 0.990821 0.377721
vt 0.990821 0.396418
vt 0.934624 0.471206
vt 0.990821 0.452509
vt 0.990821 0.471206
vt 0.934624 0.452509
vt 0.990821 0.433812
vt 0.934624 0.433812
vt 0.990821 0.415115
vt 0.934624 0.415115
vt 0.934624 0.489903
vt 0.934624 0.527297
vt 0.990821 0.527297
vt 0.869682 0.526754
vt 0.934624 0.508600
vt 0.990821 0.489904
vt 0.990821 0.508600
vt 0.934624 0.396419
vt 0.990821 0.377722
vt 0.990821 0.396419
vt 0.934624 0.471207
vt 0.990821 0.452510
vt 0.990821 0.471207
vt 0.934624 0.452510
vt 0.990821 0.433813
vt 0.934624 0.433813
vt 0.990821 0.415116
vt 0.934624 0.415116
vt 0.934624 0.489904
vt 0.934624 0.527297
vt 0.990821 0.527297
vt 0.869682 0.481616
vt 0.901600 0.494836
vt 0.888379 0.526754
vt 0.906408 0.934937
vt 0.988745 0.934937
vt 0.947576 0.976106
vt 0.947577 0.893769
vt 0.947577 0.811432
vt 0.988745 0.852601
vt 0.906408 0.852601
vt 0.824071 0.852601
vt 0.865240 0.811432
vt 0.865240 0.893769
vt 0.865240 0.976106
vt 0.824071 0.934937
vt 0.988745 0.934937
vt 0.947576 0.811433
vt 0.988745 0.852601
vt 0.906408 0.852601
vt 0.824071 0.852601
vt 0.906408 0.934937
vt 0.988745 0.934937
vt 0.947577 0.893769
vt 0.947576 0.811432
vt 0.988745 0.852601
vt 0.865240 0.811432
vt 0.865240 0.893769
vt 0.865240 0.976106
vt 0.648451 0.297096
vt 0.006619 0.678544
vt 0.294541 0.138680
vt 0.277934 0.188721
vt 0.285508 0.111429
vt 0.993097 0.009714
vt 0.679101 0.036367
vt 0.695709 0.086408
vt 0.955827 0.013299
vt 0.955827 0.330319
vt 0.728465 0.660407
vt 0.659024 0.528811
vt 0.659024 0.528811
vt 0.004876 0.283062
vt 0.239077 0.044474
vt 0.239077 0.160752
vt 0.211739 0.208103
vt 0.002135 0.215428
vt 0.916797 0.559818
vt 0.994656 0.767049
vt 0.885593 0.772057
vt 0.859689 0.772057
vt 0.841372 0.727836
vt 0.885593 0.709519
vt 0.903910 0.753740
vt 0.859690 0.772057
vt 0.841373 0.727836
vt 0.885593 0.709519
vt 0.841373 0.753740
vt 0.841373 0.727836
vt 0.859689 0.709519
vt 0.903910 0.727836
vt 0.885593 0.772057
vt 0.990821 0.527297
vt 0.869682 0.526754
vt 0.856461 0.513533
vt 0.869682 0.481616
vt 0.901600 0.494836
vt 0.934624 0.377721
vt 0.869682 0.481616
vt 0.934624 0.377722
vt 0.888379 0.481616
vt 0.901600 0.513533
s 0
usemtl GraphicCardT2
f 4/1/1 7/2/1 3/3/1
f 8/4/2 5/5/2 7/6/2
f 6/7/3 1/8/3 5/9/3
f 7/2/4 1/8/4 3/3/4
f 4/10/5 6/7/5 8/4/5
f 11/11/2 10/12/2 17/13/2
f 22/14/3 26/15/3 21/16/3
f 9/17/4 21/18/4 13/19/4
f 11/11/1 16/20/1 12/21/1
f 10/22/6 20/23/6 18/24/6
f 12/25/5 22/26/5 15/27/5
f 17/28/7 14/29/7 9/17/7
f 18/24/3 19/30/3 17/28/3
f 19/31/8 15/32/8 21/16/8
f 23/33/8 25/34/8 26/35/8
f 13/36/1 24/37/1 16/20/1
f 21/18/4 25/38/4 13/19/4
f 16/39/5 23/40/5 22/26/5
f 28/41/8 29/42/8 27/43/8
f 30/44/1 33/45/1 29/42/1
f 36/41/8 37/42/8 35/43/8
f 32/46/3 27/43/3 31/47/3
f 33/48/4 27/43/4 29/42/4
f 38/44/1 41/45/1 37/42/1
f 40/49/3 35/43/3 39/47/3
f 41/50/4 35/43/4 37/42/4
f 53/51/1 47/52/1 50/53/1
f 46/54/2 47/52/2 48/55/2
f 46/54/3 43/56/3 45/57/3
f 44/58/8 49/59/8 43/60/8
s 1
f 50/53/9 55/61/10 53/51/11
f 52/62/12 56/63/13 55/61/10
f 51/64/14 54/65/15 56/63/13
s 0
f 51/66/4 50/67/4 45/68/4
s 1
f 94/69/2 95/70/16 93/71/17
f 88/72/18 58/73/19 87/74/20
f 60/75/1 61/76/21 59/73/19
f 89/77/1 91/78/21 90/79/19
f 86/80/8 87/74/20 85/81/22
f 62/78/23 63/82/17 61/83/21
f 98/84/3 99/85/24 97/86/25
f 84/87/26 85/81/22 83/88/24
f 64/89/2 65/90/16 63/82/17
f 100/91/26 101/92/22 99/85/24
f 82/93/3 83/88/24 81/94/25
f 66/95/27 67/94/25 65/90/16
f 102/96/8 103/97/20 101/92/22
f 80/95/27 81/94/25 79/90/16
f 68/93/3 69/98/24 67/94/25
f 104/99/18 90/79/19 103/97/20
f 78/100/2 79/90/16 77/101/17
f 70/102/26 71/81/22 69/98/24
f 57/75/1 75/76/21 58/73/19
f 76/78/23 77/101/17 75/83/21
f 72/80/8 73/74/20 71/81/22
f 96/103/27 97/86/25 95/70/16
s 0
f 79/104/4 83/105/4 87/106/4
s 1
f 74/72/18 59/73/19 73/74/20
s 0
f 65/107/4 69/105/4 73/108/4
s 1
f 92/109/23 93/71/17 91/110/21
s 0
f 95/104/4 99/105/4 103/106/4
s 1
f 110/69/2 111/70/16 109/71/17
f 105/77/1 107/111/21 106/79/19
f 114/84/3 115/112/24 113/86/25
f 116/113/26 117/92/22 115/112/24
f 118/96/8 119/97/20 117/92/22
f 120/99/18 106/79/19 119/97/20
f 112/103/27 113/86/25 111/70/16
f 108/109/23 109/71/17 107/110/21
s 0
f 111/114/4 115/115/4 119/116/4
s 1
f 126/117/2 127/118/16 125/119/17
f 121/120/1 123/121/21 122/122/19
f 130/123/3 131/124/24 129/125/25
f 132/126/26 133/127/22 131/124/24
f 134/128/8 135/129/20 133/127/22
f 136/130/18 122/122/19 135/129/20
f 128/131/27 129/125/25 127/118/16
f 124/132/23 125/119/17 123/133/21
s 0
f 127/134/4 131/135/4 135/136/4
s 1
f 142/137/2 143/138/16 141/139/17
f 137/140/1 139/141/21 138/142/19
f 146/143/3 147/144/24 145/145/25
f 148/146/26 149/147/22 147/144/24
f 150/148/8 151/149/20 149/147/22
f 152/150/18 138/142/19 151/149/20
f 144/151/27 145/145/25 143/138/16
f 140/152/23 141/139/17 139/153/21
s 0
f 143/135/4 147/136/4 151/154/4
s 1
f 158/155/2 159/156/16 157/157/17
f 153/158/1 155/159/21 154/160/19
f 162/161/3 163/162/24 161/163/25
f 164/164/26 165/165/22 163/162/24
f 166/166/8 167/167/20 165/165/22
f 168/168/18 154/160/19 167/167/20
f 160/169/27 161/163/25 159/156/16
f 156/170/23 157/157/17 155/171/21
s 0
f 159/172/4 163/173/4 167/174/4
f 170/175/8 171/176/8 169/177/8
f 172/178/1 175/179/1 171/180/1
f 176/181/2 173/182/2 175/183/2
f 174/184/3 169/185/3 173/186/3
f 178/175/8 179/187/8 177/177/8
f 172/178/5 174/184/5 176/181/5
f 180/178/1 183/188/1 179/189/1
f 184/190/2 181/191/2 183/183/2
f 182/184/3 177/185/3 181/186/3
f 180/178/5 182/184/5 184/190/5
f 186/192/8 187/193/8 185/177/8
f 188/194/1 191/195/1 187/196/1
f 192/181/2 189/191/2 191/197/2
f 190/198/3 185/199/3 189/186/3
f 188/194/5 190/198/5 192/181/5
f 4/1/1 8/200/1 7/2/1
f 8/4/2 6/7/2 5/5/2
f 6/7/3 2/201/3 1/8/3
f 7/2/4 5/9/4 1/8/4
f 4/10/5 2/201/5 6/7/5
f 17/13/2 9/202/2 11/11/2
f 11/11/2 12/21/2 10/12/2
f 10/12/2 18/203/2 17/13/2
f 22/14/3 23/204/3 26/15/3
f 13/19/4 11/205/4 9/17/4
f 9/17/4 14/29/4 21/18/4
f 11/11/1 13/36/1 16/20/1
f 10/22/6 15/27/6 20/23/6
f 15/27/5 10/22/5 12/25/5
f 12/25/5 16/39/5 22/26/5
f 17/28/7 19/30/7 14/29/7
f 18/24/3 20/23/3 19/30/3
f 21/16/8 14/206/8 19/31/8
f 19/31/8 20/207/8 15/32/8
f 15/32/8 22/14/8 21/16/8
f 23/33/8 24/37/8 25/34/8
f 13/36/1 25/34/1 24/37/1
f 21/18/4 26/208/4 25/38/4
f 16/39/5 24/209/5 23/40/5
f 28/41/8 30/44/8 29/42/8
f 30/44/1 34/210/1 33/45/1
f 36/41/8 38/44/8 37/42/8
f 32/46/3 28/41/3 27/43/3
f 33/48/4 31/211/4 27/43/4
f 38/44/1 42/210/1 41/45/1
f 40/49/3 36/41/3 35/43/3
f 41/50/4 39/212/4 35/43/4
f 53/51/1 48/55/1 47/52/1
f 46/54/2 45/57/2 47/52/2
f 46/54/3 44/213/3 43/56/3
f 44/58/8 54/65/8 49/59/8
s 1
f 50/53/9 52/62/12 55/61/10
f 52/62/12 51/64/14 56/63/13
f 51/64/14 49/59/28 54/65/15
s 0
f 43/214/4 49/215/4 51/66/4
f 51/66/4 52/216/4 50/67/4
f 50/67/4 47/217/4 45/68/4
f 45/68/4 43/214/4 51/66/4
s 1
f 94/69/2 96/103/27 95/70/16
f 88/72/18 57/75/1 58/73/19
f 60/75/1 62/218/23 61/76/21
f 89/77/1 92/219/23 91/78/21
f 86/80/8 88/72/18 87/74/20
f 62/78/23 64/89/2 63/82/17
f 98/84/3 100/91/26 99/85/24
f 84/87/26 86/80/8 85/81/22
f 64/89/2 66/95/27 65/90/16
f 100/91/26 102/96/8 101/92/22
f 82/93/3 84/87/26 83/88/24
f 66/95/27 68/93/3 67/94/25
f 102/96/8 104/99/18 103/97/20
f 80/95/27 82/93/3 81/94/25
f 68/93/3 70/102/26 69/98/24
f 104/99/18 89/77/1 90/79/19
f 78/100/2 80/95/27 79/90/16
f 70/102/26 72/80/8 71/81/22
f 57/75/1 76/218/23 75/76/21
f 76/78/23 78/100/2 77/101/17
f 72/80/8 74/72/18 73/74/20
f 96/103/27 98/84/3 97/86/25
s 0
f 87/106/4 58/115/4 75/220/4
f 75/220/4 77/221/4 79/104/4
f 79/104/4 81/222/4 83/105/4
f 83/105/4 85/223/4 87/106/4
f 87/106/4 75/220/4 79/104/4
s 1
f 74/72/18 60/75/1 59/73/19
s 0
f 73/108/4 59/224/4 61/220/4
f 61/220/4 63/225/4 65/107/4
f 65/107/4 67/226/4 69/105/4
f 69/105/4 71/227/4 73/108/4
f 73/108/4 61/220/4 65/107/4
s 1
f 92/109/23 94/69/2 93/71/17
s 0
f 103/106/4 90/115/4 91/220/4
f 91/220/4 93/225/4 95/104/4
f 95/104/4 97/222/4 99/105/4
f 99/105/4 101/223/4 103/106/4
f 103/106/4 91/220/4 95/104/4
s 1
f 110/69/2 112/103/27 111/70/16
f 105/77/1 108/219/23 107/111/21
f 114/84/3 116/113/26 115/112/24
f 116/113/26 118/96/8 117/92/22
f 118/96/8 120/99/18 119/97/20
f 120/99/18 105/77/1 106/79/19
f 112/103/27 114/84/3 113/86/25
f 108/109/23 110/69/2 109/71/17
s 0
f 119/116/4 106/228/4 107/229/4
f 107/229/4 109/230/4 111/114/4
f 111/114/4 113/231/4 115/115/4
f 115/115/4 117/232/4 119/116/4
f 119/116/4 107/229/4 111/114/4
s 1
f 126/117/2 128/131/27 127/118/16
f 121/120/1 124/233/23 123/121/21
f 130/123/3 132/126/26 131/124/24
f 132/126/26 134/128/8 133/127/22
f 134/128/8 136/130/18 135/129/20
f 136/130/18 121/120/1 122/122/19
f 128/131/27 130/123/3 129/125/25
f 124/132/23 126/117/2 125/119/17
s 0
f 135/136/4 122/174/4 123/234/4
f 123/234/4 125/235/4 127/134/4
f 127/134/4 129/236/4 131/135/4
f 131/135/4 133/237/4 135/136/4
f 135/136/4 123/234/4 127/134/4
s 1
f 142/137/2 144/151/27 143/138/16
f 137/140/1 140/238/23 139/141/21
f 146/143/3 148/146/26 147/144/24
f 148/146/26 150/148/8 149/147/22
f 150/148/8 152/150/18 151/149/20
f 152/150/18 137/140/1 138/142/19
f 144/151/27 146/143/3 145/145/25
f 140/152/23 142/137/2 141/139/17
s 0
f 151/154/4 138/235/4 139/134/4
f 139/134/4 141/239/4 143/135/4
f 143/135/4 145/237/4 147/136/4
f 147/136/4 149/174/4 151/154/4
f 151/154/4 139/134/4 143/135/4
s 1
f 158/155/2 160/169/27 159/156/16
f 153/158/1 156/240/23 155/159/21
f 162/161/3 164/164/26 163/162/24
f 164/164/26 166/166/8 165/165/22
f 166/166/8 168/168/18 167/167/20
f 168/168/18 153/158/1 154/160/19
f 160/169/27 162/161/3 161/163/25
f 156/170/23 158/155/2 157/157/17
s 0
f 167/174/4 154/154/4 155/235/4
f 155/235/4 157/134/4 159/172/4
f 159/172/4 161/241/4 163/173/4
f 163/173/4 165/242/4 167/174/4
f 167/174/4 155/235/4 159/172/4
f 170/175/8 172/178/8 171/176/8
f 172/178/1 176/181/1 175/179/1
f 176/181/2 174/184/2 173/182/2
f 174/184/3 170/175/3 169/185/3
f 178/175/8 180/178/8 179/187/8
f 172/178/5 170/175/5 174/184/5
f 180/178/1 184/190/1 183/188/1
f 184/190/2 182/184/2 181/191/2
f 182/184/3 178/175/3 177/185/3
f 180/178/5 178/175/5 182/184/5
f 186/192/8 188/194/8 187/193/8
f 188/194/1 192/181/1 191/195/1
f 192/181/2 190/198/2 189/191/2
f 190/198/3 186/192/3 185/199/3
f 188/194/5 186/192/5 190/198/5
