# Blender 4.3.2
# www.blender.org
mtllib Coin.mtl
o Cylinder
v 0.125040 -0.023633 -0.107788
v 0.125040 0.023633 -0.107788
v 0.235017 -0.023633 -0.062234
v 0.235017 0.023633 -0.062234
v 0.280571 -0.023633 0.047743
v 0.280571 0.023633 0.047743
v 0.235017 -0.023633 0.157720
v 0.235017 0.023633 0.157720
v 0.125040 -0.023633 0.203274
v 0.125040 0.023633 0.203274
v 0.015062 -0.023633 0.157720
v 0.015062 0.023633 0.157720
v -0.030492 -0.023633 0.047743
v -0.030492 0.023633 0.047743
v 0.015062 -0.023633 -0.062234
v 0.015062 0.023633 -0.062234
v -0.268192 0.018347 -0.104263
v -0.288286 0.059068 -0.091145
v -0.163974 0.055676 -0.060498
v -0.184068 0.096397 -0.047381
v -0.109617 0.048464 0.045159
v -0.129711 0.089185 0.058276
v -0.136962 0.000935 0.150816
v -0.157056 0.041657 0.163934
v -0.229991 -0.059068 0.194581
v -0.250085 -0.018347 0.207698
v -0.334209 -0.096397 0.150816
v -0.354303 -0.055676 0.163934
v -0.388566 -0.089185 0.045159
v -0.408660 -0.048464 0.058276
v -0.361221 -0.041657 -0.060498
v -0.381315 -0.000935 -0.047381
v -0.132765 0.035019 0.153066
v -0.131634 0.076767 0.175199
v -0.079387 0.083726 0.058469
v -0.078257 0.125474 0.080602
v 0.033565 0.098893 0.024092
v 0.034695 0.140641 0.046225
v 0.139928 0.071637 0.070073
v 0.141058 0.113385 0.092207
v 0.177394 0.017922 0.169478
v 0.178524 0.059671 0.191611
v 0.124017 -0.030784 0.264075
v 0.125147 0.010964 0.286208
v 0.011064 -0.045952 0.298452
v 0.012194 -0.004203 0.320585
v -0.095298 -0.018695 0.252471
v -0.094168 0.023053 0.274604
v -0.274283 -0.023633 -0.202958
v -0.274283 0.023633 -0.202958
v -0.175412 -0.023633 -0.269251
v -0.175412 0.023633 -0.269251
v -0.058624 -0.023633 -0.246215
v -0.058624 0.023633 -0.246215
v 0.007669 -0.023633 -0.147345
v 0.007669 0.023633 -0.147345
v -0.015367 -0.023633 -0.030557
v -0.015367 0.023633 -0.030557
v -0.114237 -0.023633 0.035736
v -0.114237 0.023633 0.035736
v -0.231026 -0.023633 0.012700
v -0.231026 0.023633 0.012700
v -0.297319 -0.023633 -0.086170
v -0.297319 0.023633 -0.086170
v 0.067564 0.103143 -0.106022
v 0.091978 0.143615 -0.106022
v 0.135621 0.062088 -0.194638
v 0.160036 0.102560 -0.194638
v 0.237399 0.000690 -0.201097
v 0.261814 0.041163 -0.201097
v 0.313278 -0.045083 -0.121615
v 0.337693 -0.004611 -0.121615
v 0.318809 -0.048419 -0.002752
v 0.343223 -0.007947 -0.002752
v 0.250751 -0.007364 0.085864
v 0.275166 0.033108 0.085864
v 0.148973 0.054033 0.092323
v 0.173388 0.094505 0.092323
v 0.073094 0.099806 0.012841
v 0.097509 0.140279 0.012841
v 0.058182 0.031896 -0.045610
v 0.060790 0.078410 -0.053590
v -0.059973 0.036146 -0.059442
v -0.057366 0.082661 -0.067422
v -0.134404 0.024506 -0.151609
v -0.131797 0.071021 -0.159589
v -0.121509 0.003794 -0.268120
v -0.118902 0.050308 -0.276100
v -0.028843 -0.013858 -0.340725
v -0.026236 0.032657 -0.348706
v 0.089313 -0.018108 -0.326893
v 0.091920 0.028406 -0.334873
v 0.163743 -0.006468 -0.234726
v 0.166351 0.040047 -0.242707
v 0.150849 0.014245 -0.118215
v 0.153456 0.060759 -0.126195
vn 0.3827 -0.0000 -0.9239
vn 0.9239 -0.0000 -0.3827
vn 0.9239 -0.0000 0.3827
vn 0.3827 -0.0000 0.9239
vn -0.3827 -0.0000 0.9239
vn -0.9239 -0.0000 0.3827
vn -0.0000 1.0000 -0.0000
vn -0.9239 -0.0000 -0.3827
vn -0.3827 -0.0000 -0.9239
vn -0.0000 -1.0000 -0.0000
vn 0.2297 0.3993 -0.8876
vn 0.7815 0.5041 -0.3677
vn 0.8755 0.3136 0.3677
vn 0.4566 -0.0606 0.8876
vn -0.2297 -0.3993 0.8876
vn -0.7815 -0.5041 0.3677
vn -0.4251 0.8615 0.2775
vn -0.8755 -0.3136 -0.3677
vn -0.4566 0.0606 -0.8876
vn 0.4251 -0.8615 -0.2775
vn -0.8935 0.2290 -0.3863
vn -0.3147 0.4512 -0.8351
vn 0.4484 0.4092 -0.7947
vn 0.9489 0.1274 -0.2888
vn 0.8935 -0.2290 0.3863
vn 0.3147 -0.4512 0.8351
vn 0.0239 0.8833 0.4683
vn -0.4484 -0.4092 0.7947
vn -0.9489 -0.1274 0.2888
vn -0.0239 -0.8833 -0.4683
vn -0.5569 -0.0000 -0.8306
vn 0.1935 -0.0000 -0.9811
vn 0.8306 -0.0000 -0.5569
vn 0.9811 -0.0000 0.1935
vn 0.5569 -0.0000 0.8306
vn -0.1935 -0.0000 0.9811
vn -0.8306 -0.0000 0.5569
vn -0.9811 -0.0000 -0.1935
vn -0.6374 0.3845 -0.6677
vn -0.0465 0.0280 -0.9985
vn 0.5717 -0.3449 -0.7444
vn 0.8550 -0.5158 -0.0543
vn 0.6374 -0.3845 0.6677
vn 0.0465 -0.0280 0.9985
vn 0.5165 0.8563 -0.0000
vn -0.5717 0.3449 0.7444
vn -0.8550 0.5158 0.0543
vn -0.5165 -0.8563 -0.0000
vn -0.1083 0.1740 0.9788
vn -0.7785 0.1483 0.6099
vn -0.9926 0.0357 -0.1162
vn -0.6253 -0.0978 -0.7743
vn 0.1083 -0.1740 -0.9788
vn 0.7785 -0.1483 -0.6099
vn 0.0552 0.9841 -0.1688
vn 0.9926 -0.0357 0.1162
vn 0.6253 0.0978 0.7743
vn -0.0552 -0.9841 0.1688
vt 0.147756 0.222864
vt 0.296774 0.174269
vt 0.184813 0.267069
vt 0.147756 0.222864
vt 0.184813 0.267069
vt 0.042328 0.509013
vt 0.502062 0.049279
vt 0.961796 0.509013
vt 0.259717 0.130064
vt 0.827143 0.183931
vt 0.176981 0.183931
vt 0.176981 0.834093
vt 0.827143 0.834093
vt 0.502062 0.968746
vt 0.176981 0.834093
vt 0.176981 0.183931
vt 0.827143 0.183931
vt 0.502062 0.968746
vt 0.827143 0.834093
vt 0.961796 0.509013
vt 0.502062 0.049279
vt 0.042328 0.509013
s 0
usemtl Material
f 2/1/1 3/2/1 1/3/1
f 4/4/2 5/2/2 3/5/2
f 6/1/3 7/2/3 5/3/3
f 8/4/4 9/2/4 7/5/4
f 10/1/5 11/2/5 9/3/5
f 12/1/6 13/2/6 11/3/6
f 14/6/7 10/7/7 6/8/7
f 14/2/8 15/4/8 13/9/8
f 16/2/9 1/1/9 15/9/9
f 7/10/10 11/11/10 15/12/10
f 17/3/11 20/9/11 19/2/11
f 20/4/12 21/2/12 19/5/12
f 22/1/13 23/2/13 21/3/13
f 23/5/14 26/9/14 25/2/14
f 26/1/15 27/2/15 25/3/15
f 28/1/16 29/2/16 27/3/16
f 30/6/17 26/7/17 22/8/17
f 30/2/18 31/4/18 29/9/18
f 32/2/19 17/1/19 31/9/19
f 23/10/20 27/11/20 31/12/20
f 34/1/21 35/2/21 33/3/21
f 36/4/22 37/2/22 35/5/22
f 37/3/23 40/9/23 39/2/23
f 39/5/24 42/9/24 41/2/24
f 42/1/25 43/2/25 41/3/25
f 44/1/26 45/2/26 43/3/26
f 46/6/27 42/7/27 38/8/27
f 46/2/28 47/4/28 45/9/28
f 48/2/29 33/1/29 47/9/29
f 39/10/30 43/11/30 47/12/30
f 50/1/31 51/2/31 49/3/31
f 52/4/32 53/2/32 51/5/32
f 54/1/33 55/2/33 53/3/33
f 56/4/34 57/2/34 55/5/34
f 58/1/35 59/2/35 57/3/35
f 60/1/36 61/2/36 59/3/36
f 62/6/7 58/7/7 54/8/7
f 62/2/37 63/4/37 61/9/37
f 64/2/38 49/1/38 63/9/38
f 55/10/10 59/11/10 63/12/10
f 66/1/39 67/2/39 65/3/39
f 68/4/40 69/2/40 67/5/40
f 69/3/41 72/9/41 71/2/41
f 72/4/42 73/2/42 71/5/42
f 74/1/43 75/2/43 73/3/43
f 76/1/44 77/2/44 75/3/44
f 78/6/45 74/7/45 70/8/45
f 78/2/46 79/4/46 77/9/46
f 80/2/47 65/1/47 79/9/47
f 71/10/48 75/11/48 79/12/48
f 82/1/49 83/2/49 81/3/49
f 84/4/50 85/2/50 83/5/50
f 86/1/51 87/2/51 85/3/51
f 87/5/52 90/9/52 89/2/52
f 89/3/53 92/9/53 91/2/53
f 92/1/54 93/2/54 91/3/54
f 94/6/55 90/7/55 86/8/55
f 94/2/56 95/4/56 93/9/56
f 96/2/57 81/1/57 95/9/57
f 87/10/58 91/11/58 95/12/58
f 2/1/1 4/9/1 3/2/1
f 4/4/2 6/9/2 5/2/2
f 6/1/3 8/9/3 7/2/3
f 8/4/4 10/9/4 9/2/4
f 10/1/5 12/9/5 11/2/5
f 12/1/6 14/9/6 13/2/6
f 6/8/7 4/13/7 2/14/7
f 2/14/7 16/15/7 14/6/7
f 14/6/7 12/16/7 10/7/7
f 10/7/7 8/17/7 6/8/7
f 6/8/7 2/14/7 14/6/7
f 14/2/8 16/3/8 15/4/8
f 16/2/9 2/5/9 1/1/9
f 15/12/10 1/18/10 3/19/10
f 3/19/10 5/20/10 7/10/10
f 7/10/10 9/21/10 11/11/10
f 11/11/10 13/22/10 15/12/10
f 15/12/10 3/19/10 7/10/10
f 17/3/11 18/1/11 20/9/11
f 20/4/12 22/9/12 21/2/12
f 22/1/13 24/9/13 23/2/13
f 23/5/14 24/4/14 26/9/14
f 26/1/15 28/9/15 27/2/15
f 28/1/16 30/9/16 29/2/16
f 22/8/17 20/13/17 18/14/17
f 18/14/17 32/15/17 30/6/17
f 30/6/17 28/16/17 26/7/17
f 26/7/17 24/17/17 22/8/17
f 22/8/17 18/14/17 30/6/17
f 30/2/18 32/3/18 31/4/18
f 32/2/19 18/5/19 17/1/19
f 31/12/20 17/18/20 19/19/20
f 19/19/20 21/20/20 23/10/20
f 23/10/20 25/21/20 27/11/20
f 27/11/20 29/22/20 31/12/20
f 31/12/20 19/19/20 23/10/20
f 34/1/21 36/9/21 35/2/21
f 36/4/22 38/9/22 37/2/22
f 37/3/23 38/1/23 40/9/23
f 39/5/24 40/4/24 42/9/24
f 42/1/25 44/9/25 43/2/25
f 44/1/26 46/9/26 45/2/26
f 38/8/27 36/13/27 34/14/27
f 34/14/27 48/15/27 46/6/27
f 46/6/27 44/16/27 42/7/27
f 42/7/27 40/17/27 38/8/27
f 38/8/27 34/14/27 46/6/27
f 46/2/28 48/3/28 47/4/28
f 48/2/29 34/5/29 33/1/29
f 47/12/30 33/18/30 35/19/30
f 35/19/30 37/20/30 39/10/30
f 39/10/30 41/21/30 43/11/30
f 43/11/30 45/22/30 47/12/30
f 47/12/30 35/19/30 39/10/30
f 50/1/31 52/9/31 51/2/31
f 52/4/32 54/9/32 53/2/32
f 54/1/33 56/9/33 55/2/33
f 56/4/34 58/9/34 57/2/34
f 58/1/35 60/9/35 59/2/35
f 60/1/36 62/9/36 61/2/36
f 54/8/7 52/13/7 50/14/7
f 50/14/7 64/15/7 62/6/7
f 62/6/7 60/16/7 58/7/7
f 58/7/7 56/17/7 54/8/7
f 54/8/7 50/14/7 62/6/7
f 62/2/37 64/3/37 63/4/37
f 64/2/38 50/5/38 49/1/38
f 63/12/10 49/18/10 51/19/10
f 51/19/10 53/20/10 55/10/10
f 55/10/10 57/21/10 59/11/10
f 59/11/10 61/22/10 63/12/10
f 63/12/10 51/19/10 55/10/10
f 66/1/39 68/9/39 67/2/39
f 68/4/40 70/9/40 69/2/40
f 69/3/41 70/1/41 72/9/41
f 72/4/42 74/9/42 73/2/42
f 74/1/43 76/9/43 75/2/43
f 76/1/44 78/9/44 77/2/44
f 70/8/45 68/13/45 66/14/45
f 66/14/45 80/15/45 78/6/45
f 78/6/45 76/16/45 74/7/45
f 74/7/45 72/17/45 70/8/45
f 70/8/45 66/14/45 78/6/45
f 78/2/46 80/3/46 79/4/46
f 80/2/47 66/5/47 65/1/47
f 79/12/48 65/18/48 67/19/48
f 67/19/48 69/20/48 71/10/48
f 71/10/48 73/21/48 75/11/48
f 75/11/48 77/22/48 79/12/48
f 79/12/48 67/19/48 71/10/48
f 82/1/49 84/9/49 83/2/49
f 84/4/50 86/9/50 85/2/50
f 86/1/51 88/9/51 87/2/51
f 87/5/52 88/4/52 90/9/52
f 89/3/53 90/1/53 92/9/53
f 92/1/54 94/9/54 93/2/54
f 86/8/55 84/13/55 82/14/55
f 82/14/55 96/15/55 94/6/55
f 94/6/55 92/16/55 90/7/55
f 90/7/55 88/17/55 86/8/55
f 86/8/55 82/14/55 94/6/55
f 94/2/56 96/3/56 95/4/56
f 96/2/57 82/5/57 81/1/57
f 95/12/58 81/18/58 83/19/58
f 83/19/58 85/20/58 87/10/58
f 87/10/58 89/21/58 91/11/58
f 91/11/58 93/22/58 95/12/58
f 95/12/58 83/19/58 87/10/58
