# Blender 4.3.2
# www.blender.org
mtllib Pearl.mtl
o Sphere
v 0.028285 0.120294 -0.027067
v 0.046970 0.093869 -0.045752
v 0.053809 0.057772 -0.052591
v 0.046970 0.021675 -0.045752
v 0.028285 -0.004749 -0.027067
v 0.038857 0.120294 -0.001543
v 0.065282 0.093869 -0.001543
v 0.074954 0.057772 -0.001543
v 0.065282 0.021675 -0.001543
v 0.038857 -0.004749 -0.001543
v 0.028285 0.120294 0.023982
v 0.046970 0.093869 0.042667
v 0.053809 0.057772 0.049506
v 0.046970 0.021675 0.042667
v 0.028285 -0.004749 0.023982
v 0.002761 0.120294 0.034554
v 0.002761 0.093869 0.060979
v 0.002761 0.057772 0.070651
v 0.002761 0.021675 0.060979
v 0.002761 -0.004749 0.034554
v 0.002761 0.129966 -0.001543
v -0.022764 0.120294 0.023982
v -0.041449 0.093869 0.042667
v -0.048288 0.057772 0.049506
v -0.041449 0.021675 0.042667
v -0.022764 -0.004749 0.023982
v 0.002761 -0.014421 -0.001543
v -0.033336 0.120294 -0.001543
v -0.059761 0.093869 -0.001543
v -0.069433 0.057772 -0.001543
v -0.059761 0.021675 -0.001543
v -0.033336 -0.004749 -0.001543
v -0.022764 0.120294 -0.027067
v -0.041449 0.093869 -0.045752
v -0.048288 0.057772 -0.052591
v -0.041449 0.021675 -0.045752
v -0.022764 -0.004749 -0.027067
v 0.002761 0.120294 -0.037640
v 0.002761 0.093869 -0.064064
v 0.002761 0.057772 -0.073736
v 0.002761 0.021675 -0.064064
v 0.002761 -0.004749 -0.037640
vn 0.3855 0.8383 -0.3855
vn 0.6225 0.4744 -0.6225
vn 0.7071 -0.0000 -0.7071
vn 0.6225 -0.4744 -0.6225
vn 0.3855 -0.8383 -0.3855
vn 0.5452 0.8383 -0.0000
vn 0.8803 0.4744 -0.0000
vn 1.0000 -0.0000 -0.0000
vn 0.8803 -0.4744 -0.0000
vn 0.5452 -0.8383 -0.0000
vn 0.3855 0.8383 0.3855
vn 0.6225 0.4744 0.6225
vn 0.7071 -0.0000 0.7071
vn 0.6225 -0.4744 0.6225
vn 0.3855 -0.8383 0.3855
vn -0.0000 0.8383 0.5452
vn -0.0000 0.4744 0.8803
vn -0.0000 -0.0000 1.0000
vn -0.0000 -0.4744 0.8803
vn -0.0000 -0.8383 0.5452
vn -0.0000 1.0000 -0.0000
vn -0.3855 0.8383 0.3855
vn -0.6225 0.4744 0.6225
vn -0.7071 -0.0000 0.7071
vn -0.6225 -0.4744 0.6225
vn -0.3855 -0.8383 0.3855
vn -0.0000 -1.0000 -0.0000
vn -0.5452 0.8383 -0.0000
vn -0.8803 0.4744 -0.0000
vn -1.0000 -0.0000 -0.0000
vn -0.8803 -0.4744 -0.0000
vn -0.5452 -0.8383 -0.0000
vn -0.3855 0.8383 -0.3855
vn -0.6225 0.4744 -0.6225
vn -0.7071 -0.0000 -0.7071
vn -0.6225 -0.4744 -0.6225
vn -0.3855 -0.8383 -0.3855
vn -0.0000 0.8383 -0.5452
vn -0.0000 0.4744 -0.8803
vn -0.0000 -0.0000 -1.0000
vn -0.0000 -0.4744 -0.8803
vn -0.0000 -0.8383 -0.5452
vt 0.442901 0.559403
vt 0.401797 0.665548
vt 0.339857 0.603370
vt 0.409803 0.001999
vt 0.443293 0.160487
vt 0.348675 0.102636
vt 0.640096 0.737501
vt 0.722864 0.852494
vt 0.640096 0.889514
vt 0.394485 0.254185
vt 0.339857 0.220785
vt 0.815963 0.594537
vt 0.911878 0.449707
vt 0.940319 0.563968
vt 0.722864 0.764729
vt 0.830713 0.807118
vt 0.456389 0.316637
vt 0.601480 0.003688
vt 0.642866 0.193703
vt 0.519058 0.068799
vt 0.784923 0.914792
vt 0.339857 0.515436
vt 0.550513 0.268657
vt 0.747585 0.997417
vt 0.489306 0.371557
vt 0.061600 0.384526
vt 0.215401 0.303775
vt 0.172393 0.424395
vt 0.872687 0.915129
vt 0.401797 0.453258
vt 0.607528 0.363781
vt 0.899597 0.998001
vt 0.528815 0.375554
vt 0.489393 0.453258
vt 0.098847 0.280065
vt 0.233216 0.128812
vt 0.934746 0.853308
vt 0.320432 0.302627
vt 0.335860 0.151105
vt 0.001999 0.237852
vt 0.114275 0.128544
vt 0.551333 0.515436
vt 0.215401 0.001999
vt 0.934746 0.765543
vt 0.320432 0.041281
vt 0.010906 0.150371
vt 0.098847 0.018720
vt 0.025708 0.525241
vt 0.176961 0.659610
vt 0.001999 0.641795
vt 0.872687 0.703246
vt 0.551333 0.603370
vt 0.154668 0.762254
vt 0.003146 0.746826
vt 0.067921 0.428393
vt 0.177230 0.540669
vt 0.636098 0.635556
vt 0.784923 0.702908
vt 0.489393 0.665548
vt 0.264492 0.746826
vt 0.218809 0.428393
vt 0.287054 0.525241
vt 0.303775 0.641795
vt 0.651876 0.698911
vt 0.804182 0.698911
vt 0.651876 0.476180
vt 0.771996 0.375554
vt 0.804182 0.476180
vt 0.528815 0.743252
vt 0.640096 0.594537
vt 0.708700 0.111858
vt 0.708700 0.303543
vt 0.377094 0.375554
vt 0.636098 0.483250
vt 0.001999 0.086964
vt 0.155403 0.437300
vt 0.684062 0.375554
vt 0.377094 0.743252
s 1
usemtl Pearl
f 27/1/27 42/2/42 5/3/5
f 40/4/40 4/5/4 41/6/41
f 39/7/39 1/8/1 2/9/2
f 41/6/41 5/10/5 42/11/42
f 40/12/40 2/13/2 3/14/3
f 38/15/38 21/16/21 1/8/1
f 4/5/4 10/17/10 5/10/5
f 2/18/2 8/19/8 3/20/3
f 1/8/1 21/16/21 6/21/6
f 27/1/27 5/3/5 10/22/10
f 4/5/4 8/19/8 9/23/9
f 2/9/2 6/21/6 7/24/7
f 9/23/9 15/25/15 10/17/10
f 7/26/7 13/27/13 8/28/8
f 6/21/6 21/16/21 11/29/11
f 27/1/27 10/22/10 15/30/15
f 8/19/8 14/31/14 9/23/9
f 7/24/7 11/29/11 12/32/12
f 15/30/15 19/33/19 20/34/20
f 12/35/12 18/36/18 13/27/13
f 11/29/11 21/16/21 16/37/16
f 27/1/27 15/30/15 20/34/20
f 14/38/14 18/36/18 19/39/19
f 11/40/11 17/41/17 12/35/12
f 19/33/19 26/42/26 20/34/20
f 17/41/17 24/43/24 18/36/18
f 16/37/16 21/16/21 22/44/22
f 27/1/27 20/34/20 26/42/26
f 18/36/18 25/45/25 19/39/19
f 16/46/16 23/47/23 17/41/17
f 23/48/23 30/49/30 24/50/24
f 22/44/22 21/16/21 28/51/28
f 27/1/27 26/42/26 32/52/32
f 24/50/24 31/53/31 25/54/25
f 22/55/22 29/56/29 23/48/23
f 26/42/26 31/57/31 32/52/32
f 28/51/28 21/16/21 33/58/33
f 27/1/27 32/52/32 37/59/37
f 30/49/30 36/60/36 31/53/31
f 29/56/29 33/61/33 34/62/34
f 31/57/31 37/59/37 32/52/32
f 29/56/29 35/63/35 30/49/30
f 27/1/27 37/59/37 42/2/42
f 36/64/36 40/12/40 41/65/41
f 34/66/34 38/67/38 39/68/39
f 36/69/36 42/2/42 37/59/37
f 34/66/34 40/12/40 35/70/35
f 33/58/33 21/16/21 38/15/38
f 40/4/40 3/20/3 4/5/4
f 39/7/39 38/15/38 1/8/1
f 41/6/41 4/5/4 5/10/5
f 40/12/40 39/68/39 2/13/2
f 4/5/4 9/23/9 10/17/10
f 2/18/2 7/71/7 8/19/8
f 4/5/4 3/20/3 8/19/8
f 2/9/2 1/8/1 6/21/6
f 9/23/9 14/31/14 15/25/15
f 7/26/7 12/35/12 13/27/13
f 8/19/8 13/72/13 14/31/14
f 7/24/7 6/21/6 11/29/11
f 15/30/15 14/73/14 19/33/19
f 12/35/12 17/41/17 18/36/18
f 14/38/14 13/27/13 18/36/18
f 11/40/11 16/46/16 17/41/17
f 19/33/19 25/74/25 26/42/26
f 17/41/17 23/47/23 24/43/24
f 18/36/18 24/43/24 25/45/25
f 16/46/16 22/75/22 23/47/23
f 23/48/23 29/56/29 30/49/30
f 24/50/24 30/49/30 31/53/31
f 22/55/22 28/76/28 29/56/29
f 26/42/26 25/74/25 31/57/31
f 30/49/30 35/63/35 36/60/36
f 29/56/29 28/76/28 33/61/33
f 31/57/31 36/69/36 37/59/37
f 29/56/29 34/62/34 35/63/35
f 36/64/36 35/70/35 40/12/40
f 34/66/34 33/77/33 38/67/38
f 36/69/36 41/78/41 42/2/42
f 34/66/34 39/68/39 40/12/40
