# Blender 3.6.9
# www.blender.org
mtllib 60mmRocket.mtl
o Cylinder
v -1.356919 0.158822 0.000000
v 0.710021 0.224233 -0.000000
v -1.356919 0.137544 -0.079411
v 0.710021 0.194191 -0.112116
v -1.356919 0.079411 -0.137544
v 0.710021 0.112116 -0.194191
v -1.356919 -0.000000 -0.158822
v 0.710021 -0.000000 -0.224233
v -1.356919 -0.079411 -0.137544
v 0.710021 -0.112116 -0.194191
v -1.356919 -0.137544 -0.079411
v 0.710021 -0.194191 -0.112116
v -1.356919 -0.158822 0.000000
v 0.710021 -0.224233 -0.000000
v -1.356919 -0.137544 0.079411
v 0.710021 -0.194191 0.112116
v -1.356919 -0.079411 0.137544
v 0.710021 -0.112116 0.194191
v -1.356919 -0.000000 0.158823
v 0.710021 -0.000000 0.224233
v -1.356919 0.079411 0.137544
v 0.710021 0.112116 0.194191
v -1.356919 0.137544 0.079411
v 0.710021 0.194191 0.112116
v 1.391811 -0.000000 -0.000000
v 0.937284 -0.095363 0.165173
v 1.164548 -0.066033 0.114373
v 1.164548 -0.000000 0.132067
v 0.937284 -0.000000 0.190725
v 0.937284 -0.165173 0.095362
v 1.164548 -0.114373 0.066033
v 0.937284 -0.190725 -0.000000
v 1.164548 -0.132067 -0.000000
v 0.937284 -0.165173 -0.095363
v 1.164548 -0.114373 -0.066033
v 0.937284 -0.095363 -0.165173
v 1.164548 -0.066033 -0.114373
v 0.937284 -0.000000 -0.190725
v 1.164548 -0.000000 -0.132067
v 0.937284 0.165173 0.095362
v 1.164548 0.114373 0.066033
v 1.164548 0.132067 -0.000000
v 0.937284 0.190725 -0.000000
v 1.164548 0.114373 -0.066033
v 0.937284 0.165173 -0.095363
v 0.937284 0.095362 -0.165173
v 1.164548 0.066033 -0.114373
v 0.937284 0.095362 0.165173
v 1.164548 0.066033 0.114373
v -1.356919 0.224233 0.000000
v -1.356919 0.194191 -0.112116
v -1.356919 0.112116 -0.194191
v -1.356919 -0.000000 -0.224233
v -1.356919 -0.112116 -0.194191
v -1.356919 -0.194191 -0.112116
v -1.356919 -0.224233 0.000000
v -1.356919 -0.194191 0.112116
v -1.356919 -0.112116 0.194191
v -1.356919 -0.000000 0.224233
v -1.356919 0.112116 0.194191
v -1.356919 0.194191 0.112116
v -1.495110 0.158822 0.000000
v -1.495110 0.137544 -0.079411
v -1.495110 0.079411 -0.137544
v -1.495110 0.000000 -0.158822
v -1.495110 -0.079411 -0.137544
v -1.495110 -0.137544 -0.079411
v -1.495110 -0.158822 0.000000
v -1.495110 -0.137544 0.079411
v -1.495110 -0.079411 0.137544
v -1.495110 0.000000 0.158823
v -1.495110 0.079411 0.137544
v -1.495110 0.137544 0.079411
vn -0.6532 0.7572 -0.0000
vn 0.0723 0.9974 -0.0000
vn 0.0723 0.8638 -0.4987
vn -0.6532 0.6557 -0.3786
vn 0.0723 0.4987 -0.8638
vn -0.6532 0.3786 -0.6557
vn 0.0723 -0.0000 -0.9974
vn -0.6532 -0.0000 -0.7572
vn 0.0723 -0.4987 -0.8638
vn -0.6532 -0.3786 -0.6557
vn 0.0723 -0.8638 -0.4987
vn -0.6532 -0.6557 -0.3786
vn 0.0723 -0.9974 -0.0000
vn -0.6532 -0.7572 -0.0000
vn 0.0723 -0.8638 0.4987
vn -0.6532 -0.6557 0.3786
vn 0.0723 -0.4987 0.8638
vn -0.6532 -0.3786 0.6557
vn 0.0723 -0.0000 0.9974
vn -0.6532 -0.0000 0.7572
vn 0.0723 0.4987 0.8638
vn -0.6532 0.3786 0.6557
vn 0.3720 -0.0000 0.9282
vn 0.3720 -0.4641 0.8039
vn 1.0000 -0.0000 -0.0000
vn 0.0723 0.8638 0.4987
vn -0.6532 0.6557 0.3786
vn -0.7703 0.6377 -0.0000
vn -0.7703 0.5523 -0.3189
vn 0.3720 -0.8039 0.4641
vn 0.3720 -0.9282 -0.0000
vn 0.3720 -0.8039 -0.4641
vn 0.3720 -0.4641 -0.8039
vn 0.3720 -0.0000 -0.9282
vn 0.3720 0.9282 -0.0000
vn 0.3720 0.8039 0.4641
vn 0.3720 0.8039 -0.4641
vn 0.3720 0.4641 -0.8039
vn 0.3720 0.4641 0.8039
vn 0.1965 -0.0000 0.9805
vn 0.1965 0.4903 0.8491
vn 0.1965 0.8491 -0.4903
vn 0.1965 0.4903 -0.8491
vn 0.1965 0.8491 0.4903
vn 0.1965 -0.0000 -0.9805
vn 0.1965 0.9805 -0.0000
vn 0.1965 -0.4903 -0.8491
vn 0.1965 -0.8491 -0.4903
vn 0.1965 -0.9805 -0.0000
vn 0.1965 -0.8491 0.4903
vn 0.1965 -0.4903 0.8491
vn -1.0000 -0.0000 -0.0000
vn -0.7703 -0.5523 0.3189
vn -0.7703 -0.3189 0.5523
vn -0.7703 -0.3189 -0.5523
vn -0.7703 -0.5523 -0.3189
vn -0.7703 0.5523 0.3189
vn -0.7703 0.3189 -0.5523
vn -0.7703 -0.0000 0.6377
vn -0.7703 -0.6377 -0.0000
vn -0.7703 -0.0000 -0.6377
vn -0.7703 0.3189 0.5523
vt 0.290746 0.166981
vt 0.290746 0.966887
vt 0.245826 0.966887
vt 0.245826 0.166981
vt 0.200907 0.966887
vt 0.200907 0.166981
vt 0.155987 0.966887
vt 0.155987 0.166981
vt 0.111067 0.966887
vt 0.111067 0.166981
vt 0.066148 0.966887
vt 0.066148 0.166981
vt 0.021228 0.966887
vt 0.021228 0.166981
vt 0.560646 0.166981
vt 0.560646 0.966887
vt 0.515726 0.966887
vt 0.515726 0.166981
vt 0.470806 0.966887
vt 0.470806 0.166981
vt 0.425887 0.966887
vt 0.425887 0.166981
vt 0.380967 0.966887
vt 0.380967 0.166981
vt 0.815827 0.660798
vt 0.836837 0.670435
vt 0.785686 0.749098
vt 0.336047 0.966887
vt 0.336047 0.166981
vt 0.291128 0.966887
vt 0.291127 0.166981
vt 0.581350 0.500532
vt 0.581350 0.463677
vt 0.643299 0.463677
vt 0.643299 0.500532
vt 0.855995 0.684443
vt 0.872859 0.702947
vt 0.744562 0.342852
vt 0.769019 0.338235
vt 0.785853 0.432200
vt 0.792883 0.338837
vt 0.815470 0.343705
vt 0.744918 0.659354
vt 0.769396 0.654855
vt 0.855694 0.367240
vt 0.872577 0.385646
vt 0.836515 0.353299
vt 0.793276 0.655538
vt 0.823012 0.490712
vt 0.867235 0.501895
vt 0.840878 0.584181
vt 0.806258 0.575280
vt 0.909855 0.201477
vt 0.950805 0.222803
vt 0.905357 0.299018
vt 0.873699 0.280775
vt 0.778239 0.484371
vt 0.770350 0.570980
vt 0.867026 0.185069
vt 0.840534 0.267212
vt 0.989432 0.248416
vt 0.935609 0.321914
vt 0.732916 0.482273
vt 0.732916 0.571418
vt 0.822928 0.173727
vt 0.805757 0.258291
vt 0.777906 0.166967
vt 0.769807 0.254318
vt 0.732198 0.164854
vt 0.732198 0.254784
vt 0.951365 0.539581
vt 0.990152 0.565250
vt 0.936197 0.639042
vt 0.905848 0.616064
vt 0.910240 0.518242
vt 0.874107 0.597769
vt 0.729349 0.943152
vt 0.747777 0.911235
vt 0.776100 0.918824
vt 0.750083 0.963886
vt 0.697432 0.961580
vt 0.705022 0.989903
vt 0.660578 0.961580
vt 0.652989 0.989903
vt 0.628661 0.943152
vt 0.607927 0.963886
vt 0.610233 0.911235
vt 0.581910 0.918824
vt 0.610233 0.874381
vt 0.581910 0.866792
vt 0.628661 0.842464
vt 0.607927 0.821730
vt 0.660578 0.824036
vt 0.652988 0.795713
vt 0.697432 0.824036
vt 0.705021 0.795713
vt 0.729349 0.842464
vt 0.750083 0.821730
vt 0.747777 0.874381
vt 0.776100 0.866791
vt 0.579105 0.103917
vt 0.579105 0.071881
vt 0.595123 0.044137
vt 0.622867 0.028119
vt 0.654903 0.028119
vt 0.682647 0.044137
vt 0.698665 0.071881
vt 0.698665 0.103917
vt 0.682647 0.131661
vt 0.654903 0.147680
vt 0.622867 0.147680
vt 0.595123 0.131661
vt 0.581350 0.684805
vt 0.581350 0.647950
vt 0.643299 0.647950
vt 0.643299 0.684805
vt 0.581350 0.353113
vt 0.581350 0.316259
vt 0.643299 0.316259
vt 0.643299 0.353113
vt 0.581350 0.537386
vt 0.643299 0.537386
vt 0.581350 0.426823
vt 0.643299 0.426823
vt 0.581350 0.611095
vt 0.643299 0.611095
vt 0.581350 0.279404
vt 0.643299 0.279404
vt 0.581350 0.389968
vt 0.643299 0.389968
vt 0.581350 0.574241
vt 0.643299 0.574241
vt 0.581350 0.721659
vt 0.643299 0.721659
s 1
usemtl 60mmRocket
f 50/1/1 2/2/2 4/3/3 51/4/4
f 51/4/4 4/3/3 6/5/5 52/6/6
f 52/6/6 6/5/5 8/7/7 53/8/8
f 53/8/8 8/7/7 10/9/9 54/10/10
f 54/10/10 10/9/9 12/11/11 55/12/12
f 55/12/12 12/11/11 14/13/13 56/14/14
f 56/15/14 14/16/13 16/17/15 57/18/16
f 57/18/16 16/17/15 18/19/17 58/20/18
f 58/20/18 18/19/17 20/21/19 59/22/20
f 59/22/20 20/21/19 22/23/21 60/24/22
f 28/25/23 27/26/24 25/27/25
f 60/24/22 22/23/21 24/28/26 61/29/27
f 61/29/27 24/28/26 2/30/2 50/31/1
f 1/32/28 3/33/29 63/34/4 62/35/1
f 27/26/24 31/36/30 25/27/25
f 31/36/30 33/37/31 25/27/25
f 33/38/31 35/39/32 25/40/25
f 35/39/32 37/41/33 25/40/25
f 37/41/33 39/42/34 25/40/25
f 42/43/35 41/44/36 25/27/25
f 44/45/37 42/46/35 25/40/25
f 39/42/34 47/47/38 25/40/25
f 41/44/36 49/48/39 25/27/25
f 47/47/38 44/45/37 25/40/25
f 49/48/39 28/25/23 25/27/25
f 22/49/21 20/50/19 29/51/40 48/52/41
f 48/52/41 29/51/40 28/25/23 49/48/39
f 6/53/5 4/54/3 45/55/42 46/56/43
f 46/56/43 45/55/42 44/45/37 47/47/38
f 24/57/26 22/49/21 48/52/41 40/58/44
f 40/58/44 48/52/41 49/48/39 41/44/36
f 8/59/7 6/53/5 46/56/43 38/60/45
f 38/60/45 46/56/43 47/47/38 39/42/34
f 4/54/3 2/61/2 43/62/46 45/55/42
f 45/55/42 43/62/46 42/46/35 44/45/37
f 2/63/2 24/57/26 40/58/44 43/64/46
f 43/64/46 40/58/44 41/44/36 42/43/35
f 10/65/9 8/59/7 38/60/45 36/66/47
f 36/66/47 38/60/45 39/42/34 37/41/33
f 12/67/11 10/65/9 36/66/47 34/68/48
f 34/68/48 36/66/47 37/41/33 35/39/32
f 14/69/13 12/67/11 34/68/48 32/70/49
f 32/70/49 34/68/48 35/39/32 33/38/31
f 16/71/15 14/72/13 32/73/49 30/74/50
f 30/74/50 32/73/49 33/37/31 31/36/30
f 18/75/17 16/71/15 30/74/50 26/76/51
f 26/76/51 30/74/50 31/36/30 27/26/24
f 20/50/19 18/75/17 26/76/51 29/51/40
f 29/51/40 26/76/51 27/26/24 28/25/23
s 0
f 3/77/52 1/78/52 50/79/52 51/80/52
f 5/81/52 3/77/52 51/80/52 52/82/52
f 7/83/52 5/81/52 52/82/52 53/84/52
f 9/85/52 7/83/52 53/84/52 54/86/52
f 11/87/52 9/85/52 54/86/52 55/88/52
f 13/89/52 11/87/52 55/88/52 56/90/52
f 15/91/52 13/89/52 56/90/52 57/92/52
f 17/93/52 15/91/52 57/92/52 58/94/52
f 19/95/52 17/93/52 58/94/52 59/96/52
f 21/97/52 19/95/52 59/96/52 60/98/52
f 23/99/52 21/97/52 60/98/52 61/100/52
f 1/78/52 23/99/52 61/100/52 50/79/52
f 62/101/52 63/102/52 64/103/52 65/104/52 66/105/52 67/106/52 68/107/52 69/108/52 70/109/52 71/110/52 72/111/52 73/112/52
s 1
f 15/113/53 17/114/54 70/115/18 69/116/16
f 9/117/55 11/118/56 67/119/12 66/120/10
f 23/121/57 1/32/28 62/35/1 73/122/27
f 3/33/29 5/123/58 64/124/6 63/34/4
f 17/114/54 19/125/59 71/126/20 70/115/18
f 11/118/56 13/127/60 68/128/14 67/119/12
f 5/123/58 7/129/61 65/130/8 64/124/6
f 19/125/59 21/131/62 72/132/22 71/126/20
f 13/133/60 15/113/53 69/116/16 68/134/14
f 7/129/61 9/117/55 66/120/10 65/130/8
f 21/131/62 23/121/57 73/122/27 72/132/22
