# Blender 4.3.2
# www.blender.org
mtllib Diamond.mtl
o Cylinder
v -0.000000 0.274748 0.316920
v -0.224097 0.274748 0.224096
v -0.316920 0.274748 0.000000
v -0.224097 0.274748 -0.224096
v -0.000000 0.274748 -0.316920
v 0.224096 0.274748 -0.224096
v 0.000015 -0.009254 -0.009123
v 0.316920 0.274748 0.000000
v 0.224096 0.274748 0.224096
v -0.000000 0.396091 0.208192
v -0.147214 0.396091 0.147214
v -0.208192 0.396091 0.000000
v -0.147214 0.396091 -0.147214
v -0.000000 0.396091 -0.208192
v 0.147214 0.396091 -0.147214
v 0.208192 0.396091 0.000000
v 0.147214 0.396091 0.147214
vn -0.2625 -0.7276 0.6338
vn -0.6393 -0.7219 0.2648
vn -0.6472 -0.7136 -0.2681
vn -0.2704 -0.7076 -0.6529
vn 0.2704 -0.7076 -0.6529
vn 0.6472 -0.7136 -0.2681
vn 0.6393 -0.7219 0.2648
vn 0.2625 -0.7276 0.6338
vn -0.2948 0.6377 -0.7117
vn -0.0000 1.0000 -0.0000
vn 0.7117 0.6377 0.2948
vn -0.7117 0.6377 0.2948
vn 0.2948 0.6377 -0.7117
vn 0.2948 0.6377 0.7117
vn -0.2948 0.6377 0.7117
vn -0.7117 0.6377 -0.2948
vn 0.7117 0.6377 -0.2948
vt 0.567378 0.411860
vt 0.567637 0.190778
vt 0.942798 0.298650
vt 0.692126 0.034449
vt 0.867920 0.034449
vt 0.033637 0.965551
vt 0.047204 0.767528
vt 0.389983 0.930617
vt 0.194807 0.602935
vt 0.389983 0.568190
vt 0.867294 0.568189
vt 0.691500 0.568189
vt 0.033637 0.411861
vt 0.125194 0.228702
vt 0.125194 0.373936
vt 0.227890 0.476633
vt 0.373125 0.126006
vt 0.411049 0.568190
vt 0.475821 0.373936
vt 0.567378 0.411861
vt 0.411049 0.034449
vt 0.227890 0.126006
vt 0.189966 0.034449
vt 0.189966 0.568190
vt 0.567378 0.190778
vt 0.475821 0.228702
vt 0.033637 0.190778
vt 0.373124 0.476633
s 0
usemtl Diamond
f 1/1/1 2/2/1 7/3/1
f 2/2/2 3/4/2 7/3/2
f 3/4/3 4/5/3 7/3/3
f 4/6/4 5/7/4 7/8/4
f 5/7/5 6/9/5 7/8/5
f 6/9/6 8/10/6 7/8/6
f 8/11/7 9/12/7 7/3/7
f 9/12/8 1/1/8 7/3/8
f 5/13/9 13/14/9 14/15/9
f 15/16/10 13/14/10 11/17/10
f 8/18/11 17/19/11 9/20/11
f 2/21/12 12/22/12 3/23/12
f 5/13/13 15/16/13 6/24/13
f 1/25/14 17/19/14 10/26/14
f 1/25/15 11/17/15 2/21/15
f 4/27/16 12/22/16 13/14/16
f 6/24/17 16/28/17 8/18/17
f 5/13/9 4/27/9 13/14/9
f 11/17/10 10/26/10 17/19/10
f 17/19/10 16/28/10 15/16/10
f 15/16/10 14/15/10 13/14/10
f 13/14/10 12/22/10 11/17/10
f 11/17/10 17/19/10 15/16/10
f 8/18/11 16/28/11 17/19/11
f 2/21/12 11/17/12 12/22/12
f 5/13/13 14/15/13 15/16/13
f 1/25/14 9/20/14 17/19/14
f 1/25/15 10/26/15 11/17/15
f 4/27/16 3/23/16 12/22/16
f 6/24/17 15/16/17 16/28/17
