# Blender 4.3.2
# www.blender.org
mtllib SilverRing.mtl
o Cylinder
v -0.000000 -0.005042 -0.206254
v -0.000000 0.116907 -0.206254
v 0.178621 -0.005042 -0.103127
v 0.178621 0.116907 -0.103127
v 0.178621 -0.005042 0.103127
v 0.178621 0.116907 0.103127
v -0.000000 -0.005042 0.206254
v -0.000000 0.116907 0.206254
v -0.178621 -0.005042 0.103127
v -0.178621 0.116907 0.103127
v -0.178621 -0.005042 -0.103127
v -0.178621 0.116907 -0.103127
v -0.000000 -0.005042 -0.253452
v 0.219495 -0.005042 -0.126726
v 0.219495 0.116907 -0.126726
v -0.000000 0.116907 -0.253452
v 0.219495 -0.005042 0.126726
v 0.219495 0.116907 0.126726
v -0.000000 -0.005042 0.253452
v -0.000000 0.116907 0.253452
v -0.219496 -0.005042 0.126726
v -0.219496 0.116907 0.126726
v -0.219496 -0.005042 -0.126726
v -0.219496 0.116907 -0.126726
v -0.000000 0.055932 -0.304516
v 0.263719 0.055932 -0.152258
v 0.263719 0.055932 0.152258
v -0.000000 0.055932 0.304516
v -0.263719 0.055932 0.152258
v -0.263719 0.055932 -0.152258
v -0.000000 0.055932 -0.247809
v -0.214609 0.055932 -0.123904
v -0.214609 0.055932 0.123904
v -0.000000 0.055932 0.247809
v 0.214609 0.055932 0.123904
v 0.214609 0.055932 -0.123904
v 0.002314 0.005207 0.251626
v 0.002314 -0.025854 0.321742
v 0.030175 0.022969 0.377423
v 0.041716 0.050830 0.377423
v 0.002314 0.011428 0.377423
v -0.025548 0.022969 0.377423
v 0.030175 0.078692 0.377423
v 0.002314 0.090233 0.377423
v -0.025548 0.078692 0.377423
v -0.037088 0.050830 0.377423
v -0.051910 -0.003394 0.321742
v -0.029946 0.018570 0.251626
v -0.074370 0.050830 0.321742
v -0.043309 0.050830 0.251626
v -0.051910 0.105054 0.321742
v -0.029946 0.083091 0.251626
v 0.002314 0.127515 0.321742
v 0.002314 0.096453 0.251626
v 0.056538 0.105054 0.321742
v 0.034574 0.083091 0.251626
v 0.078998 0.050830 0.321742
v 0.047937 0.050830 0.251626
v 0.056538 -0.003394 0.321742
v 0.034574 0.018570 0.251626
vn 0.4048 0.5871 -0.7011
vn 0.8095 0.5871 -0.0000
vn 0.4048 0.5871 0.7011
vn -0.4048 0.5871 0.7011
vn 0.8612 0.5083 -0.0000
vn -0.8095 0.5871 -0.0000
vn -0.4048 0.5871 -0.7011
vn 0.4306 0.5083 0.7458
vn -0.0000 -1.0000 -0.0000
vn -0.0000 1.0000 -0.0000
vn 0.4306 0.5083 -0.7458
vn -0.4306 0.5083 -0.7458
vn -0.8612 0.5083 -0.0000
vn -0.4306 0.5083 0.7458
vn -0.4306 -0.5083 0.7458
vn -0.8612 -0.5083 -0.0000
vn -0.4306 -0.5083 -0.7458
vn 0.4306 -0.5083 -0.7458
vn 0.4306 -0.5083 0.7458
vn -0.4048 -0.5871 -0.7011
vn -0.8095 -0.5871 -0.0000
vn 0.8612 -0.5083 -0.0000
vn -0.4048 -0.5871 0.7011
vn 0.4048 -0.5871 0.7011
vn 0.8095 -0.5871 -0.0000
vn 0.4048 -0.5871 -0.7011
vn -0.0000 -0.0000 -1.0000
vn 0.8550 0.3542 -0.3788
vn 0.3542 0.8550 -0.3788
vn -0.3255 -0.7857 0.5261
vn -0.3542 0.8550 -0.3788
vn 0.3255 -0.7857 0.5261
vn 0.7857 0.3254 0.5261
vn -0.8550 0.3542 -0.3788
vn -0.7857 -0.3254 0.5261
vn 0.3542 -0.8550 -0.3788
vn -0.8550 -0.3542 -0.3788
vn 0.3254 0.7857 0.5261
vn 0.7857 -0.3254 0.5261
vn -0.3542 -0.8550 -0.3788
vn -0.3254 0.7857 0.5261
vn 0.8550 -0.3542 -0.3788
vn -0.7857 0.3254 0.5261
vn -0.0000 -0.0000 1.0000
vt 0.777473 0.108022
vt 0.849909 0.175513
vt 0.776770 0.477899
vt 0.689597 0.471331
vt 0.849909 0.900240
vt 0.777473 0.978764
vt 0.792563 0.127568
vt 0.861007 0.182326
vt 0.764077 0.471438
vt 0.676103 0.474930
vt 0.861007 0.885705
vt 0.792563 0.972663
vt 0.775526 0.122583
vt 0.847037 0.535521
vt 0.765353 0.533454
vt 0.705833 0.189762
vt 0.783955 0.996841
vt 0.733630 0.905141
vt 0.896026 0.673209
vt 0.979070 0.718180
vt 0.896026 0.232182
vt 0.979070 0.188297
vt 0.857200 0.531558
vt 0.762428 0.814234
vt 0.697621 0.775019
vt 0.776500 0.539746
vt 0.681090 0.289956
vt 0.681090 0.648854
vt 0.650849 0.692045
vt 0.650849 0.251018
vt 0.865784 0.275373
vt 0.733630 0.105217
vt 0.733630 0.023089
vt 0.813245 0.101214
vt 0.813245 0.019086
vt 0.601476 0.293958
vt 0.571234 0.255021
vt 0.945399 0.271371
vt 0.975640 0.228180
vt 0.601476 0.652857
vt 0.571234 0.696047
vt 0.945399 0.630268
vt 0.975640 0.669206
vt 0.733630 0.823013
vt 0.813245 0.819010
vt 0.813245 0.901138
vt 0.865784 0.634271
vt 0.775526 0.831175
vt 0.705834 0.779530
vt 0.760874 0.123879
vt 0.858173 0.527079
vt 0.777843 0.535226
vt 0.696860 0.199638
vt 0.760874 0.827559
vt 0.696860 0.785318
vt 0.762428 0.126514
vt 0.697621 0.202624
vt 0.765110 0.474673
vt 0.706051 0.252950
vt 0.775815 0.205394
vt 0.846774 0.471788
vt 0.706051 0.821382
vt 0.775815 0.888351
vt 0.779461 0.474442
vt 0.696008 0.240192
vt 0.759007 0.204414
vt 0.859274 0.485859
vt 0.696007 0.808532
vt 0.759007 0.887260
vt 0.701703 0.822511
vt 0.770390 0.482332
vt 0.852091 0.484171
vt 0.769565 0.892888
vt 0.762919 0.987151
vt 0.567805 0.735930
vt 0.777050 0.545567
vt 0.689940 0.554214
vt 0.777136 0.042327
vt 0.849624 0.119518
vt 0.701703 0.230726
vt 0.769565 0.181872
vt 0.849624 0.818027
vt 0.777136 0.881568
vt 0.771001 0.536454
vt 0.682966 0.538699
vt 0.784377 0.036453
vt 0.855406 0.118430
vt 0.855406 0.845636
vt 0.784377 0.910174
vt 0.567805 0.206047
vt 0.456850 0.569890
vt 0.432361 0.650557
vt 0.322974 0.693987
vt 0.192766 0.674738
vt 0.118012 0.604086
vt 0.142501 0.523419
vt 0.251888 0.479989
vt 0.382095 0.499238
vt 0.294968 0.551333
vt 0.088498 0.472357
vt 0.238388 0.231891
vt 0.361226 0.278877
vt 0.466804 0.595121
vt 0.463460 0.304929
vt 0.470627 0.487017
vt 0.348396 0.702368
vt 0.259764 0.700575
vt 0.298133 0.483527
vt 0.431549 0.476189
vt 0.377383 0.690690
vt 0.118769 0.589456
vt 0.150996 0.461839
vt 0.416975 0.474322
vt 0.164209 0.475714
vt 0.135809 0.368450
vt 0.361704 0.265566
vt 0.194588 0.719178
vt 0.088498 0.678598
vt 0.377383 0.285928
vt 0.118769 0.348645
vt 0.145831 0.702368
vt 0.076398 0.487017
vt 0.237993 0.199413
vt 0.456850 0.231767
vt 0.129016 0.224415
vt 0.260936 0.222339
vt 0.139135 0.688849
vt 0.321403 0.518759
vt 0.406162 0.552379
vt 0.304091 0.754281
vt 0.361704 0.676891
vt 0.135809 0.579798
vt 0.363560 0.224415
vt 0.022493 0.500811
vt 0.261470 0.422141
vt 0.054133 0.272411
vt 0.022493 0.300317
vt 0.261470 0.319122
vt 0.406162 0.303671
vt 0.466095 0.400290
vt 0.466095 0.503308
vt 0.321403 0.270050
s 0
usemtl Ring
f 25/1/1 16/2/1 15/3/1 26/4/1
f 26/4/2 15/3/2 18/5/2 27/6/2
f 27/7/3 18/8/3 20/9/3 28/10/3
f 28/10/4 20/9/4 22/11/4 29/12/4
f 32/13/5 33/14/5 9/15/5 11/16/5
f 29/17/6 22/18/6 24/19/6 30/20/6
f 30/20/7 24/19/7 16/21/7 25/22/7
f 31/23/8 32/24/8 11/25/8 1/26/8
f 3/27/9 1/28/9 13/29/9 14/30/9
f 2/31/10 4/32/10 15/33/10 16/21/10
f 5/34/9 3/27/9 14/30/9 17/35/9
f 4/32/10 6/36/10 18/37/10 15/33/10
f 7/38/9 5/34/9 17/35/9 19/39/9
f 6/36/10 8/40/10 20/41/10 18/37/10
f 9/42/9 7/38/9 19/39/9 21/43/9
f 8/40/10 10/44/10 22/18/10 20/41/10
f 11/45/9 9/42/9 21/43/9 23/46/9
f 10/44/10 12/47/10 24/19/10 22/18/10
f 1/28/9 11/45/9 23/46/9 13/29/9
f 12/47/10 2/31/10 16/21/10 24/19/10
f 33/14/11 34/48/11 7/49/11 9/15/11
f 34/50/12 35/51/12 5/52/12 7/53/12
f 35/51/13 36/54/13 3/55/13 5/52/13
f 36/56/14 31/23/14 1/26/14 3/57/14
f 4/58/15 2/59/15 31/60/15 36/61/15
f 6/62/16 4/58/16 36/61/16 35/63/16
f 8/64/17 6/65/17 35/66/17 34/67/17
f 10/68/18 8/64/18 34/67/18 33/69/18
f 2/70/19 12/71/19 32/72/19 31/73/19
f 23/46/20 30/74/20 25/75/20 13/29/20
f 21/76/21 29/77/21 30/78/21 23/79/21
f 12/71/22 10/80/22 33/81/22 32/72/22
f 19/82/23 28/83/23 29/77/23 21/76/23
f 17/84/24 27/85/24 28/86/24 19/87/24
f 14/88/25 26/89/25 27/85/25 17/84/25
f 13/29/26 25/75/26 26/90/26 14/30/26
f 48/91/27 50/92/27 52/93/27 54/94/27 56/95/27 58/96/27 60/97/27 37/98/27
f 55/99/28 57/100/28 58/101/28 56/102/28
f 53/103/29 55/99/29 56/102/29 54/104/29
f 38/105/30 41/106/30 42/107/30 47/108/30
f 51/109/31 53/110/31 54/111/31 52/112/31
f 59/113/32 39/114/32 41/115/32 38/116/32
f 55/99/33 43/117/33 40/118/33 57/100/33
f 49/119/34 51/109/34 52/112/34 50/120/34
f 47/108/35 42/107/35 46/121/35 49/122/35
f 59/123/36 38/124/36 37/98/36 60/97/36
f 47/108/37 49/122/37 50/125/37 48/126/37
f 53/127/38 44/128/38 43/129/38 55/130/38
f 57/131/39 40/132/39 39/114/39 59/113/39
f 38/105/40 47/108/40 48/126/40 37/133/40
f 51/134/41 45/135/41 44/128/41 53/127/41
f 57/136/42 59/123/42 60/97/42 58/96/42
f 49/137/43 46/138/43 45/135/43 51/134/43
f 41/139/44 39/140/44 40/141/44 43/129/44 44/128/44 45/135/44 46/138/44 42/142/44
