# Blender 4.0.0
# www.blender.org
mtllib HealthVial.mtl
o Cylinder
v -0.063591 1.517276 -0.153521
v 0.000000 1.517276 -0.130616
v -0.117500 1.517276 -0.117500
v 0.049985 1.517276 -0.120674
v -0.153521 1.517276 -0.063591
v 0.092360 1.517276 -0.092360
v -0.166170 1.517276 -0.000000
v 0.120674 1.517276 -0.049985
v -0.153521 1.517276 0.063591
v 0.130616 1.517276 -0.000000
v -0.117500 1.517276 0.117500
v 0.120674 1.517276 0.049985
v -0.063591 1.517276 0.153521
v 0.092360 1.517276 0.092360
v 0.000000 1.517276 0.166170
v 0.049985 1.517276 0.120674
v 0.063591 1.517276 0.153521
v 0.000000 1.517276 0.130616
v 0.117500 1.517276 0.117500
v -0.049985 1.517276 0.120674
v 0.153521 1.517276 0.063591
v -0.092360 1.517276 0.092360
v 0.166170 1.517276 -0.000000
v -0.120674 1.517276 0.049985
v 0.153521 1.517276 -0.063591
v -0.130616 1.517276 -0.000000
v 0.117500 1.517276 -0.117500
v -0.120674 1.517276 -0.049985
v 0.000000 1.517276 -0.166170
v -0.092360 1.517276 -0.092360
v 0.063591 1.517276 -0.153521
v -0.049985 1.517276 -0.120674
v 0.000000 0.132743 -0.053255
v 0.000000 0.208618 -0.130616
v 0.000000 0.154966 -0.107958
v 0.020380 0.132743 -0.049201
v 0.049985 0.208618 -0.120674
v 0.041314 0.154966 -0.099740
v 0.037657 0.132743 -0.037657
v 0.092360 0.208618 -0.092360
v 0.076338 0.154966 -0.076338
v 0.049201 0.132743 -0.020380
v 0.120674 0.208618 -0.049985
v 0.099740 0.154966 -0.041314
v 0.053255 0.132743 -0.000000
v 0.130616 0.208618 -0.000000
v 0.107958 0.154966 -0.000000
v 0.049201 0.132743 0.020380
v 0.120674 0.208618 0.049985
v 0.099740 0.154966 0.041314
v 0.037657 0.132743 0.037657
v 0.092360 0.208618 0.092360
v 0.076338 0.154966 0.076338
v 0.020380 0.132743 0.049201
v 0.049985 0.208618 0.120674
v 0.041314 0.154966 0.099740
v 0.000000 0.132743 0.053255
v 0.000000 0.208618 0.130616
v 0.000000 0.154966 0.107958
v -0.020380 0.132743 0.049201
v -0.049985 0.208618 0.120674
v -0.041314 0.154966 0.099740
v -0.037657 0.132743 0.037657
v -0.092360 0.208618 0.092360
v -0.076338 0.154966 0.076338
v -0.049201 0.132743 0.020380
v -0.120674 0.208618 0.049985
v -0.099740 0.154966 0.041314
v -0.053255 0.132743 -0.000000
v -0.130616 0.208618 -0.000000
v -0.107958 0.154966 -0.000000
v -0.049201 0.132743 -0.020380
v -0.120674 0.208618 -0.049985
v -0.099740 0.154966 -0.041314
v -0.037657 0.132743 -0.037657
v -0.092360 0.208618 -0.092360
v -0.076338 0.154966 -0.076338
v -0.020380 0.132743 -0.049201
v -0.049985 0.208618 -0.120674
v -0.041314 0.154966 -0.099740
v 0.047610 1.593233 -0.114941
v 0.087972 1.593233 -0.087972
v 0.114941 1.593233 -0.047610
v 0.124412 1.593233 -0.000000
v 0.114941 1.593233 0.047610
v 0.087972 1.593233 0.087972
v 0.047610 1.593233 0.114941
v 0.000000 1.593233 0.124412
v -0.047610 1.593233 0.114941
v -0.087972 1.593233 0.087972
v -0.114941 1.593233 0.047610
v -0.124412 1.593233 -0.000000
v -0.114941 1.593233 -0.047610
v -0.087972 1.593233 -0.087972
v -0.047610 1.593233 -0.114941
v 0.000000 1.593233 -0.124412
v 0.000000 1.593233 -0.143594
v 0.000000 1.571091 -0.166170
v 0.000000 1.586748 -0.159558
v -0.063591 1.571091 -0.153521
v -0.054951 1.593233 -0.132664
v -0.061060 1.586748 -0.147412
v -0.117500 1.571091 -0.117500
v -0.101537 1.593233 -0.101537
v -0.112824 1.586748 -0.112824
v -0.153521 1.571091 -0.063591
v -0.132664 1.593233 -0.054951
v -0.147412 1.586748 -0.061060
v -0.166170 1.571091 -0.000000
v -0.143594 1.593233 -0.000000
v -0.159558 1.586748 -0.000000
v -0.153521 1.571091 0.063591
v -0.132664 1.593233 0.054951
v -0.147412 1.586748 0.061060
v -0.117500 1.571091 0.117500
v -0.101537 1.593233 0.101537
v -0.112824 1.586748 0.112824
v -0.063591 1.571091 0.153521
v -0.054951 1.593233 0.132664
v -0.061060 1.586748 0.147412
v 0.000000 1.571091 0.166170
v 0.000000 1.593233 0.143594
v 0.000000 1.586748 0.159558
v 0.063591 1.571091 0.153521
v 0.054951 1.593233 0.132664
v 0.061060 1.586748 0.147412
v 0.117500 1.571091 0.117500
v 0.101537 1.593233 0.101537
v 0.112824 1.586748 0.112824
v 0.153521 1.571091 0.063591
v 0.132664 1.593233 0.054951
v 0.147412 1.586748 0.061060
v 0.166170 1.571091 -0.000000
v 0.143594 1.593233 -0.000000
v 0.159558 1.586748 -0.000000
v 0.153521 1.571091 -0.063591
v 0.132664 1.593233 -0.054951
v 0.147412 1.586748 -0.061060
v 0.117500 1.571091 -0.117500
v 0.101537 1.593233 -0.101537
v 0.112824 1.586748 -0.112824
v 0.063591 1.571091 -0.153521
v 0.054951 1.593233 -0.132664
v 0.061060 1.586748 -0.147412
v 0.061209 1.701584 -0.147771
v 0.113099 1.701584 -0.113099
v 0.147771 1.701584 -0.061209
v 0.159946 1.701584 -0.000000
v 0.147771 1.701584 0.061209
v 0.113099 1.701584 0.113099
v 0.061209 1.701584 0.147771
v -0.000000 1.701584 0.159946
v -0.061209 1.701584 0.147771
v -0.113099 1.701584 0.113099
v -0.147771 1.701584 0.061209
v -0.159946 1.701584 -0.000000
v -0.147771 1.701584 -0.061209
v -0.113099 1.701584 -0.113099
v -0.000000 1.701584 -0.159946
v -0.061209 1.701584 -0.147771
vn -0.2515 -0.7538 -0.6071
vn -0.0000 -0.1938 -0.9810
vn -0.3754 -0.1938 -0.9064
vn 0.4647 -0.7538 -0.4647
vn 0.9064 -0.1938 -0.3754
vn 0.6937 -0.1938 -0.6937
vn 0.6071 -0.7538 -0.2515
vn 0.9810 -0.1938 -0.0000
vn 0.6571 -0.7538 -0.0000
vn 0.9064 -0.1938 0.3754
vn 0.6071 -0.7538 0.2515
vn 0.6937 -0.1938 0.6937
vn 0.4647 -0.7538 0.4647
vn 0.3754 -0.1938 0.9064
vn 0.2515 -0.7538 0.6071
vn -0.0000 -0.1938 0.9810
vn -0.0000 -0.7538 0.6571
vn -0.3754 -0.1938 0.9064
vn -0.2515 -0.7538 0.6071
vn -0.6937 -0.1938 0.6937
vn -0.4647 -0.7538 0.4647
vn -0.9064 -0.1938 0.3754
vn -0.6071 -0.7538 0.2515
vn -0.9810 -0.1938 -0.0000
vn -0.6571 -0.7538 -0.0000
vn -0.9064 -0.1938 -0.3754
vn -0.6071 -0.7538 -0.2515
vn -0.6937 -0.1938 -0.6937
vn -0.4647 -0.7538 -0.4647
vn -0.0000 -1.0000 -0.0000
vn -0.7462 -0.6657 -0.0000
vn -0.9064 0.1938 -0.3754
vn -0.6894 -0.6657 -0.2856
vn 0.2515 -0.7538 -0.6071
vn 0.3754 -0.1938 -0.9064
vn -0.0000 -0.7538 -0.6571
vn 0.2774 -0.6889 -0.6697
vn -0.0000 -0.6889 -0.7249
vn 0.0821 -0.9767 -0.1983
vn -0.0000 -0.9767 -0.2146
vn 0.5126 -0.6889 -0.5126
vn 0.1983 -0.9767 -0.0821
vn 0.1518 -0.9767 -0.1518
vn 0.6697 -0.6889 -0.2774
vn 0.7249 -0.6889 -0.0000
vn 0.6697 -0.6889 0.2774
vn 0.2146 -0.9767 -0.0000
vn 0.5126 -0.6889 0.5126
vn 0.1983 -0.9767 0.0821
vn 0.2774 -0.6889 0.6697
vn 0.0821 -0.9767 0.1983
vn 0.1518 -0.9767 0.1518
vn -0.0000 -0.6889 0.7249
vn -0.0821 -0.9767 0.1983
vn -0.0000 -0.9767 0.2146
vn -0.2774 -0.6889 0.6697
vn -0.5126 -0.6889 0.5126
vn -0.6697 -0.6889 0.2774
vn -0.1518 -0.9767 0.1518
vn -0.2146 -0.9767 -0.0000
vn -0.1983 -0.9767 0.0821
vn -0.7249 -0.6889 -0.0000
vn -0.1983 -0.9767 -0.0821
vn -0.6697 -0.6889 -0.2774
vn -0.5126 -0.6889 -0.5126
vn -0.0821 -0.9767 -0.1983
vn -0.1518 -0.9767 -0.1518
vn -0.2774 -0.6889 -0.6697
vn 0.2856 -0.6657 -0.6894
vn -0.0000 0.1938 -0.9810
vn 0.3754 0.1938 -0.9064
vn 0.5276 -0.6657 -0.5276
vn 0.9064 0.1938 -0.3754
vn 0.6894 -0.6657 -0.2856
vn 0.2856 -0.6657 0.6894
vn -0.0000 0.1938 0.9810
vn -0.0000 -0.6657 0.7462
vn 0.5276 -0.6657 0.5276
vn 0.3754 0.1938 0.9064
vn -0.6894 -0.6657 0.2856
vn -0.9810 0.1938 -0.0000
vn 0.6937 0.1938 -0.6937
vn -0.5276 -0.6657 0.5276
vn -0.9064 0.1938 0.3754
vn 0.6894 -0.6657 0.2856
vn 0.6937 0.1938 0.6937
vn -0.0000 1.0000 -0.0000
vn 0.7462 -0.6657 -0.0000
vn 0.9064 0.1938 0.3754
vn -0.2856 -0.6657 0.6894
vn -0.6937 0.1938 0.6937
vn -0.5276 -0.6657 -0.5276
vn -0.3754 0.1938 -0.9064
vn -0.2856 -0.6657 -0.6894
vn -0.3754 0.1938 0.9064
vn -0.6937 0.1938 -0.6937
vn 0.9810 0.1938 -0.0000
vn -0.0000 0.6889 -0.7249
vn -0.0821 0.9767 -0.1983
vn -0.0000 0.9767 -0.2146
vn -0.2774 0.6889 -0.6697
vn -0.1517 0.9767 -0.1517
vn -0.5126 0.6889 -0.5126
vn -0.6697 0.6889 -0.2774
vn -0.7249 0.6889 -0.0000
vn -0.1983 0.9767 -0.0821
vn -0.6697 0.6889 0.2774
vn -0.1983 0.9767 0.0821
vn -0.2146 0.9767 -0.0000
vn -0.5126 0.6889 0.5126
vn -0.1518 0.9767 0.1517
vn -0.2774 0.6889 0.6697
vn -0.0000 0.6889 0.7249
vn -0.0821 0.9767 0.1983
vn 0.0821 0.9767 0.1983
vn -0.0000 0.9767 0.2146
vn 0.2774 0.6889 0.6697
vn 0.1518 0.9767 0.1517
vn 0.6697 0.6889 0.2774
vn 0.5126 0.6889 0.5126
vn 0.7249 0.6889 -0.0000
vn 0.2146 0.9767 -0.0000
vn 0.1983 0.9767 0.0821
vn 0.6697 0.6889 -0.2774
vn 0.1983 0.9767 -0.0821
vn 0.1518 0.9767 -0.1517
vn 0.5126 0.6889 -0.5126
vn 0.2774 0.6889 -0.6697
vn 0.0821 0.9767 -0.1983
vn -0.0000 -0.6657 -0.7462
vn 0.8779 -0.3116 0.3636
vn 0.5937 0.5432 0.5937
vn 0.6719 -0.3116 0.6719
vn -0.8779 -0.3116 -0.3636
vn -0.8396 0.5432 -0.0000
vn -0.7757 0.5432 -0.3213
vn 0.3636 -0.3116 0.8779
vn -0.0000 0.5432 0.8396
vn -0.0000 -0.3116 0.9502
vn -0.3636 -0.3116 -0.8779
vn -0.0000 0.5432 -0.8396
vn -0.0000 -0.3116 -0.9502
vn -0.8779 -0.3116 0.3636
vn -0.5937 0.5432 0.5937
vn -0.7757 0.5432 0.3213
vn -0.6719 -0.3116 0.6719
vn -0.3213 0.5432 0.7757
vn 0.3213 0.5432 0.7757
vn 0.6719 -0.3116 -0.6719
vn 0.7757 0.5432 -0.3213
vn 0.8779 -0.3116 -0.3636
vn -0.9502 -0.3116 -0.0000
vn 0.3213 0.5432 -0.7757
vn 0.3636 -0.3116 -0.8779
vn -0.5937 0.5432 -0.5937
vn -0.6719 -0.3116 -0.6719
vn 0.8396 0.5432 -0.0000
vn 0.7757 0.5432 0.3213
vn -0.3636 -0.3116 0.8779
vn 0.5937 0.5432 -0.5937
vn 0.9502 -0.3116 -0.0000
vn -0.3213 0.5432 -0.7757
vt 0.403370 0.778319
vt 0.373796 0.018904
vt 0.403370 0.018904
vt 0.314647 0.778319
vt 0.285073 0.018904
vt 0.314647 0.018904
vt 0.285073 0.778319
vt 0.255498 0.018904
vt 0.255498 0.778319
vt 0.225924 0.018904
vt 0.225924 0.778319
vt 0.196350 0.018904
vt 0.196350 0.778319
vt 0.166775 0.018904
vt 0.166775 0.778319
vt 0.137201 0.018904
vt 0.137201 0.778319
vt 0.107627 0.018904
vt 0.107627 0.778319
vt 0.078052 0.018904
vt 0.078052 0.778319
vt 0.048478 0.018904
vt 0.048478 0.778319
vt 0.018904 0.018904
vt 0.492093 0.778319
vt 0.462519 0.018904
vt 0.492093 0.018904
vt 0.462519 0.778319
vt 0.432945 0.018904
vt 0.432945 0.778319
vt 0.808935 0.729669
vt 0.770867 0.720219
vt 0.788022 0.708757
vt 0.689832 0.018904
vt 0.673262 0.069037
vt 0.653675 0.041790
vt 0.344222 0.778319
vt 0.344222 0.018904
vt 0.373796 0.778319
vt 0.581444 0.582085
vt 0.619018 0.605725
vt 0.598276 0.613235
vt 0.622807 0.635919
vt 0.612653 0.639444
vt 0.648898 0.573731
vt 0.614671 0.572071
vt 0.641095 0.607542
vt 0.680934 0.587956
vt 0.643191 0.641247
vt 0.633527 0.636555
vt 0.705910 0.613732
vt 0.661002 0.617038
vt 0.675646 0.633343
vt 0.718205 0.646872
vt 0.684535 0.653572
vt 0.650496 0.649094
vt 0.718662 0.681367
vt 0.684142 0.675952
vt 0.654264 0.659195
vt 0.676049 0.696775
vt 0.649857 0.680199
vt 0.654162 0.670075
vt 0.683649 0.740914
vt 0.706749 0.714190
vt 0.660762 0.713394
vt 0.652428 0.757950
vt 0.632013 0.693222
vt 0.642223 0.688413
vt 0.616975 0.763323
vt 0.640371 0.723762
vt 0.617281 0.726282
vt 0.581207 0.756743
vt 0.593628 0.720155
vt 0.620411 0.693781
vt 0.548346 0.740039
vt 0.600952 0.680791
vt 0.609216 0.689749
vt 0.529900 0.664546
vt 0.565442 0.693031
vt 0.529900 0.695737
vt 0.597518 0.668396
vt 0.537406 0.632971
vt 0.563778 0.668181
vt 0.569004 0.645687
vt 0.554609 0.604145
vt 0.604306 0.646671
vt 0.598825 0.656633
vt 0.580848 0.626637
vt 0.836258 0.592306
vt 0.797472 0.586469
vt 0.832232 0.572070
vt 0.925385 0.651859
vt 0.945621 0.685458
vt 0.925385 0.681433
vt 0.865832 0.740986
vt 0.832233 0.761222
vt 0.836258 0.740986
vt 0.776705 0.651859
vt 0.770867 0.613074
vt 0.788022 0.624536
vt 0.893155 0.603624
vt 0.931222 0.613073
vt 0.914067 0.624536
vt 0.914067 0.708757
vt 0.904618 0.746824
vt 0.893155 0.729669
vt 0.776705 0.681434
vt 0.756469 0.685459
vt 0.869857 0.572070
vt 0.865832 0.592306
vt 0.797472 0.746824
vt 0.808935 0.603624
vt 0.945621 0.647834
vt 0.869857 0.761222
vt 0.756469 0.647834
vt 0.931222 0.720219
vt 0.869857 0.572070
vt 0.904618 0.586469
vt 0.551521 0.167198
vt 0.597705 0.147549
vt 0.581787 0.179872
vt 0.538550 0.206536
vt 0.563419 0.250291
vt 0.531293 0.247061
vt 0.559102 0.403594
vt 0.604104 0.419944
vt 0.578922 0.437284
vt 0.544070 0.366885
vt 0.586842 0.389801
vt 0.661623 0.515751
vt 0.709414 0.507350
vt 0.694048 0.534263
vt 0.570115 0.214366
vt 0.630723 0.493643
vt 0.677476 0.490590
vt 0.534244 0.328231
vt 0.573768 0.356934
vt 0.529900 0.866601
vt 0.627884 0.801130
vt 0.693354 0.899114
vt 0.529900 0.288011
vt 0.565379 0.322571
vt 0.602909 0.467391
vt 0.649681 0.470391
vt 0.621360 0.068434
vt 0.618555 0.118427
vt 0.593723 0.098470
vt 0.625032 0.446847
vt 0.643690 0.092204
vt 0.561930 0.286774
vt 0.605979 0.152495
vt 0.633418 0.130783
vt 0.614472 0.157580
vt 0.626029 0.124564
vt 0.656997 0.107211
vt 0.650288 0.099616
vt 0.678857 0.077511
vt 0.708239 0.049463
vt 0.712739 0.059530
vt 0.684596 0.086452
vt 0.682327 0.482739
vt 0.713265 0.498196
vt 0.687337 0.474470
vt 0.715988 0.488737
vt 0.655554 0.463309
vt 0.661588 0.456069
vt 0.631793 0.440722
vt 0.611767 0.414771
vt 0.638777 0.434441
vt 0.604268 0.381452
vt 0.619510 0.409702
vt 0.595295 0.385687
vt 0.592123 0.351080
vt 0.574807 0.321000
vt 0.582837 0.354023
vt 0.571681 0.286547
vt 0.581938 0.286338
vt 0.584293 0.319488
vt 0.573141 0.251381
vt 0.583180 0.252545
vt 0.589365 0.219387
vt 0.579636 0.216831
vt 0.590714 0.183630
vt 0.599936 0.187443
vt 0.570880 0.131283
vt 0.770328 0.838496
vt 0.899069 0.812888
vt 0.924677 0.941629
vt 0.853429 0.293268
vt 0.912538 0.336913
vt 0.848316 0.320970
vt 0.776078 0.090845
vt 0.791019 0.018904
vt 0.819667 0.041059
vt 0.839880 0.347847
vt 0.886732 0.404448
vt 0.828243 0.373500
vt 0.813580 0.132749
vt 0.886732 0.125854
vt 0.828243 0.156801
vt 0.776078 0.439457
vt 0.845414 0.463774
vt 0.819667 0.489243
vt 0.796105 0.419647
vt 0.867880 0.435369
vt 0.901692 0.371466
vt 0.848316 0.209332
vt 0.919111 0.229003
vt 0.853429 0.237033
vt 0.791019 0.511398
vt 0.753795 0.456690
vt 0.901692 0.158836
vt 0.839880 0.182455
vt 0.845414 0.066528
vt 0.796105 0.110655
vt 0.921312 0.265151
vt 0.919111 0.301299
vt 0.813580 0.397552
vt 0.912538 0.193389
vt 0.855142 0.265151
vt 0.867880 0.094933
vt 0.018904 0.778319
vt 0.571032 0.705224
vt 0.680912 0.929152
vt 0.657922 0.952142
vt 0.627884 0.964584
vt 0.595371 0.964584
vt 0.565333 0.952142
vt 0.542343 0.929152
vt 0.529900 0.899114
vt 0.542343 0.836563
vt 0.565333 0.813573
vt 0.595371 0.801130
vt 0.657922 0.813573
vt 0.680912 0.836563
vt 0.693354 0.866601
vt 0.715988 0.069942
vt 0.899069 0.967237
vt 0.865610 0.981096
vt 0.829395 0.981096
vt 0.795936 0.967237
vt 0.770328 0.941629
vt 0.756469 0.908170
vt 0.756469 0.871955
vt 0.795936 0.812888
vt 0.829395 0.799029
vt 0.865611 0.799029
vt 0.924677 0.838497
vt 0.938536 0.871955
vt 0.938536 0.908171
vt 0.753795 0.073611
s 1
usemtl Stimpack
f 32/1/1 34/2/2 79/3/3
f 6/4/4 43/5/5 40/6/6
f 8/7/7 46/8/8 43/5/5
f 10/9/9 49/10/10 46/8/8
f 12/11/11 52/12/12 49/10/10
f 14/13/13 55/14/14 52/12/12
f 16/15/15 58/16/16 55/14/14
f 18/17/17 61/18/18 58/16/16
f 20/19/19 64/20/20 61/18/18
f 22/21/21 67/22/22 64/20/20
f 24/23/23 70/24/24 67/22/22
f 26/25/25 73/26/26 70/27/24
f 28/28/27 76/29/28 73/26/26
f 30/30/29 79/3/3 76/29/28
s 0
f 12/31/30 19/32/30 14/33/30
s 1
f 7/34/31 106/35/32 5/36/33
f 4/37/34 40/6/6 37/38/35
f 2/39/36 37/38/35 34/2/2
f 34/40/2 38/41/37 35/42/38
f 35/42/38 36/43/39 33/44/40
f 40/45/6 38/41/37 37/46/35
f 41/47/41 36/43/39 38/41/37
f 43/48/5 41/47/41 40/45/6
f 41/47/41 42/49/42 39/50/43
f 46/51/8 44/52/44 43/48/5
f 47/53/45 42/49/42 44/52/44
f 49/54/10 47/53/45 46/51/8
f 50/55/46 45/56/47 47/53/45
f 52/57/12 50/55/46 49/54/10
f 53/58/48 48/59/49 50/55/46
f 52/57/12 56/60/50 53/58/48
f 53/58/48 54/61/51 51/62/52
f 58/63/16 56/60/50 55/64/14
f 59/65/53 54/61/51 56/60/50
f 61/66/18 59/65/53 58/63/16
f 59/65/53 60/67/54 57/68/55
f 64/69/20 62/70/56 61/66/18
f 65/71/57 60/67/54 62/70/56
f 67/72/22 65/71/57 64/69/20
f 68/73/58 63/74/59 65/71/57
f 70/75/24 68/73/58 67/72/22
f 68/73/58 69/76/60 66/77/61
f 73/78/26 71/79/62 70/80/24
f 71/79/62 72/81/63 69/76/60
f 76/82/28 74/83/64 73/78/26
f 77/84/65 72/81/63 74/83/64
f 79/85/3 77/84/65 76/82/28
f 77/84/65 78/86/66 75/87/67
f 34/40/2 80/88/68 79/85/3
f 35/42/38 78/86/66 80/88/68
f 54/61/51 66/77/61 78/86/66
s 0
f 24/89/30 11/90/30 9/91/30
f 32/92/30 29/93/30 2/94/30
f 8/95/30 23/96/30 10/97/30
f 18/98/30 13/99/30 20/100/30
f 28/101/30 3/102/30 30/103/30
f 4/104/30 27/105/30 6/106/30
f 16/107/30 19/32/30 17/108/30
f 24/89/30 7/109/30 26/110/30
f 12/31/30 23/96/30 21/111/30
f 20/100/30 11/90/30 22/112/30
f 30/103/30 1/113/30 32/92/30
f 8/95/30 27/105/30 25/114/30
f 16/107/30 15/115/30 18/98/30
f 4/104/30 29/93/30 31/116/30
f 28/101/30 7/117/30 5/118/30
s 1
f 31/119/69 98/120/70 142/121/71
f 27/122/72 136/123/73 25/124/74
f 17/125/75 121/126/76 15/127/77
f 19/128/78 124/129/79 17/125/75
f 9/130/80 109/131/81 7/132/31
f 31/119/69 139/133/82 27/122/72
f 11/134/83 112/135/84 9/130/80
f 21/136/85 127/137/86 19/128/78
s 0
f 116/138/87 128/139/87 140/140/87
s 1
f 23/141/88 130/142/89 21/136/85
f 13/143/90 115/144/91 11/134/83
f 3/145/92 100/146/93 1/147/94
f 15/127/77 118/148/95 13/143/90
f 5/36/33 103/149/96 3/145/92
f 25/124/74 133/150/97 23/141/88
f 100/146/93 99/151/98 98/120/70
f 99/151/98 101/152/99 97/153/100
f 103/149/96 102/154/101 100/146/93
f 102/154/101 104/155/102 101/152/99
f 106/35/32 105/156/103 103/149/96
f 108/157/104 104/155/102 105/156/103
f 109/158/81 108/157/104 106/35/32
f 111/159/105 107/160/106 108/157/104
f 109/131/81 114/161/107 111/162/105
f 111/162/105 113/163/108 110/164/109
f 112/135/84 117/165/110 114/161/107
f 114/161/107 116/166/111 113/163/108
f 118/148/95 117/165/110 115/144/91
f 120/167/112 116/166/111 117/165/110
f 121/126/76 120/167/112 118/148/95
f 123/168/113 119/169/114 120/167/112
f 124/129/79 123/168/113 121/126/76
f 123/168/113 125/170/115 122/171/116
f 127/137/86 126/172/117 124/129/79
f 126/172/117 128/173/118 125/170/115
f 127/137/86 132/174/119 129/175/120
f 132/174/119 128/173/118 129/175/120
f 130/142/89 135/176/121 132/174/119
f 132/174/119 134/177/122 131/178/123
f 133/150/97 138/179/124 135/176/121
f 135/176/121 137/180/125 134/177/122
f 139/133/82 138/179/124 136/123/73
f 138/179/124 140/181/126 137/180/125
f 142/121/71 141/182/127 139/133/82
f 144/183/128 140/181/126 141/182/127
f 98/120/70 144/183/128 142/121/71
f 99/151/98 143/184/129 144/183/128
f 1/147/94 98/120/70 29/185/130
s 0
f 154/186/87 150/187/87 146/188/87
s 1
f 85/189/131 150/190/132 86/191/133
f 93/192/134 156/193/135 157/194/136
f 87/195/137 152/196/138 88/197/139
f 95/198/140 159/199/141 96/200/142
f 91/201/143 154/202/144 155/203/145
f 90/204/146 153/205/147 154/202/144
f 87/195/137 150/190/132 151/206/148
f 82/207/149 147/208/150 83/209/151
f 91/201/143 156/210/135 92/211/152
f 96/200/142 145/212/153 81/213/154
f 93/192/134 158/214/155 94/215/156
f 85/189/131 148/216/157 149/217/158
f 89/218/159 152/196/138 153/205/147
f 81/213/154 146/219/160 82/207/149
f 83/209/151 148/216/157 84/220/161
f 94/215/156 160/221/162 95/198/140
f 32/1/1 2/39/36 34/2/2
f 6/4/4 8/7/7 43/5/5
f 8/7/7 10/9/9 46/8/8
f 10/9/9 12/11/11 49/10/10
f 12/11/11 14/13/13 52/12/12
f 14/13/13 16/15/15 55/14/14
f 16/15/15 18/17/17 58/16/16
f 18/17/17 20/19/19 61/18/18
f 20/19/19 22/21/21 64/20/20
f 22/21/21 24/23/23 67/22/22
f 24/23/23 26/222/25 70/24/24
f 26/25/25 28/28/27 73/26/26
f 28/28/27 30/30/29 76/29/28
f 30/30/29 32/1/1 79/3/3
s 0
f 12/31/30 21/111/30 19/32/30
s 1
f 7/34/31 109/158/81 106/35/32
f 4/37/34 6/4/4 40/6/6
f 2/39/36 4/37/34 37/38/35
f 34/40/2 37/46/35 38/41/37
f 35/42/38 38/41/37 36/43/39
f 40/45/6 41/47/41 38/41/37
f 41/47/41 39/50/43 36/43/39
f 43/48/5 44/52/44 41/47/41
f 41/47/41 44/52/44 42/49/42
f 46/51/8 47/53/45 44/52/44
f 47/53/45 45/56/47 42/49/42
f 49/54/10 50/55/46 47/53/45
f 50/55/46 48/59/49 45/56/47
f 52/57/12 53/58/48 50/55/46
f 53/58/48 51/62/52 48/59/49
f 52/57/12 55/64/14 56/60/50
f 53/58/48 56/60/50 54/61/51
f 58/63/16 59/65/53 56/60/50
f 59/65/53 57/68/55 54/61/51
f 61/66/18 62/70/56 59/65/53
f 59/65/53 62/70/56 60/67/54
f 64/69/20 65/71/57 62/70/56
f 65/71/57 63/74/59 60/67/54
f 67/72/22 68/73/58 65/71/57
f 68/73/58 66/77/61 63/74/59
f 70/75/24 71/223/62 68/73/58
f 68/73/58 71/223/62 69/76/60
f 73/78/26 74/83/64 71/79/62
f 71/79/62 74/83/64 72/81/63
f 76/82/28 77/84/65 74/83/64
f 77/84/65 75/87/67 72/81/63
f 79/85/3 80/88/68 77/84/65
f 77/84/65 80/88/68 78/86/66
f 34/40/2 35/42/38 80/88/68
f 35/42/38 33/44/40 78/86/66
f 78/86/66 33/44/40 36/43/39
f 36/43/39 39/50/43 42/49/42
f 42/49/42 45/56/47 48/59/49
f 48/59/49 51/62/52 54/61/51
f 54/61/51 57/68/55 60/67/54
f 60/67/54 63/74/59 66/77/61
f 66/77/61 69/76/60 72/81/63
f 72/81/63 75/87/67 78/86/66
f 78/86/66 36/43/39 42/49/42
f 42/49/42 48/59/49 54/61/51
f 54/61/51 60/67/54 66/77/61
f 66/77/61 72/81/63 78/86/66
f 78/86/66 42/49/42 54/61/51
s 0
f 24/89/30 22/112/30 11/90/30
f 32/92/30 1/113/30 29/93/30
f 8/95/30 25/114/30 23/96/30
f 18/98/30 15/115/30 13/99/30
f 28/101/30 5/118/30 3/102/30
f 4/104/30 31/116/30 27/105/30
f 16/107/30 14/33/30 19/32/30
f 24/89/30 9/91/30 7/109/30
f 12/31/30 10/97/30 23/96/30
f 20/100/30 13/99/30 11/90/30
f 30/103/30 3/102/30 1/113/30
f 8/95/30 6/106/30 27/105/30
f 16/107/30 17/108/30 15/115/30
f 4/104/30 2/94/30 29/93/30
f 28/101/30 26/110/30 7/117/30
s 1
f 31/119/69 29/185/130 98/120/70
f 27/122/72 139/133/82 136/123/73
f 17/125/75 124/129/79 121/126/76
f 19/128/78 127/137/86 124/129/79
f 9/130/80 112/135/84 109/131/81
f 31/119/69 142/121/71 139/133/82
f 11/134/83 115/144/91 112/135/84
f 21/136/85 130/142/89 127/137/86
s 0
f 140/140/87 143/224/87 97/225/87
f 97/225/87 101/226/87 104/227/87
f 104/227/87 107/228/87 110/229/87
f 110/229/87 113/230/87 116/138/87
f 116/138/87 119/231/87 122/232/87
f 122/232/87 125/233/87 128/139/87
f 128/139/87 131/234/87 134/235/87
f 134/235/87 137/236/87 140/140/87
f 140/140/87 97/225/87 104/227/87
f 104/227/87 110/229/87 116/138/87
f 116/138/87 122/232/87 128/139/87
f 128/139/87 134/235/87 140/140/87
f 140/140/87 104/227/87 116/138/87
s 1
f 23/141/88 133/150/97 130/142/89
f 13/143/90 118/148/95 115/144/91
f 3/145/92 103/149/96 100/146/93
f 15/127/77 121/126/76 118/148/95
f 5/36/33 106/35/32 103/149/96
f 25/124/74 136/123/73 133/150/97
f 100/146/93 102/154/101 99/151/98
f 99/151/98 102/154/101 101/152/99
f 103/149/96 105/156/103 102/154/101
f 102/154/101 105/156/103 104/155/102
f 106/35/32 108/157/104 105/156/103
f 108/157/104 107/160/106 104/155/102
f 109/158/81 111/159/105 108/157/104
f 111/159/105 110/237/109 107/160/106
f 109/131/81 112/135/84 114/161/107
f 111/162/105 114/161/107 113/163/108
f 112/135/84 115/144/91 117/165/110
f 114/161/107 117/165/110 116/166/111
f 118/148/95 120/167/112 117/165/110
f 120/167/112 119/169/114 116/166/111
f 121/126/76 123/168/113 120/167/112
f 123/168/113 122/171/116 119/169/114
f 124/129/79 126/172/117 123/168/113
f 123/168/113 126/172/117 125/170/115
f 127/137/86 129/175/120 126/172/117
f 126/172/117 129/175/120 128/173/118
f 127/137/86 130/142/89 132/174/119
f 132/174/119 131/178/123 128/173/118
f 130/142/89 133/150/97 135/176/121
f 132/174/119 135/176/121 134/177/122
f 133/150/97 136/123/73 138/179/124
f 135/176/121 138/179/124 137/180/125
f 139/133/82 141/182/127 138/179/124
f 138/179/124 141/182/127 140/181/126
f 142/121/71 144/183/128 141/182/127
f 144/183/128 143/184/129 140/181/126
f 98/120/70 99/151/98 144/183/128
f 99/151/98 97/153/100 143/184/129
f 1/147/94 100/146/93 98/120/70
s 0
f 146/188/87 145/238/87 159/239/87
f 159/239/87 160/240/87 158/241/87
f 158/241/87 157/242/87 156/243/87
f 156/243/87 155/244/87 154/186/87
f 154/186/87 153/245/87 152/246/87
f 152/246/87 151/247/87 150/187/87
f 150/187/87 149/248/87 148/249/87
f 148/249/87 147/250/87 146/188/87
f 146/188/87 159/239/87 158/241/87
f 158/241/87 156/243/87 154/186/87
f 154/186/87 152/246/87 150/187/87
f 150/187/87 148/249/87 146/188/87
f 146/188/87 158/241/87 154/186/87
s 1
f 85/189/131 149/217/158 150/190/132
f 93/192/134 92/251/152 156/193/135
f 87/195/137 151/206/148 152/196/138
f 95/198/140 160/221/162 159/199/141
f 91/201/143 90/204/146 154/202/144
f 90/204/146 89/218/159 153/205/147
f 87/195/137 86/191/133 150/190/132
f 82/207/149 146/219/160 147/208/150
f 91/201/143 155/203/145 156/210/135
f 96/200/142 159/199/141 145/212/153
f 93/192/134 157/194/136 158/214/155
f 85/189/131 84/220/161 148/216/157
f 89/218/159 88/197/139 152/196/138
f 81/213/154 145/212/153 146/219/160
f 83/209/151 147/208/150 148/216/157
f 94/215/156 158/214/155 160/221/162
