# Blender 4.0.0
# www.blender.org
mtllib MiniHealthVial.mtl
o Cube
v -0.064983 -0.005922 0.064983
v -0.138715 0.197790 0.138715
v -0.064983 -0.005922 -0.064983
v -0.138715 0.197790 -0.138715
v 0.064983 -0.005922 0.064983
v 0.138715 0.197790 0.138715
v 0.064983 -0.005922 -0.064983
v 0.138715 0.197790 -0.138715
v -0.057809 0.479141 0.057809
v -0.057809 0.479141 -0.057809
v 0.057809 0.479141 -0.057809
v 0.057809 0.479141 0.057809
v 0.000000 0.477511 -0.044991
v 0.000000 0.556212 -0.058167
v 0.017217 0.477511 -0.041566
v 0.022259 0.556212 -0.053739
v 0.031813 0.477511 -0.031813
v 0.041130 0.556212 -0.041130
v 0.041566 0.477511 -0.017217
v 0.053739 0.556212 -0.022259
v 0.044991 0.477511 -0.000000
v 0.058167 0.556212 -0.000000
v 0.041566 0.477511 0.017217
v 0.053739 0.556212 0.022259
v 0.031813 0.477511 0.031813
v 0.041130 0.556212 0.041130
v 0.017217 0.477511 0.041566
v 0.022259 0.556212 0.053739
v 0.000000 0.477511 0.044991
v 0.000000 0.556212 0.058167
v -0.017217 0.477511 0.041566
v -0.022259 0.556212 0.053739
v -0.031813 0.477511 0.031813
v -0.041130 0.556212 0.041130
v -0.041566 0.477511 0.017217
v -0.053739 0.556212 0.022259
v -0.044991 0.477511 -0.000000
v -0.058167 0.556212 -0.000000
v -0.041566 0.477511 -0.017217
v -0.053739 0.556212 -0.022259
v -0.031813 0.477511 -0.031813
v -0.041130 0.556212 -0.041130
v -0.017217 0.477511 -0.041566
v -0.022259 0.556212 -0.053739
vn -0.9403 -0.3403 -0.0000
vn -0.0000 -0.3403 -0.9403
vn 0.9403 -0.3403 -0.0000
vn -0.0000 -0.3403 0.9403
vn -0.0000 -1.0000 -0.0000
vn -0.0000 0.2764 -0.9611
vn -0.0000 1.0000 -0.0000
vn 0.9611 0.2764 -0.0000
vn -0.9611 0.2764 -0.0000
vn -0.0000 0.2764 0.9611
vn -0.0000 0.6029 -0.7978
vn 0.3774 -0.1651 -0.9112
vn -0.0000 -0.1651 -0.9863
vn 0.3053 0.6029 -0.7371
vn 0.6974 -0.1651 -0.6974
vn 0.7371 0.6029 -0.3053
vn 0.9112 -0.1651 -0.3774
vn 0.9863 -0.1651 -0.0000
vn 0.7978 0.6029 -0.0000
vn 0.9112 -0.1651 0.3774
vn 0.7371 0.6029 0.3053
vn 0.6974 -0.1651 0.6974
vn 0.3053 0.6029 0.7371
vn 0.3774 -0.1651 0.9112
vn -0.0000 -0.1651 0.9863
vn -0.0000 0.6029 0.7978
vn -0.3774 -0.1651 0.9112
vn -0.5642 0.6029 0.5642
vn -0.6974 -0.1651 0.6974
vn -0.9112 -0.1651 0.3774
vn -0.7371 0.6029 0.3053
vn -0.9863 -0.1651 -0.0000
vn -0.7978 0.6029 -0.0000
vn -0.9112 -0.1651 -0.3774
vn -0.7371 0.6029 -0.3053
vn -0.6974 -0.1651 -0.6974
vn -0.5642 0.6029 -0.5642
vn -0.3774 -0.1651 -0.9112
vn -0.3053 0.6029 -0.7371
vn 0.5642 0.6029 -0.5642
vn 0.5642 0.6029 0.5642
vn -0.3053 0.6029 0.7371
vt 0.637304 0.479489
vt 0.481137 0.626324
vt 0.481137 0.532639
vt 0.534286 0.782491
vt 0.387452 0.626324
vt 0.231284 0.679473
vt 0.387452 0.532639
vt 0.334302 0.376471
vt 0.392623 0.993520
vt 0.334302 0.782491
vt 0.475965 0.082099
vt 0.392623 0.165442
vt 0.392623 0.082099
vt 0.020255 0.537810
vt 0.231284 0.479489
vt 0.848333 0.621153
vt 0.637304 0.679473
vt 0.475965 0.165442
vt 0.534286 0.376471
vt 0.960351 0.427793
vt 0.841567 0.415007
vt 0.850416 0.391094
vt 0.948912 0.458708
vt 0.831198 0.438300
vt 0.920187 0.518012
vt 0.819349 0.460877
vt 0.920187 0.013550
vt 0.831198 0.093262
vt 0.819349 0.070685
vt 0.935505 0.042739
vt 0.841567 0.116555
vt 0.948912 0.072854
vt 0.850416 0.140468
vt 0.969776 0.135357
vt 0.857706 0.164900
vt 0.863408 0.189752
vt 0.977148 0.167486
vt 0.867497 0.214919
vt 0.985617 0.232834
vt 0.869958 0.240297
vt 0.870779 0.265781
vt 0.986678 0.265781
vt 0.869958 0.291265
vt 0.985617 0.298728
vt 0.867497 0.316643
vt 0.982435 0.331538
vt 0.863408 0.341810
vt 0.650808 0.325873
vt 0.627499 0.208690
vt 0.744682 0.185381
vt 0.977148 0.364075
vt 0.857706 0.366661
vt 0.969776 0.396205
vt 0.475966 0.993520
vt 0.020255 0.621153
vt 0.848333 0.537810
vt 0.935505 0.488823
vt 0.960351 0.103769
vt 0.982435 0.200024
vt 0.767991 0.208691
vt 0.780606 0.239145
vt 0.780606 0.272110
vt 0.767991 0.302564
vt 0.744682 0.325873
vt 0.714227 0.338488
vt 0.681263 0.338488
vt 0.627499 0.302564
vt 0.614884 0.272109
vt 0.614884 0.239145
vt 0.650808 0.185381
vt 0.681263 0.172767
vt 0.714227 0.172767
s 0
usemtl MiniHealthVial
f 2/1/1 3/2/1 1/3/1
f 4/4/2 7/5/2 3/2/2
f 8/6/3 5/7/3 7/5/3
f 6/8/4 1/3/4 5/7/4
f 7/5/5 1/3/5 3/2/5
f 4/4/6 11/9/6 8/10/6
f 10/11/7 12/12/7 11/13/7
f 8/6/8 12/14/8 6/15/8
f 2/1/9 10/16/9 4/17/9
f 6/8/10 9/18/10 2/19/10
s 1
f 14/20/11 15/21/12 13/22/13
f 16/23/14 17/24/15 15/21/12
f 17/24/15 20/25/16 19/26/17
f 20/27/16 21/28/18 19/29/17
f 22/30/19 23/31/20 21/28/18
f 24/32/21 25/33/22 23/31/20
f 25/33/22 28/34/23 27/35/24
f 28/34/23 29/36/25 27/35/24
f 30/37/26 31/38/27 29/36/25
f 31/38/27 34/39/28 33/40/29
f 34/39/28 35/41/30 33/40/29
f 36/42/31 37/43/32 35/41/30
f 38/44/33 39/45/34 37/43/32
f 40/46/35 41/47/36 39/45/34
s 0
f 34/48/7 26/49/7 18/50/7
s 1
f 42/51/37 43/52/38 41/47/36
f 44/53/39 13/22/13 43/52/38
s 0
f 2/1/1 4/17/1 3/2/1
f 4/4/2 8/10/2 7/5/2
f 8/6/3 6/15/3 5/7/3
f 6/8/4 2/19/4 1/3/4
f 7/5/5 5/7/5 1/3/5
f 4/4/6 10/54/6 11/9/6
f 10/11/7 9/18/7 12/12/7
f 8/6/8 11/55/8 12/14/8
f 2/1/9 9/56/9 10/16/9
f 6/8/10 12/12/10 9/18/10
s 1
f 14/20/11 16/23/14 15/21/12
f 16/23/14 18/57/40 17/24/15
f 17/24/15 18/57/40 20/25/16
f 20/27/16 22/30/19 21/28/18
f 22/30/19 24/32/21 23/31/20
f 24/32/21 26/58/41 25/33/22
f 25/33/22 26/58/41 28/34/23
f 28/34/23 30/37/26 29/36/25
f 30/37/26 32/59/42 31/38/27
f 31/38/27 32/59/42 34/39/28
f 34/39/28 36/42/31 35/41/30
f 36/42/31 38/44/33 37/43/32
f 38/44/33 40/46/35 39/45/34
f 40/46/35 42/51/37 41/47/36
s 0
f 18/50/7 16/60/7 14/61/7
f 14/61/7 44/62/7 42/63/7
f 42/63/7 40/64/7 38/65/7
f 38/65/7 36/66/7 34/48/7
f 34/48/7 32/67/7 30/68/7
f 30/68/7 28/69/7 26/49/7
f 26/49/7 24/70/7 22/71/7
f 22/71/7 20/72/7 18/50/7
f 18/50/7 14/61/7 42/63/7
f 42/63/7 38/65/7 34/48/7
f 34/48/7 30/68/7 26/49/7
f 26/49/7 22/71/7 18/50/7
f 18/50/7 42/63/7 34/48/7
s 1
f 42/51/37 44/53/39 43/52/38
f 44/53/39 14/20/11 13/22/13
